/* XPM */
static char *_1695233420[] = {
/* columns rows colors chars-per-pixel */
"40 40 153 2 ",
"   c #040203",
".  c #050303",
"X  c #050403",
"o  c #090504",
"O  c #0A0505",
"+  c #0B0707",
"@  c #0D0605",
"#  c #0E0707",
"$  c #07090F",
"%  c #09080B",
"&  c #080A0F",
"*  c #100806",
"=  c #120807",
"-  c #130907",
";  c #130A08",
":  c #170B09",
">  c #180A08",
",  c #1A0D0B",
"<  c #1E0E0C",
"1  c #1E0F0C",
"2  c #080A11",
"3  c #080B11",
"4  c #210F0C",
"5  c #230F0C",
"6  c #22100E",
"7  c #24100D",
"8  c #24110D",
"9  c #25110E",
"0  c #29130F",
"q  c #2A130F",
"w  c #291410",
"e  c #2F1712",
"r  c #301611",
"t  c #311612",
"y  c #381914",
"u  c #391B15",
"i  c #3F1E17",
"p  c #0F1320",
"a  c #411D16",
"s  c #461F18",
"d  c #432018",
"f  c #442019",
"g  c #4B211A",
"h  c #4D221A",
"j  c #4C221B",
"k  c #52241C",
"l  c #54251D",
"z  c #58271E",
"x  c #5A281F",
"c  c #5E291F",
"v  c #572820",
"b  c #592920",
"n  c #5D2B22",
"m  c #622C23",
"M  c #632D23",
"N  c #692D23",
"B  c #6A2D22",
"V  c #6A2E23",
"C  c #6A3125",
"Z  c #6E3125",
"A  c #723226",
"S  c #763529",
"D  c #79362A",
"F  c #7D382B",
"G  c #212A4C",
"H  c #293257",
"J  c #27325A",
"K  c #464571",
"L  c #6E506F",
"P  c #6E6768",
"I  c #66686D",
"U  c #756A6A",
"Y  c #893B2D",
"T  c #8C3D2E",
"R  c #8D3C2F",
"E  c #8F3D2F",
"W  c #903E2F",
"Q  c #923F30",
"!  c #943F30",
"~  c #914031",
"^  c #954030",
"/  c #954232",
"(  c #994333",
")  c #9A4334",
"_  c #9D4535",
"`  c #A34334",
"'  c #A34736",
"]  c #AA4937",
"[  c #AB4A37",
"{  c #A74938",
"}  c #A94938",
"|  c #AB4938",
" . c #AB4B39",
".. c #AF4B39",
"X. c #AD4C3A",
"o. c #AF4C3A",
"O. c #B04B39",
"+. c #B14D3A",
"@. c #BA4C3A",
"#. c #BB513D",
"$. c #BC513E",
"%. c #C0523F",
"&. c #C0533F",
"*. c #C2533F",
"=. c #8C7371",
"-. c #9B7976",
";. c #C25440",
":. c #C55540",
">. c #C85641",
",. c #CC5843",
"<. c #D05A44",
"1. c #D35A44",
"2. c #D25B45",
"3. c #D65B45",
"4. c #D75C45",
"5. c #D85D46",
"6. c #DB5D46",
"7. c #DA5D47",
"8. c #DD5D47",
"9. c #DC5E46",
"0. c #DD5E47",
"q. c #E4614A",
"w. c #E6624A",
"e. c #E7634B",
"r. c #E8624A",
"t. c #E8634A",
"y. c #E8624B",
"u. c #EA644B",
"i. c #ED644B",
"p. c #EE644B",
"a. c #EE644C",
"s. c #EF654C",
"d. c #EF664D",
"f. c #F0654C",
"g. c #F0654D",
"h. c #F0664C",
"j. c #F0664D",
"k. c #F3674D",
"l. c #AF817C",
"z. c #B8827D",
"x. c #3F5295",
"c. c #797F92",
"v. c #4B63B3",
"b. c #93688E",
"n. c #9B7CBA",
"m. c #C48781",
"M. c #DB9289",
"N. c #DF9288",
"B. c #E09389",
"V. c #E2958B",
"C. c #E5968C",
"Z. c #E6968C",
"A. c #E6978C",
/* pixels */
"c.G G K n.H G G G G G G G G G G G G G G G G G G G G G G G G G G G G G G G G J v.",
"z.` +.<.s.;.....B 4 } O..............................._ o F ....O.O.......] n % ",
"N.i.s.s.j.s.s.i./ q w.p.s.j.j.s.s.s.s.s.s.s.s.s.s.s.i.7.+ ..s.s.f.f.f.g.p.i.j.v ",
"C.s.s.j.j.j.s.s./ w r.g.s.y.s.s.s.s.s.s.s.s.s.j.r.s.j.7.@ } s.s.j.j.j.j.s.j.g.T ",
"A.s.j.j.j.j.j.s.! w r.g.o.6 j.g.s.5.j.s.5.j.i.3.> 7.g.0.@ } s.s.j.j.j.j.j.j.k.W ",
"C.s.j.j.j.j.s.s.) w r.j.{ : s.i.w., b h t y.j.<.; ,.i.5.@ ..s.j.j.j.j.j.j.j.j.( ",
"C.j.j.j.j.j.s.s./ w y.d.y.<.d.g.s.} s h $.s.s.i.<.j.j.5.@ X.s.j.j.j.j.j.j.j.j.! ",
"C.j.j.j.j.s.s.s./ w y.s.g.g.s.s.s.s.j.j.j.s.s.s.s.s.j.5.@ X.s.j.j.j.j.j.j.j.j.Q ",
"C.s.s.s.p.i.s.p./ w w.s.s.s.s.s.j.i.g.g.j.i.j.i.s.s.i.5.@ } g.p.i.i.f.i.i.j.j.Q ",
"m.} } } ..} } } B < ' } ..} { } } O.} } } } } O.} } } ) + D ] } O.[ ] ..} ] } V ",
"P > ; X , > > > > > > > > > > > > ; o o > > > > > > > > > > > > > - . - > > > @ ",
"M.9.X.= :.0.9.9.0.0.0.0.0.0.0.0.0.0.a m 0.0.0.9.0.0.0.0.0.0.9.9.9.[ o $.9.9.0.T ",
"C.i.%.- 5.p.f.i.j.j.s.s.s.s.s.s.g.g.a V j.j.j.j.j.p.g.j.j.j.j.j.i.#.o 1.i.j.j.^ ",
"C.i.%.- 5.j.j.j.j.j.j.j.j.j.j.j.j.i.f C j.j.j.j.j.j.j.j.j.j.j.j.f.#.o 1.f.j.j.^ ",
"C.p.%.- 3.f.j.j.j.j.j.j.j.j.j.j.s.s.f C j.j.j.j.j.j.j.j.j.j.j.j.i.$.o 1.i.j.j.^ ",
"C.j.%.- 5.i.j.j.j.j.j.j.j.j.j.j.j.j.f C j.j.j.j.j.j.j.j.j.j.j.j.f.$.o <.j.j.j.^ ",
"Z.p.%.- 9.p.j.j.s.k.s.k.j.j.j.j.j.s.s C j.j.j.j.j.j.j.j.j.j.j.j.i.#.o 1.f.f.j.^ ",
"Z.f.%.- 3.f.j.j.d.d.d.s.j.j.j.j.j.s.f C j.s.j.j.j.j.j.j.j.j.j.j.f.$.o <.f.f.f.^ ",
"Z.p.%.- 3.f.f.f.s.j.s.s.f.f.f.f.s.s.f C s.s.s.k.j.s.j.j.g.g.j.g.i.$.o 3.i.f.f./ ",
"-.B k + b B B B V V N B B B B B V V < e V V V B V V B B B N B B B k X x B B B a ",
"=.j j j j j j j t @ j j j j j j j j j j j j j j j j j s   y s k j j j j j j j t ",
"C.s.j.j.j.j.f.j./ w r.j.j.j.f.k.s.s.j.j.j.k.j.j.j.j.j.7.@ ..j.i.s.k.k.s.f.f.f./ ",
"A.f.j.j.j.j.j.p./ w y.j.j.j.j.j.s.j.j.j.j.j.j.j.j.j.j.7.@ } j.j.d.d.d.s.k.i.j.^ ",
"A.f.j.j.j.j.j.j./ w y.j.j.j.j.j.d.g.j.j.j.j.j.j.j.j.i.7.@ ..g.j.s.k.d.k.d.k.j.^ ",
"A.p.j.j.j.j.j.p./ q r.j.j.j.j.j.j.j.j.j.j.j.j.j.j.j.p.5.# O.j.g.j.j.j.j.j.j.j.^ ",
"Z.j.j.j.j.j.j.i.( q r.j.j.j.j.j.j.j.j.j.j.j.j.j.j.j.g.7.@ } p.j.j.j.j.j.j.j.j.^ ",
"Z.j.j.j.j.j.j.f./ q u.f.j.j.j.j.j.j.j.j.j.j.j.j.j.j.j.9.# } j.j.j.j.f.f.j.j.j.^ ",
"Z.p.j.j.j.j.i.f./ q w.i.j.j.j.j.j.j.j.j.j.j.f.f.j.j.f.5.@ ..p.j.j.j.j.f.j.j.j.^ ",
"V.r.y.i.u.r.u.w.~ 9 w.r.r.u.u.w.u.u.u.r.u.r.u.r.u.y.y.<.@ { w.r.r.r.u.r.r.r.r.W ",
"U 5 9 9 9 9 5 9 ; X 9 4 7 7 6 6 9 4 9 9 9 9 9 9 9 4 9 <   , 4 9 9 9 9 9 9 9 9 > ",
"l.E A @ T T E T E ~ ~ E E E E Q T E q i R R R R R R T E T E Q E E C . F T T T z ",
"C.p.$.= ,.j.p.i.f.i.i.f.i.r.f.i.p.i.d C s.s.s.s.s.j.s.s.s.s.s.s.s.@.O 1.p.g.f.( ",
"C.j.%.= 7.i.j.j.j.j.j.j.j.j.j.j.j.f.f C j.j.j.j.j.j.j.j.j.j.j.j.f.$.o 1.i.j.j.^ ",
"C.p.%.- 5.j.j.j.j.j.j.j.j.j.j.j.j.f.f C j.j.j.j.j.j.j.j.j.j.j.j.f.$.o 1.j.j.j.W ",
"A.i.%.- 5.p.j.j.j.j.j.j.j.j.j.j.j.f.f C j.j.j.j.j.j.j.j.j.j.j.j.i.#.o 1.i.j.j./ ",
"A.i.&.- 5.f.j.j.j.j.j.j.j.j.j.j.j.i.f C j.j.j.j.j.j.j.j.j.j.j.j.f.$.o 1.j.j.j.^ ",
"Z.i.%.* 5.i.j.j.j.j.j.j.j.j.j.j.j.i.f C j.j.j.f.j.j.j.j.j.j.j.j.f.#.o <.j.j.j.~ ",
"V.i.%.* 7.j.j.j.f.f.f.j.f.i.f.f.f.j.f C f.i.f.f.f.j.f.f.f.f.f.f.i.#.+ <.i.i.f.M ",
"m.@._ * O.*.>.*.*.,.*.>.>.*.*.>.>.*.u x *.,.*.,.&.,.&.,.i.i.,.%.&._ X X.*.*.D + ",
"I % & & & % 2 2 3 % 3 3 % 2 2 % & & & & & & & & & & & 3 b.L & $ & % & % % 2 p x."
};
