/* XPM */
static char *_1695233420[] = {
/* columns rows colors chars-per-pixel */
"40 40 149 2 ",
"   c #050607",
".  c #090808",
"X  c #3B1D1F",
"o  c #362A09",
"O  c #3C1E21",
"+  c #1C2035",
"@  c #442201",
"#  c #492704",
"$  c #47280E",
"%  c #542F01",
"&  c #443509",
"*  c #472812",
"=  c #412523",
"-  c #4A3124",
";  c #4C342A",
":  c #4D3732",
">  c #664002",
",  c #6B4403",
"<  c #634D09",
"1  c #725107",
"2  c #7E610A",
"3  c #48443C",
"4  c #303C6A",
"5  c #503F46",
"6  c #7F387F",
"7  c #51424D",
"8  c #534756",
"9  c #544C66",
"0  c #544C68",
"q  c #4C4579",
"w  c #7F797D",
"e  c #D51C1E",
"r  c #EF1B1F",
"t  c #F1171F",
"y  c #F21B1D",
"u  c #DE251F",
"i  c #EA3B1E",
"p  c #D01820",
"a  c #EB1624",
"s  c #E71A22",
"d  c #EA1B23",
"f  c #E41F2B",
"g  c #DE2D33",
"h  c #EB2D20",
"j  c #E02637",
"k  c #855B04",
"l  c #80620B",
"z  c #9C6E06",
"x  c #9F7106",
"c  c #95720A",
"v  c #9E7A0B",
"b  c #A37307",
"n  c #A87D09",
"m  c #886C2B",
"M  c #EF4E1C",
"N  c #EE511B",
"B  c #F26B17",
"V  c #F17F14",
"C  c #A4125E",
"Z  c #9E1264",
"A  c #94116F",
"S  c #920E74",
"D  c #921072",
"F  c #D62D46",
"G  c #D92C43",
"H  c #D5304C",
"J  c #CE3656",
"K  c #CB395B",
"L  c #D03352",
"P  c #C43E66",
"I  c #B9436D",
"U  c #B6497C",
"Y  c #85667A",
"T  c #C1416C",
"R  c #BC910B",
"E  c #9E803D",
"W  c #C18E09",
"Q  c #C6980B",
"!  c #F38215",
"~  c #F79E11",
"^  c #F99E10",
"/  c #F0B70C",
"(  c #F5BB0C",
")  c #FABE0D",
"_  c #F3BC15",
"`  c #F3BD1B",
"'  c #CD9B34",
"]  c #C4993D",
"[  c #ED8120",
"{  c #E29A20",
"}  c #E8BA30",
"|  c #FDC10D",
" . c #FDF401",
".. c #CAC232",
"X. c #BB8F48",
"o. c #9A9562",
"O. c #B98879",
"+. c #D8B34A",
"@. c #D2B155",
"#. c #780E8B",
"$. c #733989",
"%. c #5B0AA6",
"&. c #503FAF",
"*. c #4C3CB4",
"=. c #3B4B85",
"-. c #595B89",
";. c #5D579E",
":. c #6F558F",
">. c #5B6299",
",. c #656093",
"<. c #5843A5",
"1. c #606EB8",
"2. c #3205CC",
"3. c #2F05D0",
"4. c #3005D0",
"5. c #2F2BC8",
"6. c #0A01EF",
"7. c #0000F7",
"8. c #0A01F0",
"9. c #0000FB",
"0. c #090BFC",
"q. c #171EFD",
"w. c #1A22FC",
"e. c #2632FD",
"r. c #2832F9",
"t. c #7C7CE1",
"y. c #617FFE",
"u. c #AC518B",
"i. c #A55899",
"p. c #9865B2",
"a. c #8D6EC3",
"s. c #8773CE",
"d. c #8574D1",
"f. c #8279D8",
"g. c #6882E6",
"h. c #6984EC",
"j. c #7583ED",
"k. c #7788EB",
"l. c #788BE8",
"z. c #7991E7",
"x. c #7890E9",
"c. c #6A87F4",
"v. c #6A88F5",
"b. c #6685FE",
"n. c #6B8CFF",
"m. c #7385F1",
"M. c #718EF4",
"N. c #AFA58C",
"B. c #B0A58C",
/* pixels */
"n.n.n.n.n.n.n.n.n.n.n.n.n.n.n.n.n.n.n.n.n.n.n.n.n.n.n.n.n.n.n.n.n.n.n.n.n.n.n.n.",
"n.n.n.n.n.n.n.n.n.n.n.n.n.n.n.n.n.n.n.n.n.n.n.n.n.n.n.n.n.n.n.n.n.n.n.n.n.n.n.n.",
"n.n.n.n.n.n.n.n.n.n.n.n.n.n.n.n.n.n.n.n.n.n.n.n.n.n.n.n.n.n.n.n.n.n.n.n.n.n.n.n.",
"n.n.n.n.n.n.n.n.n.n.n.n.n.n.n.n.n.n.n.n.n.n.n.n.n.n.n.n.n.n.n.n.n.n.n.n.n.n.n.n.",
"n.n.n.n.n.n.n.n.n.n.n.n.n.d.i.i.i.i.i.i.i.i.i.i.f.n.n.n.n.n.n.n.n.n.n.n.n.n.n.n.",
"n.n.n.n.n.n.n.n.n.n.n.n.n.i.d s d s h d d a d d p.n.n.n.n.n.n.n.n.n.n.n.n.n.n.n.",
"n.n.n.n.n.n.n.n.n.n.n.f.a.U d s d d d d s d s d u.a.a.a.a.a.s.n.n.n.n.n.n.n.n.n.",
"n.n.n.n.n.n.n.n.n.n.n.T d d d a d d d d d a d d s d d d d d H n.n.n.n.n.n.n.n.n.",
"n.n.n.n.n.n.n.n.n.n.n.I e e e e p u h h h i p p u h g G F G P n.n.n.n.n.n.n.n.n.",
"n.n.n.n.n.n.n.n.n.n.n.8 @ @ @ @ o > | | | | o   v | B.n.n.n.n.n.n.n.n.n.n.n.n.n.",
"n.n.n.n.n.n.n.n.n.v.v.8 # @ @ @ # , | | | | o   v | B.M.M.M.v.n.n.n.n.n.n.n.n.n.",
"n.n.n.n.n.n.n.n.n.: * R / z @ k / / | | | | o   v | _ ` ` | +.v.n.n.n.n.n.n.n.n.",
"n.n.n.n.n.n.n.n.v.- @ W ) b @ k | | | | | | o   n | ) | | | } n.n.n.n.n.n.n.n.n.",
"n.n.n.n.n.n.n.n.v.- @ W ) b @ % 1 k | ) ( | Q R 1 & v ) _ | _ @.@.x.n.n.n.n.n.n.",
"n.n.n.n.n.n.n.n.n.- o W ) b @ @ @ , | | | | | | < . 2 | ) | | ) | M.n.n.n.n.n.n.",
"n.n.n.n.n.n.n.n.v.>.-.m x z b x b n | ) | | c 2 o . & l 2 2 m N.N.M.n.n.n.n.n.n.",
"n.n.n.n.n.n.n.n.n.n.n.8 @ z | ) ) ) | | ) | o . . . . . . . + n.n.n.n.n.n.n.n.n.",
"n.n.n.n.n.n.n.n.n.n.n.>.9 E ) ( ) ( ) ) ) | l < < < 3 4 4 4 =.n.n.n.n.n.n.n.n.n.",
"n.n.n.n.n.n.n.n.n.n.n.n.n.N.| ) ) ) ) ) ) | | | | | N.n.n.n.n.n.n.n.n.n.n.n.n.n.",
"n.n.n.n.n.n.n.n.n.n.b.t.d.O.~ { ] ' ^ ^ ~ ^ ' ] { ~ O.d.t.n.n.n.n.n.n.n.n.n.n.n.",
"n.n.n.n.n.n.n.n.n.n.n.I d d d S 9.2.t a a t 3.9.S d d d I n.n.n.n.n.n.n.n.n.n.n.",
"n.n.n.n.n.n.n.n.n.m.j.T d d d A 9.2.y d d y 4.9.D d d d T j.j.n.n.n.n.n.n.n.n.n.",
"n.n.n.n.n.n.n.n.v.L j j d d d A 9.2.y d d y 3.9.D d s d j j J n.n.n.n.n.n.n.n.n.",
"n.n.n.n.n.n.n.n.v.G t t d d d A 9.2.y y y y 4.9.D d s t t d H v.n.n.n.n.n.n.n.n.",
"n.n.n.n.n.n.k.J L f d d d a d A 9.6.2.2.2.2.8.9.D d s d s d f J K m.n.n.n.n.n.n.",
"n.n.n.n.n.n.k.d d d d d d r t A 9.9.9.9.9.9.9.0.D d d d d d d d f j.n.n.n.n.n.n.",
"n.n.n.n.n.n.l.! ! V ! i s C %.$.o.w 9.9.9.9.w o.$.%.Z d i ! V V [ k.n.n.n.n.n.n.",
"n.n.n.n.n.n.z.) | | | M d #.9.;. ...9.9.9.9... .;.9.#.d N | ) | | z.n.n.n.n.n.n.",
"n.n.n.n.n.n.z.) ) ) ) ! B 6 9.5.,.,.7.7.9.9.,.Y 5.9.$.B ! | ( | ` M.n.n.n.n.n.n.",
"n.n.n.n.n.n.z.| | | ) ) | Y 9.9.0.0.9.7.9.9.9.9.9.8.:.| | | | | | z.n.n.n.n.n.n.",
"n.n.n.n.n.n.z.) ) ) ) ' X.;.9.7.9.9.9.7.9.9.9.9.7.9.<.X.' | ) ) ` x.n.n.n.n.n.n.",
"n.n.n.n.n.n.z.| | | | &.9.7.9.9.9.9.9.9.9.9.9.9.9.9.9.9.<.| ) | | z.n.n.n.n.n.n.",
"n.n.n.n.n.n.z.` ` ` | *.9.9.9.9.9.9.0.0.0.0.9.9.9.9.7.9.&.` ` ` } z.n.n.n.n.n.n.",
"n.n.n.n.n.n.n.M.M.M.v.r.9.9.9.7.9.w.n.b.b.b.q.9.9.9.9.9.r.M.M.M.M.n.n.n.n.n.n.n.",
"n.n.n.n.n.n.n.n.n.n.n.e.9.9.9.9.9.w.n.n.n.n.q.9.9.9.9.9.e.n.n.n.n.n.n.n.n.n.n.n.",
"n.n.n.n.n.n.n.n.n.5 ; = O X O q y.y.n.n.n.n.b.y.q O X O = ; 7 v.n.n.n.n.n.n.n.n.",
"n.n.n.n.n.n.n.n.v.- @ @ @ @ @ 9 n.n.n.n.n.n.n.n.9 @ @ @ @ @ : n.n.n.n.n.n.n.n.n.",
"n.n.n.n.n.n.h.7 7 $ @ @ @ @ @ 9 n.n.n.n.n.n.n.n.9 @ @ @ @ @ * 7 8 h.n.n.n.n.n.n.",
"n.n.n.n.n.n.h.@ @ @ @ @ @ @ @ 9 n.n.n.n.n.n.n.n.0 @ @ @ @ @ @ @ $ g.n.n.n.n.n.n.",
"n.n.n.n.n.n.v.-.-.-.-.-.-.-.-.1.n.n.n.n.n.n.n.n.1.-.-.-.-.-.-.-.-.c.n.n.n.n.n.n."
};
