/* XPM */
static char *_1695233419[] = {
/* columns rows colors chars-per-pixel */
"40 40 129 2 ",
"   c #010101",
".  c #090801",
"X  c #05060B",
"o  c #251D0D",
"O  c #282804",
"+  c #2A2508",
"@  c #302C0D",
"#  c #2E2313",
"$  c #302414",
"%  c gray15",
"&  c #2A2A2A",
"*  c #323232",
"=  c #433215",
"-  c #45361A",
";  c #4B3A1A",
":  c #553F19",
">  c #55550D",
",  c #595908",
"<  c #57421A",
"1  c #5A461D",
"2  c #5F5511",
"3  c #605612",
"4  c #655A17",
"5  c #65640F",
"6  c #6F6D1D",
"7  c #4F4C2E",
"8  c #4B4A46",
"9  c #5C5C5C",
"0  c #5D5E61",
"q  c #696968",
"w  c #9F901C",
"e  c #A08E19",
"r  c #A3901C",
"t  c #B68832",
"y  c #C39238",
"u  c #D69F37",
"i  c #D79F38",
"p  c #C4AF21",
"a  c #CCA32D",
"s  c #C4B021",
"d  c #D6BF21",
"f  c #D7A037",
"g  c #DAA635",
"h  c #D6AC30",
"j  c #DCA934",
"k  c #D7A038",
"l  c #DCA43A",
"z  c #DFAA38",
"x  c #E2B52F",
"c  c #E1AE35",
"v  c #D4D404",
"b  c #DCD708",
"n  c #F7D61E",
"m  c #F8D71E",
"M  c #F7DB1E",
"N  c #F9DB1D",
"B  c #F5E70D",
"V  c #F6F503",
"C  c #F8F206",
"Z  c #F7F806",
"A  c #F9FA00",
"S  c #F7E711",
"D  c #D6C021",
"F  c #F3CF24",
"G  c #F6D620",
"H  c #F8D720",
"J  c #F8D920",
"K  c #F7DE2A",
"L  c #F7DC37",
"P  c #F8DA30",
"I  c #F8DF3F",
"U  c #F6E12D",
"Y  c #F7F524",
"T  c #F7F825",
"R  c #F8F824",
"E  c #FBFB2A",
"W  c #F9E052",
"Q  c #F7F857",
"!  c #F8F857",
"~  c #F8F45C",
"^  c #F6E46B",
"/  c #374884",
"(  c #3A4B87",
")  c #3B4E8D",
"_  c #3C4F90",
"`  c #4B588E",
"'  c #4E5D93",
"]  c #45599F",
"[  c #4E5F99",
"{  c #465BA6",
"}  c #475DA8",
"|  c #495EAA",
" . c #4E61A3",
".. c #5063A9",
"X. c #4F67BA",
"o. c #5068BB",
"O. c #5B76D4",
"+. c #5A76D8",
"@. c #5F7BDF",
"#. c #5F7CE1",
"$. c #617EE5",
"%. c #6381EB",
"&. c #6584F0",
"*. c #6B8CFF",
"=. c #8489B4",
"-. c #888CB5",
";. c #8F91B5",
":. c #E1D68C",
">. c #E8DF9D",
",. c #EEEC93",
"<. c #F9FA9B",
"1. c #F8EEA3",
"2. c #FAFBA6",
"3. c #94A1D0",
"4. c #9AA7D4",
"5. c #A5B1DC",
"6. c #D5D5D5",
"7. c #FBF4C4",
"8. c #F5F1CF",
"9. c #FBF6CC",
"0. c #FBF7D3",
"q. c #FCF8D4",
"w. c #FCFADB",
"e. c #E2E2E2",
"r. c #FCFDE0",
"t. c #FCFBEB",
"y. c #F6F6F6",
"u. c #FEFEF6",
"i. c #FEFEFD",
/* pixels */
"*.*.*.*.*.*.*.*.*.*.*.*.*.*.*.*.*.*.*.*.*.*.*.*.*.*.*.*.*.*.*.*.*.*.*.*.*.*.*.*.",
"*.*.*.*.*.*.*.*.*.*.*.*.*.*.*.*.*.*.*.*.*.*.*.*.*.*.*.*.*.*.*.*.*.*.*.*.*.*.*.*.",
"*.*.*.*.*.*.*.*.*.*.*.*.*.*.*.*.*.*.*.*.*.*.*.*.*.*.*.*.*.*.*.*.*.*.*.*.*.*.*.*.",
"*.*.*.*.*.*.*.*.*.*.*.*.*.*.*.*.*.*.*.*.*.*.*.*.*.*.*.*.*.*.*.*.*.*.*.*.*.*.*.*.",
"*.*.*.*.*.*.*.*.*.*.%./ / / ( 4.5.5.5.5.5.5.5.3.( / / / %.*.*.*.*.*.*.*.*.*.*.*.",
"*.*.*.*.*.*.*.*.*.*.O.        e.i.i.i.i.i.i.i.6.X       O.*.*.*.*.*.*.*.*.*.*.*.",
"*.*.*.*.*.*.*.*.#.] [ q q q q >.1.1.1.1.1.1.1.:.5 4 1 1 ` ] #.*.*.*.*.*.*.*.*.*.",
"*.*.*.*.*.*.*.*.| X * i.i.i.u.L n n n n n G n n G G f l #   X.*.*.*.*.*.*.*.*.*.",
"*.*.*.*.*.*.*.*.| . * i.u.9.7.U N W W W W I N N G F u l #   X.*.*.*.*.*.*.*.*.*.",
"*.*.*.*.*.*.*.*.|   * i.t.P M C A 2.i.i.i.2.A C J G f l #   X.*.*.*.*.*.*.*.*.*.",
"*.*.*.*.*.*.&.#.{ % 8 w.9.K m Y R <.q.w.w.,.v b J J g z - o ..@.%.*.*.*.*.*.*.*.",
"*.*.*.*.*.*.(   9 i.0.n N V Z r.u.Q V B n e   O V C J J c l =   _ *.*.*.*.*.*.*.",
"*.*.*.*.*.*.)   9 i.0.n M V Z r.i.Q A S H r   O V Z G J j u =   _ *.*.*.*.*.*.*.",
"*.*.*.*.*.*.(   9 i.0.m m V Z r.i.Q V S H r   O V V G J j u =   ) *.*.*.*.*.*.*.",
"*.*.*.*.*.*.(   9 i.0.n J V Z w.i.Q A S G e   O V V J M j u =   _ *.*.*.*.*.*.*.",
"*.*.*.*.*.*.)   9 i.0.m M V Z r.i.Q V S G e   O V V G H j u =   _ *.*.*.*.*.*.*.",
"*.*.*.*.*.*.)   9 i.0.n m V Z r.i.! A S G r   O V V G J j u =   _ *.*.*.*.*.*.*.",
"*.*.*.*.*.*.)   9 i.0.m M Z Z w.i.! V S H r   O V V n J j u =   _ *.*.*.*.*.*.*.",
"*.*.*.*.*.*.(   9 i.0.n M V Z r.i.! A S G r   O V V n J j u =   _ *.*.*.*.*.*.*.",
"*.*.*.*.*.*.)   9 i.0.n m Z Z r.i.Q V S G e   O V V G G j u =   _ *.*.*.*.*.*.*.",
"*.*.*.*.*.*.(   9 i.0.n J V V r.i.! V S n r   O V V G J j i =   _ *.*.*.*.*.*.*.",
"*.*.*.*.*.*.(   9 i.0.n m V Z r.i.! V S G r   O V V J J g i =   _ *.*.*.*.*.*.*.",
"*.*.*.*.*.*.)   9 i.0.n M V Z r.i.! A S J r   O V V G J j u =   _ *.*.*.*.*.*.*.",
"*.*.*.*.*.*.)   9 i.0.m m V Z r.i.~ C S G r   O V C H J j u =   _ *.*.*.*.*.*.*.",
"*.*.*.*.*.*.(   9 i.0.n M V Z r.i.^ n G G r   O V V G M j u =   _ *.*.*.*.*.*.*.",
"*.*.*.*.*.*.)   9 i.0.n M V Z r.i.^ G G n r   O V V G J j u =   ) *.*.*.*.*.*.*.",
"*.*.*.*.*.*.)   9 i.0.n J V V r.i.^ G G G r   O V V F G g u =   ) *.*.*.*.*.*.*.",
"*.*.*.*.*.*.) X 0 y.8.M M V Z w.u.^ G G G w . O V V n n j u - X _ *.*.*.*.*.*.*.",
"*.*.*.*.*.*.%.+. .& 7 J M V A T E 6 + + + 5 v v M n j z ; o  .+.%.*.*.*.*.*.*.*.",
"*.*.*.*.*.*.*.*.|   @ J M V V A A >       , A C J G f l # X o.*.*.*.*.*.*.*.*.*.",
"*.*.*.*.*.*.*.*.|   @ J J N N N N d p p s D M G j j u l # X o.*.*.*.*.*.*.*.*.*.",
"*.*.*.*.*.*.*.*.|   @ J n M m G M J G n n G n G f f k l $ . o.*.*.*.*.*.*.*.*.*.",
"*.*.*.*.*.*.*.*.#.{ ' 3 3 2 3 h x x x x x x x a < : : < ' { $.*.*.*.*.*.*.*.*.*.",
"*.*.*.*.*.*.*.*.*.*.O.        y k k k k k k i t .       O.*.*.*.*.*.*.*.*.*.*.*.",
"*.*.*.*.*.*.*.*.*.*.%.} { { | -.;.;.;.;.;.;.;.=.| { { { &.*.*.*.*.*.*.*.*.*.*.*.",
"*.*.*.*.*.*.*.*.*.*.*.*.*.*.*.*.*.*.*.*.*.*.*.*.*.*.*.*.*.*.*.*.*.*.*.*.*.*.*.*.",
"*.*.*.*.*.*.*.*.*.*.*.*.*.*.*.*.*.*.*.*.*.*.*.*.*.*.*.*.*.*.*.*.*.*.*.*.*.*.*.*.",
"*.*.*.*.*.*.*.*.*.*.*.*.*.*.*.*.*.*.*.*.*.*.*.*.*.*.*.*.*.*.*.*.*.*.*.*.*.*.*.*.",
"*.*.*.*.*.*.*.*.*.*.*.*.*.*.*.*.*.*.*.*.*.*.*.*.*.*.*.*.*.*.*.*.*.*.*.*.*.*.*.*.",
"*.*.*.*.*.*.*.*.*.*.*.*.*.*.*.*.*.*.*.*.*.*.*.*.*.*.*.*.*.*.*.*.*.*.*.*.*.*.*.*."
};
