/* XPM */
static char *_1695233418[] = {
/* columns rows colors chars-per-pixel */
"40 40 154 2 ",
"   c #010100",
".  c #000102",
"X  c #050000",
"o  c #070000",
"O  c #040404",
"+  c #0C0000",
"@  c #0C0601",
"#  c gray3",
"$  c #080909",
"%  c #110000",
"&  c #120100",
"*  c #1F0100",
"=  c #100901",
"-  c #150C02",
";  c #1A0E02",
":  c #161616",
">  c gray9",
",  c gray10",
"<  c #1B1B1B",
"1  c #1D1D1D",
"2  c #200100",
"3  c #240200",
"4  c #2B0200",
"5  c #2D0B01",
"6  c #2E0E03",
"7  c #301404",
"8  c #331D06",
"9  c #371F06",
"0  c #372006",
"q  c #282828",
"w  c #2A2A2A",
"e  c #2C2C2C",
"r  c gray19",
"t  c #393939",
"y  c #3A3A3A",
"u  c #520400",
"i  c #540400",
"p  c #4D1B05",
"a  c #620500",
"s  c #601103",
"d  c #6F1704",
"f  c #402507",
"g  c #492A08",
"h  c #5B2307",
"j  c #502D09",
"k  c #502E09",
"l  c #522F09",
"z  c #5E360B",
"x  c #722006",
"c  c #61370B",
"v  c #2F3E71",
"b  c #434343",
"n  c #484848",
"m  c #4C4C4C",
"M  c #555555",
"N  c #626262",
"B  c gray40",
"V  c #676767",
"C  c #6F6F6F",
"Z  c #717171",
"A  c gray48",
"S  c #CC0801",
"D  c #CE0B01",
"F  c #CD0B02",
"G  c #CD0C01",
"H  c #CE0C02",
"J  c #D10B01",
"K  c #D30B01",
"L  c #D30C01",
"P  c #D90C01",
"I  c #CF1202",
"U  c #D01503",
"Y  c #D11904",
"T  c #D11A04",
"R  c #D21E05",
"E  c #D21E06",
"W  c #D52407",
"Q  c #D42507",
"!  c #D9350A",
"~  c #DF370A",
"^  c #DB3B0B",
"/  c #DB3B0C",
"(  c #DC3D0C",
")  c #DC3E0C",
"_  c #DC400C",
"`  c #DE450D",
"'  c #E2460E",
"]  c #E15110",
"[  c #E25310",
"{  c #E25411",
"}  c #E45911",
"|  c #E45A12",
" . c #E75B12",
".. c #E45C12",
"X. c #C17117",
"o. c #D47B19",
"O. c #E66113",
"+. c #E66114",
"@. c #E76514",
"#. c #E86213",
"$. c #EB6414",
"%. c #E86815",
"&. c #E86A15",
"*. c #E96C16",
"=. c #EB7517",
"-. c #EC7818",
";. c #EE7B19",
":. c #EE7D19",
">. c #F17C19",
",. c #E5841B",
"<. c #EF801A",
"1. c #F28B1C",
"2. c #F28C1C",
"3. c #F28D1C",
"4. c #F38C1D",
"5. c #F38F1D",
"6. c #F48C1C",
"7. c #F78E1D",
"8. c #F68F1D",
"9. c #F6901D",
"0. c #FA931E",
"q. c #364782",
"w. c #394B88",
"e. c #3A4D8B",
"r. c #475EAB",
"t. c #4D65B8",
"y. c #526BC4",
"u. c #536CC6",
"i. c #536DC7",
"p. c #546EC9",
"a. c #5974D3",
"s. c #5A75D6",
"d. c #5A76D7",
"f. c #5A76D8",
"g. c #5F7CE3",
"h. c #617FE8",
"j. c #6280E9",
"k. c #6685F3",
"l. c #6888F9",
"z. c #6A8AFC",
"x. c #6A8BFD",
"c. c #6B8BFE",
"v. c #6B8CFF",
"b. c gray60",
"n. c #A9A9A9",
"m. c #AAAAAA",
"M. c gray83",
"N. c gray85",
"B. c gray89",
"V. c #E4E4E4",
"C. c #EFEFEF",
"Z. c #F3F3F3",
"A. c gray99",
"S. c #FDFDFD",
/* pixels */
"v.v.v.v.v.v.v.v.v.v.v.v.v.v.v.v.v.v.v.v.v.v.v.v.v.v.v.v.v.v.v.v.v.v.v.v.v.v.v.v.",
"v.v.v.v.v.v.v.v.v.v.v.v.v.v.v.v.v.v.v.v.v.v.v.v.v.v.v.v.v.v.v.v.v.v.v.v.v.v.v.v.",
"v.v.v.v.v.v.v.v.v.v.v.v.v.v.v.v.v.v.v.v.v.v.v.v.v.v.v.v.v.v.v.v.v.v.v.v.v.v.v.v.",
"v.v.v.v.v.v.v.v.v.v.v.x.v.v.v.v.v.v.v.v.v.v.v.c.v.v.v.v.v.v.v.v.v.v.v.v.v.v.v.v.",
"v.v.v.v.v.v.v.v.v.v.x.x.l.e.. . . . . . . . . . . r.x.x.x.v.v.v.v.v.v.v.v.v.v.v.",
"v.v.v.v.v.v.v.v.v.k.i.p.p.v . % 4 6 8 8 8 5 4 % . w.p.p.p.l.v.v.v.v.v.v.v.v.v.v.",
"v.v.v.v.v.v.v.v.x.y.. . . . . i K ' 8.8.8.~ K i . . . . . h.x.v.v.v.v.v.v.v.v.v.",
"v.v.v.v.v.v.v.l.s.r.. + 2 2 * a F ` 1.1.1.! F a 2 2 2 X . i.s.l.v.v.v.v.v.v.v.v.",
"v.v.v.v.v.v.x.s.. . . i K K K K F ` 1.4.5.! F F K K P 2 . . . s.c.v.v.v.v.v.v.v.",
"v.v.v.v.x.k.y.r.. @ 0 d F F F U Q ] 1.4.1.` Q I F F L p 0 X . r.y.l.v.v.v.v.v.v.",
"v.v.v.v.x.i.. . . 0 0. .F F G ) 8.8.1.1.1.5.5.) F K S >.0.; . . . h.v.v.v.v.v.v.",
"v.v.v.v.x.p.. + i x 8.*.) ) ) } 1.1.1.1.1.5.5.} ( ( ^ :.8.s i + . j.v.v.v.v.v.v.",
"v.v.v.v.x.p.. 2 L W 8.5.1.1.5.1.1.5.1.1.8.1.1.1.1.5.5.5.8.I L 2 . h.x.v.v.v.v.v.",
"v.v.v.v.e.v . * K Y { %.1.1.1.=.] ] ] ] ] ] ] =.1.1.1.} ] I L * . q.e.v.v.v.v.v.",
"v.v.v.v.. . . 2 K F G ( 5.1.1.} J G G F G G F } 1.1.5.E F G L * . . . v.v.v.v.v.",
"v.v.v.v.. % i a K G F ( 1.=.} ^ G G F F G F F / } ;.8.E G G L a i X . v.v.v.v.v.",
"v.v.v.v.. 4 K F K G G ( 5.] G L F H H H H H H G S +.5.E F G F F F % . v.v.v.v.v.",
"v.v.v.v.. 4 K G H F G ( 1.] G G H H H H H H H H G +.5.E F G F F K % . v.v.v.v.v.",
"v.v.v.v.. 4 K F H S G ( 1.] F G H H H H H H H H S +.9.E G G G G F % . v.v.v.v.v.",
"v.v.v.x.. 4 K F H Y ..*.1.] F F H H H H H H H H H +.5.O...I G L K % . v.v.v.v.v.",
"v.v.v.v.. 4 K F H Q 9.5.1.] F F F F H H H H G S F +.1.1.5.I G G K % . x.v.v.v.v.",
"v.v.v.v.. 7 $.+.+.&.1.5.1.;.O._ L F H H H H G _ +.:.1.1.1.@.+.+.#.- . x.v.v.v.v.",
"v.v.v.v.. 8 8.1.5.1.1.1.1.1.5. .G S H G G S H } 1.1.1.1.1.1.8.1.6.- . v.v.v.v.v.",
"v.v.v.v.. 8 8.1.1.o.z z c c c h u u u u u u u h c c c z z ,.1.5.8.- . v.v.v.v.v.",
"v.v.v.v.. 8 7.8.8.X.. . . . . X . X . . . . . . . . . . . ;.1.5.7.- . v.v.v.v.v.",
"v.v.v.v.. = k j k f . b m.m.m.B . m m.m.m.t . B m.m.m.1 . g g g k X . c.v.v.v.v.",
"v.v.v.v.. . . . . . X N S.S.S.b.. Z S.S.S.M . b.S.S.S.e . . . . . . . v.v.v.v.v.",
"v.v.v.v.a.r.. . . r M.V.S.S.S.b.. Z S.S.S.M . b.S.S.S.N.M.> . . . i.a.v.v.v.v.v.",
"v.v.v.v.l.p.. . . y S.S.S.S.S.b.. C A.S.S.M . b.S.S.S.S.S.< . . . h.l.v.v.v.v.v.",
"v.v.v.v.c.l.h.y.. y S.S.S.S.S.Z.B.C.S.S.S.C.V.Z.S.S.S.S.S.< . y.h.x.v.v.v.v.v.v.",
"v.v.v.v.v.v.l.s.. y S.S.S.S.S.S.S.S.S.S.S.S.S.S.S.S.S.S.S.< . s.x.v.v.v.v.v.v.v.",
"v.v.v.v.v.v.c.f.. $ q A S.S.S.S.S.S.S.S.S.S.S.S.S.S.S.n q O . s.x.v.v.v.v.v.v.v.",
"v.v.v.v.v.v.c.f.. . . B S.S.S.S.S.S.S.S.S.S.S.S.S.S.S.e . . . s.v.v.v.v.v.v.v.v.",
"v.v.v.v.v.v.v.l.h.t.. # : : : > : : : : > > > > > > > X . a.h.l.v.v.v.v.v.v.v.v.",
"v.v.v.v.v.v.v.v.c.i.. . . . . . . . . . . . . . . . . . . h.x.v.v.v.v.v.v.v.v.v.",
"v.v.v.v.v.v.v.v.v.v.v.v.c.v.v.v.v.v.c.v.v.v.c.v.x.v.v.x.v.v.v.v.v.v.v.v.v.v.v.v.",
"v.v.v.v.v.v.v.v.v.v.v.v.v.v.v.v.v.v.v.v.v.v.v.v.v.v.v.v.v.v.v.v.v.v.v.v.v.v.v.v.",
"v.v.v.v.v.v.v.v.v.v.v.v.v.v.v.v.v.v.v.v.v.v.v.v.v.v.v.v.v.v.v.v.v.v.v.v.v.v.v.v.",
"v.v.v.v.v.v.v.v.v.v.v.v.v.v.v.v.v.v.v.v.v.v.v.v.v.v.v.v.v.v.v.v.v.v.v.v.v.v.v.v.",
"v.v.v.v.v.v.v.v.v.v.v.v.v.v.v.v.v.v.v.v.v.v.v.v.v.v.v.v.v.v.v.v.v.v.v.v.v.v.v.v."
};
