/* XPM */
static char *_51695289186[] = {
/* columns rows colors chars-per-pixel */
"32 32 149 2 ",
"   c #38271F",
".  c #292726",
"X  c #362B27",
"o  c #4E2513",
"O  c #532611",
"+  c #522F16",
"@  c #712906",
"#  c #792F05",
"$  c #732D0B",
"%  c #7F360B",
"&  c #6F2F17",
"*  c #633218",
"=  c #69371C",
"-  c #733216",
";  c #43322B",
":  c #4E373C",
">  c #6E372A",
",  c #773E2D",
"<  c #693B38",
"1  c #6C3D3B",
"2  c #743F32",
"3  c #62442F",
"4  c #624532",
"5  c #764134",
"6  c #73423B",
"7  c #343747",
"8  c #383C53",
"9  c #483841",
"0  c #583647",
"q  c #6A3D44",
"w  c #6D3B62",
"e  c #7D376A",
"r  c #4A4A4A",
"t  c #6D4043",
"y  c #6B414C",
"u  c #6F5A4A",
"i  c #715D4E",
"p  c #744B59",
"a  c #635852",
"s  c #6F5D55",
"d  c #716159",
"f  c #404B74",
"g  c #853601",
"h  c #8A3C04",
"j  c #81370A",
"k  c #853A0A",
"l  c #951632",
"z  c #87253B",
"x  c #AF242C",
"c  c #A23022",
"v  c #AA3932",
"b  c #91430B",
"n  c #9A4A0C",
"m  c #934612",
"M  c #984B16",
"N  c #974E1D",
"B  c #9C541E",
"V  c #AE5A1B",
"C  c #8F4B20",
"Z  c #934D20",
"A  c #975524",
"S  c #9D5D2C",
"D  c #A45723",
"F  c #A95430",
"G  c #A5602E",
"H  c #AD6229",
"J  c #B76222",
"K  c #B96626",
"L  c #BC6826",
"P  c #BD6B2A",
"I  c #AD6733",
"U  c #B97339",
"Y  c #BE793E",
"T  c #D27F38",
"R  c #932344",
"E  c #BF3D40",
"W  c #A03957",
"Q  c #8B3162",
"!  c #8B4445",
"~  c #994B46",
"^  c #BD5142",
"/  c #B95F5A",
"(  c #A0615D",
")  c #86457E",
"_  c #AA4764",
"`  c #C74948",
"'  c #C86842",
"]  c #D37246",
"[  c #D7843E",
"{  c #89837E",
"}  c #B4947A",
"|  c #C58147",
" . c #C98546",
".. c #DC8B42",
"X. c #D09357",
"o. c #E59B51",
"O. c #EFA556",
"+. c #F0A657",
"@. c #D78161",
"#. c #D39C69",
"$. c #C49A78",
"%. c #EEB775",
"&. c #F0B978",
"*. c #455589",
"=. c #4E5992",
"-. c #4D5F9E",
";. c #6A5E97",
":. c #50609F",
">. c #6A6199",
",. c #7D5AA7",
"<. c #4F62A4",
"1. c #6763A0",
"2. c #6A66A3",
"3. c #6A69AA",
"4. c #6A6CB4",
"5. c #6A70BC",
"6. c #6A72C3",
"7. c #6A76CC",
"8. c #7071CE",
"9. c #6A79D3",
"0. c #6B7BD9",
"q. c #6A7EE6",
"w. c #707DE6",
"e. c #814789",
"r. c #6280E5",
"t. c #6683EC",
"y. c #6B84ED",
"u. c #6785F2",
"i. c #6B86F3",
"p. c #6B89F7",
"a. c #6B8CFF",
"s. c #9E9B99",
"d. c #BB9C84",
"f. c #A4A19F",
"g. c #A7A5A3",
"h. c #B9B7B5",
"j. c #E2B183",
"k. c #E1B38B",
"l. c #E1B795",
"z. c #EFC39A",
"x. c #DBCBBF",
"c. c #EEC7A1",
"v. c #F2C9A3",
"b. c #F7D3A8",
"n. c #F4D4B2",
"m. c #F8DAB5",
"M. c #FAE3C7",
"N. c #F8EFE4",
"B. c #F8F5F1",
/* pixels */
"a.a.a.a.a.a.a.a.a.a.a.a.a.a.a.a.a.a.a.a.a.a.a.a.a.a.a.a.a.a.a.a.",
"a.a.a.a.a.a.a.a.a.a.a.a.a.a.a.a.a.a.a.a.a.a.a.a.a.a.a.a.a.a.a.a.",
"a.a.a.a.a.a.a.a.a.a.a.a.a.a.a.a.a.a.a.a.a.a.a.a.a.a.a.a.a.a.a.a.",
"a.a.a.a.a.a.a.a.a.a.a.a.a.a.a.a.a.a.a.a.a.a.a.a.a.a.a.a.a.a.a.a.",
"a.a.a.a.a.a.a.a.a.a.a.a.a.a.a.a.a.a.a.a.a.a.a.a.a.a.a.a.a.a.a.a.",
"a.a.a.a.a.a.a.a.a.a.a.a.a.a.a.a.a.a.a.a.a.a.a.a.a.a.a.a.a.a.a.a.",
"a.a.a.a.a.a.a.a.a.a.a.a.a.a.a.a.a.a.a.a.a.a.a.a.a.a.a.a.a.a.a.a.",
"a.a.a.a.a.a.a.a.a.a.a.a.a.a.a.a.a.a.a.a.a.a.a.a.a.a.a.a.a.a.a.a.",
"a.a.a.a.a.a.a.a.a.a.a.a.a.a.a.a.a.a.a.a.a.a.a.a.a.a.a.a.a.a.a.a.",
"a.a.a.a.a.a.a.a.a.a.a.a.a.a.a.a.a.a.a.a.a.a.a.a.a.a.a.a.a.a.a.a.",
"a.a.a.a.a.a.a.a.a.a.a.a.a.a.a.a.a.a.a.a.a.a.a.a.a.a.a.a.a.a.a.a.",
"a.a.a.a.a.a.a.a.a.a.a.a.a.a.a.a.a.a.a.a.a.a.a.a.a.a.a.a.a.a.a.a.",
"a.a.a.a.a.a.a.a.a.a.a.a.a.a.a.a.a.a.a.a.a.a.a.a.a.a.a.a.a.a.a.a.",
"a.a.a.a.a.a.a.a.a.a.a.a.a.y.7.6.6.7.y.a.a.a.a.a.a.a.a.a.a.a.a.a.",
"a.a.a.a.a.a.a.a.a.a.a.a.y.>.2 > > 6 2.y.a.a.a.a.a.a.a.a.a.a.a.a.",
"a.a.a.a.a.a.a.a.a.a.a.y.>., h h h h 5 2.i.a.a.a.a.a.a.a.a.a.a.a.",
"a.a.a.a.a.a.a.a.a.i.y.>., M J L L J n 2 >.u.u.a.a.a.a.a.a.a.a.a.",
"a.a.a.a.a.a.a.a.t.:.f : k P ..o.o...K % : f <.u.a.a.a.a.a.a.a.a.",
"a.a.a.a.a.a.a.u.-.7 .   * D ..+.O.[ D * X . 7 <.u.a.a.a.a.a.a.a.",
"a.a.a.a.a.a.a.u.-.: + i s = M H H N > d u + 9 <.u.a.a.a.a.a.a.a.",
"a.a.a.a.a.a.a.u.1.5 m $.s.X o O o o ; f.$.m 6 3.i.a.a.a.a.a.a.a.",
"a.a.a.a.a.a.u.3.5 m P l.s.r a 3 4 a r g.k.L m 6 3.i.a.a.a.a.a.a.",
"a.a.a.a.a.a.9.t k J ..c.h.{ } H I } { h.z.[ V j y r.a.a.a.a.a.a.",
"a.a.a.a.a.a.9.> g V [ k.x.d.S b b S d.x.j.[ V g 2 9.a.a.a.a.a.a.",
"a.a.a.a.a.a.9.6 @ h n B S N % % j k Z S A n g @ y 0.a.a.a.a.a.a.",
"a.a.a.a.a.a.t.4.1 * - $ # A | X.X.| N j # $ & q 4.i.a.a.a.a.a.a.",
"a.a.a.a.a.a.a.u.5.3.1.y C #.n.M.M.n.#.T N q ;.6.p.a.a.a.a.a.a.a.",
"a.a.a.a.a.a.a.a.a.p.,.R G %.m.N.B.N.l.] c z ,.i.a.a.a.a.a.a.a.a.",
"a.a.a.a.a.a.a.a.i.e._ v F  .&.b.n.v.@.F ^ E _ ,.i.a.a.a.a.a.a.a.",
"a.a.a.a.a.a.a.a.y.Q x ` ^ F U Y ' ' ` ` / ( ! w q.a.a.a.a.a.a.a.",
"a.a.a.a.a.a.a.a.y.e.l x E W p p p l v ~ < X 7 =.u.a.a.a.a.a.a.a.",
"a.a.a.a.a.a.a.a.p.w.e.R z ) 0.u.8.e 0 9 8 8 *.q.a.a.a.a.a.a.a.a."
};
