/* XPM */
static char *_51695290862[] = {
/* columns rows colors chars-per-pixel */
"40 40 166 2 ",
"   c #2C1A0C",
".  c #321D0F",
"X  c #342010",
"o  c #372517",
"O  c #38281D",
"+  c #312821",
"@  c #432615",
"#  c #492916",
"$  c #4A2D19",
"%  c #532E19",
"&  c #47301B",
"*  c #4B321C",
"=  c #54311C",
"-  c #5A321C",
";  c #6C2A1D",
":  c #663A1F",
">  c #432D22",
",  c #4B312E",
"<  c #543525",
"1  c #573D25",
"2  c #5C3E23",
"3  c #553828",
"4  c #5D3F2B",
"5  c #453530",
"6  c #643B21",
"7  c #6B3C22",
"8  c #723F25",
"9  c #5D4022",
"0  c #5A4134",
"q  c #634325",
"w  c #6F4025",
"e  c #61472D",
"r  c #6D4A2C",
"t  c #734225",
"y  c #7B4327",
"u  c #774529",
"i  c #7A4629",
"p  c #7D482A",
"a  c #674332",
"s  c #694D34",
"d  c #6B4639",
"f  c #6C4539",
"g  c #7A4D35",
"h  c #724A3E",
"j  c #695234",
"k  c #785736",
"l  c #705739",
"z  c #735A3D",
"x  c #2D3453",
"c  c #3D3B53",
"v  c #3D4563",
"b  c #524348",
"n  c #5A5A5A",
"m  c #674B42",
"M  c #785F41",
"N  c #645153",
"B  c #404467",
"V  c #5C5364",
"C  c #55506C",
"Z  c #4D4F77",
"A  c #4E517A",
"S  c #5E5576",
"D  c #6E6764",
"F  c #696173",
"G  c #6C677F",
"H  c #834729",
"J  c #834B2C",
"K  c #8B4E2E",
"L  c #8D512F",
"P  c #804C32",
"I  c #8D4F30",
"U  c #8D5130",
"Y  c #945533",
"T  c #995634",
"R  c #945835",
"E  c #9A5936",
"W  c #9D5C3B",
"Q  c #A35A36",
"!  c #A85C37",
"~  c #A45C39",
"^  c #83623B",
"/  c #886438",
"(  c #8E6B3F",
")  c #AE613B",
"_  c #B3643C",
"`  c #B8683E",
"'  c #8B5744",
"]  c #935E43",
"[  c #856641",
"{  c #8E6C42",
"}  c #866A48",
"|  c #98694F",
" . c #927045",
".. c #9A7645",
"X. c #9F7A47",
"o. c #91744E",
"O. c #856758",
"+. c #A46749",
"@. c #BB6A41",
"#. c #A36751",
"$. c #AF795F",
"%. c #B47B5E",
"&. c #91766C",
"*. c #956F7C",
"=. c #AA7565",
"-. c #A07B7B",
";. c #C16C44",
":. c #A6855D",
">. c #8B827B",
",. c #B5836A",
"<. c #AE956A",
"1. c #A68677",
"2. c #AF8570",
"3. c #B88D76",
"4. c #C6A172",
"5. c #5E5A86",
"6. c #5F5E8E",
"7. c #485892",
"8. c #686286",
"9. c #676697",
"0. c #4D60A2",
"q. c #5567AE",
"w. c #586EBB",
"e. c #666DA6",
"r. c #616FB7",
"t. c #6771B6",
"y. c #6E74B4",
"u. c #7676B4",
"i. c #6977C8",
"p. c #657AD6",
"a. c #6A7DD4",
"s. c #6B7ED9",
"d. c #8C6D82",
"f. c #9A7A99",
"g. c #877BAF",
"h. c #817BB6",
"j. c #7D85BB",
"k. c #6D81DD",
"l. c #7681D3",
"z. c #7B82D0",
"x. c #6982E3",
"c. c #6983EA",
"v. c #7586E4",
"b. c #6986F0",
"n. c #6C89F5",
"m. c #6B8CFF",
"M. c #A89085",
"N. c #BA9B8F",
"B. c #AE9D96",
"V. c #BCA397",
"C. c #A9A8A8",
"Z. c #BBA8A0",
"A. c #BCBEBF",
"S. c #D2BB87",
"D. c #C6A597",
"F. c #C2B1A9",
"G. c #D3C6BF",
"H. c #8482C8",
"J. c #9EAAD5",
"K. c #D0D0D0",
"L. c #DBDBDA",
"P. c #DEE0E1",
"I. c #E5E7E7",
"U. c #E5E7E9",
"Y. c #ECEDED",
"T. c #F2F4F4",
/* pixels */
"m.m.m.m.m.m.m.m.m.m.m.m.m.m.m.m.m.m.m.m.m.m.m.m.m.m.m.m.m.m.m.m.m.m.m.m.m.m.m.m.",
"m.m.m.m.m.m.m.m.m.m.m.m.m.m.m.m.m.m.m.m.m.m.m.m.m.m.m.m.m.m.m.m.m.m.m.m.m.m.m.m.",
"m.m.m.m.m.m.m.m.m.m.m.m.m.m.m.m.m.m.m.m.m.m.m.m.m.m.m.m.m.m.m.m.m.m.m.m.m.m.m.m.",
"m.m.m.m.m.m.m.m.m.m.m.m.m.m.m.m.m.m.m.m.m.m.m.m.m.m.m.m.m.m.m.m.m.m.m.m.m.m.m.m.",
"m.m.m.m.m.m.m.m.m.m.m.m.m.m.m.m.m.m.m.m.m.m.m.m.m.m.m.m.m.m.m.m.m.m.m.m.m.m.m.m.",
"m.m.m.m.m.m.m.m.m.m.m.m.m.m.m.m.m.m.m.m.m.m.m.m.m.m.m.m.m.m.m.m.m.m.m.m.m.m.m.m.",
"m.m.m.m.m.m.m.m.m.m.m.m.m.m.m.m.m.m.m.m.m.m.m.m.m.m.m.m.m.m.m.m.m.m.m.m.m.m.m.m.",
"m.m.m.m.m.m.m.m.m.m.m.m.m.m.m.m.m.m.m.m.m.m.m.m.m.m.m.m.m.m.m.m.m.m.m.m.m.m.m.m.",
"m.m.m.m.m.m.m.m.m.m.m.m.m.m.m.m.m.m.m.m.m.m.m.m.m.m.m.m.m.m.m.m.m.m.m.m.m.m.m.m.",
"m.m.m.m.m.m.m.m.m.m.m.m.m.m.m.m.m.m.m.m.m.m.m.m.m.m.m.m.m.m.m.m.m.m.m.m.m.m.m.m.",
"m.m.m.m.m.m.m.m.m.m.m.m.m.m.m.m.m.m.m.m.m.m.m.m.m.m.m.m.m.m.m.m.m.m.m.m.m.m.m.m.",
"m.m.m.m.m.m.m.m.m.m.m.m.m.m.m.m.m.m.m.m.m.m.m.m.m.m.m.m.m.m.m.m.m.m.m.m.m.m.m.m.",
"m.m.m.m.m.m.m.m.m.m.m.m.m.m.m.m.m.m.m.m.m.m.m.m.m.m.m.m.m.m.m.m.m.m.m.m.m.m.m.m.",
"m.m.m.m.m.m.m.m.m.m.m.m.m.m.m.m.m.m.m.m.m.m.m.m.m.m.m.m.m.m.m.m.m.m.m.m.m.m.m.m.",
"m.m.m.m.m.m.m.m.m.m.m.m.m.m.m.m.m.m.m.m.m.m.m.m.m.m.m.m.m.m.m.m.m.m.m.m.m.m.m.m.",
"m.m.m.m.m.m.m.m.m.m.m.m.m.m.m.m.m.m.m.m.m.m.m.m.m.m.m.m.m.m.m.m.m.m.m.m.m.m.m.m.",
"m.m.m.m.m.m.m.m.m.m.m.m.m.m.m.m.m.v.z.l.w.7.0.b.m.m.m.m.m.m.m.m.m.m.m.m.m.m.m.m.",
"m.m.m.m.m.m.m.m.m.m.m.m.m.m.m.H.=.@.) 0 + > B 7.m.m.m.m.m.m.m.m.m.m.m.m.m.m.m.m.",
"m.m.m.m.m.m.m.m.m.m.m.m.m.m.f.;.` _ g O 6 6 a i.m.m.m.m.m.m.m.m.m.m.m.m.m.m.m.m.",
"m.m.m.m.m.m.m.m.m.m.m.q.w.g.@.@.` W O - t t 7 e i.m.m.m.m.m.m.m.m.m.m.m.m.m.m.m.",
"m.m.m.m.m.m.m.m.m.m.m.x v ' @.` _ 4 a U L K p u f s.m.m.m.m.m.m.m.m.m.m.m.m.m.m.",
"m.m.m.m.m.m.m.m.m.m.m.p.u.3 _ ! p C.T.F.U L K J i f s.m.m.m.m.m.m.m.m.m.m.m.m.m.",
"m.m.m.m.m.m.m.m.m.m.m.m.d.Z.O.y >.C.T.U.| R L K J p h s.m.m.m.m.m.m.m.m.m.m.m.m.",
"m.m.m.m.m.m.m.m.m.m.m.m.-.K.1.Q D n T.U.=.R Y L K J y f p.m.m.m.m.m.m.m.m.m.m.m.",
"m.m.m.m.m.m.m.m.m.m.m.n.N.C.n ! B.A.U.P.#.E T Y Y L p w m n.m.m.m.m.m.m.m.m.m.m.",
"m.m.m.m.m.m.m.m.m.m.m.h.D.Y.N._ $.L.P.V.~ %.Y Y R Y J w 6 t.m.m.m.m.m.m.m.m.m.m.",
"m.m.m.m.m.m.m.m.m.m.m.*.,.I.%.) ! W ] I J G.h J E R p w 7 9.m.m.m.m.m.m.m.m.m.m.",
"m.m.m.m.m.m.m.m.m.m.n.#.@.2.T P 8 7 7 7 ; D.&.K U J u w w t.m.m.m.m.m.m.m.m.m.m.",
"m.m.m.m.m.m.m.m.m.m.z.3.1.6 8 T ~ ~ E T I H H 8 w w 7 w h b.m.m.m.m.m.m.m.m.m.m.",
"m.m.m.m.m.m.m.m.m.m.g.M.V.! ! T I J y 8 : : : : : 7 7 d a.m.m.m.m.m.m.m.m.m.m.m.",
"m.m.m.m.m.m.m.m.m.m.h.+.! Y y 6 : - % % - - - % = < 5.c.m.m.m.m.m.m.m.m.m.m.m.m.",
"m.m.m.m.m.m.m.m.m.m.k.P 8 - % % % % # # @ # < s N 8.9.c.m.m.m.m.m.m.m.m.m.m.m.m.",
"m.m.m.m.m.m.m.m.m.m.m.9.$ % % = * , & 1 s l M r r q 2 0 x.m.m.m.m.m.m.m.m.m.m.m.",
"m.m.m.m.m.m.m.m.m.m.m.m.p.5.S 6.p.j.o.o.} l e q 2 q 9 * C m.m.m.m.m.m.m.m.m.m.m.",
"m.m.m.m.m.m.m.m.m.m.m.m.m.m.m.m.m.J.S.4.:.z 1 9 ..X.X./ b m.m.m.m.m.m.m.m.m.m.m.",
"m.m.m.m.m.m.m.m.m.m.m.m.m.m.m.m.k.G <.:.} j $ ^ ......{ V m.m.m.m.m.m.m.m.m.m.m.",
"m.m.m.m.m.m.m.m.m.m.m.m.m.m.m.e.9 * * * * 0 5 (  .{ { k r.m.m.m.m.m.m.m.m.m.m.m.",
"m.m.m.m.m.m.m.m.m.m.m.m.m.m.k.g 9 = & .   X A k [ [ ^ V n.m.m.m.m.m.m.m.m.m.m.m.",
"m.m.m.m.m.m.m.m.m.m.m.m.m.m.y.r 9 = o X   Z m.q.F F e.n.m.m.m.m.m.m.m.m.m.m.m.m.",
"m.m.m.m.m.m.m.m.m.m.m.m.m.m.x.0 % o X c q.m.m.m.m.m.m.m.m.m.m.m.m.m.m.m.m.m.m.m."
};
