/* XPM */
static char *visuel_so_long__5_1695292377[] = {
/* columns rows colors chars-per-pixel */
"40 40 113 2 ",
"   c #000000",
".  c #0B0400",
"X  c #130701",
"o  c #130803",
"O  c #130E0D",
"+  c #1B120E",
"@  c #2C1102",
"#  c #341402",
"$  c #3B1603",
"%  c #3F1804",
"&  c #3F1F16",
"*  c #441903",
"=  c #4B1C04",
"-  c #451D0A",
";  c #511E04",
":  c #562005",
">  c #5C2205",
",  c #5F2609",
"<  c #442114",
"1  c #4A2314",
"2  c #5D2B18",
"3  c #632505",
"4  c #692705",
"5  c #6D2906",
"6  c #672809",
"7  c #68290A",
"8  c #732B06",
"9  c #792D06",
"0  c #772E08",
"q  c #792E09",
"w  c #7D310C",
"e  c #6D2F11",
"r  c #642D19",
"t  c #682F19",
"y  c #6D3216",
"u  c #6E3219",
"i  c #733214",
"p  c #743319",
"a  c #783619",
"s  c #793B26",
"d  c #823815",
"f  c #A73F09",
"g  c #A83F09",
"h  c #AC4109",
"j  c #B5440A",
"k  c #BA460A",
"l  c #BE480B",
"z  c #BF4E16",
"x  c #B34B1D",
"c  c #BE4F1D",
"v  c #BF501E",
"b  c #C54A0B",
"n  c #C94C0B",
"m  c #C44D11",
"M  c #C84D10",
"N  c #CB5316",
"B  c #C2511C",
"V  c #CB541A",
"C  c #A7664D",
"Z  c #AC6B55",
"A  c #A46B5C",
"S  c #B56F57",
"D  c #B3735D",
"F  c #BA755E",
"G  c #AB7060",
"H  c #CF744E",
"J  c #D3744B",
"K  c #DA774D",
"L  c #CE7653",
"P  c #CF7855",
"I  c #DB7D57",
"U  c #D17B5D",
"Y  c #D27E66",
"T  c #DE825D",
"R  c #E0825C",
"E  c #D38067",
"W  c #DD8463",
"Q  c #D5836B",
"!  c #DC8668",
"~  c #D7896E",
"^  c #D88F75",
"/  c #DA927A",
"(  c #E28561",
")  c #E38865",
"_  c #E09175",
"`  c #E4957B",
"'  c #6786F4",
"]  c #6A87F4",
"[  c #6D89F5",
"{  c #6B8CFF",
"}  c #758CF1",
"|  c #728EFB",
" . c #7A91F7",
".. c #7690FA",
"X. c #7992F9",
"o. c #DC988E",
"O. c #D49797",
"+. c #D99A97",
"@. c #E49D8D",
"#. c #E8A08F",
"$. c #C49DAE",
"%. c #C7A1B3",
"&. c #CCA3B3",
"*. c #D1A7B8",
"=. c #A299CF",
"-. c #AC9BCE",
";. c #B19ECE",
":. c #AC9DD1",
">. c #A79DD8",
",. c #B4A0CF",
"<. c #B9A3CD",
"1. c #ADA0D8",
"2. c #B4A2D2",
/* pixels */
"{ { { { { { { [ Q #.{ { { 2.! W R @.| { { 2.W W W o. .{ { 2.( Q | { { { { { { { ",
"{ { { { { { { | c ) { { { -.N n n W | { { ;.M n n U  .{ { 2.M B [ { { { { { { { ",
"{ { { { { { { [ B ! | { { -.N n n Y  .{ { ;.M b b U  .{ { 2.M v [ { { { { { { { ",
"{ { { { { { { ] p F -.=.-.$.d 8 9 S ;.=.-.%.w 8 q Z ;.=.:.&.w p ] { { { { { { { ",
"{ { { { { { { [ x z V p V V k 5 g b V u N V j 5 h m V a B V j r ' { { { { { { { ",
"{ { { { { { { [ p 5 8 % 5 5 5 = 4 5 8 $ 5 5 8 * 4 5 5 * 5 5 8 < ' { { { { { { { ",
"{ { { { { { { [ x > j k k 5 h k k 3 h k k 3 j k k 5 h j k > j x [ { { { { { { { ",
"{ { { { { { { ] 2 @ > > > # ; > > # : > > # > > > # : > > @ > 2 ] { { { { { { { ",
"{ { { { { { { [ v b b >       X j b b > l l l 4       . j b b t ' { { { { { { { ",
"{ { { { { { { ] t 3 4 $       . > 3 3 # 3 3 4 $         3 3 4 & ' { { { { { { { ",
"{ { { { { { { [ B > b k .     X k 5 k b n 5 b j o     . l > l v [ { { { { { { { ",
"{ { { { { { { ] p % 5 4       . 3 * 5 5 8 * 5 4 .       5 % 5 u ] { { { { { { { ",
"{ { { { { { { [ x k k >       X h k k > j k k 3       . j j k t ' { { { { { { { ",
"{ { { { { { { [ a 8 9 *       . 8 8 9 * 9 8 9 *         8 8 q 1 ' { { { { { { { ",
"{ { { { { { { [ x : j h .     X h 3 h j k 3 h h X     . h : j x [ { { { { { { { ",
"| | { { { | ..} s < 8 7 X o O + e 1 5 8 9 - i i + O . . 5 - p s } ..{ { { | ....",
"E +.| { { >.Q E L / k 4 j H U J H ^ z : j L L L L ~ z 3 h U H P E O...{ { 1.Q E ",
"n Q | { { :.V n b W , # > C N n b T 7 @ > Z n n n J u # : D n b n Y ..{ { 2.N b ",
"n E | { { :.V n n ( l k k K N n n R m k l I n n n K B k k T n n n E X.{ { 1.N n ",
"6 G ,.;.;.%.u 3 4 D ( T R _ y 3 3 Z ) T R ` 7 3 3 C ) T R #.7 3 4 A <.-.,.*.e 3 ",
"n n b 0 k b n 4 k n n 5 b n n 9 j n n 3 b b b 9 k n n 5 k n n 5 b b n q j n n > ",
"8 5 5 * 4 5 8 * 4 4 5 * 5 4 5 = 4 5 8 % 5 4 8 * 5 5 5 * 5 5 5 * 5 5 5 = 4 4 8 % ",
"k 4 k l k 8 g k b > k k l 5 h k l 3 h k k 4 k l k 8 h k k > k k l 8 h k l 4 j k ",
"9 = 8 8 9 ; 8 8 8 * 8 8 9 ; 8 8 9 = 5 5 5 * 8 8 9 = 5 8 9 * 9 8 9 = 8 8 9 * 8 8 ",
"j j j 5 h j k 3 h j k 3 j j j 8 f d @     # 9 5 h j j 3 h j k 3 j j j 5 g j j ; ",
"9 8 w = 5 8 9 * 5 8 9 * 8 8 9 = 3             % 8 8 9 = 5 8 9 * 8 8 9 ; 8 8 9 % ",
"k 3 j k k 5 f k k > j k k 5 g j ;             > j 5 h k k > j k k 5 h k k > h k ",
"3 # > > > $ > > > # > > 3 $ > > X             . > $ : > > @ 3 > > $ > > 3 # > 3 ",
"l l l 8 j l l 4 j k b 4 k l l 4               X h b l 3 j l l 4 k b k 8 j l l > ",
"3 > 3 $ > > 3 # > 3 3 # > > 3 #               . > > 3 # > 3 3 # > > 3 % : > 3 # ",
"b 5 l b b 9 j b n > b b n 8 j k o             X k 9 j b b > b b b 9 j b b 4 j b ",
"5 % 5 5 5 * 3 5 5 $ 4 4 5 = 4 3 .             . 4 * 4 5 5 $ 5 4 5 * 4 5 5 * 4 4 ",
"b l l 8 j l b 4 j l b 4 k l l 4               X j l b 3 j k b 4 k b k 8 j k b > ",
"9 5 9 = 5 8 9 * 8 5 9 * 8 8 9 *               . 5 8 9 * 8 5 9 * 9 5 9 ; 5 5 9 % ",
"j 3 h k j 5 h j j > j k j 5 h h X             X h 8 g j j > j k k 5 g j k 3 h j ",
"9 * 9 9 9 ; 5 8 9 * 9 5 9 = 5 5 .             . 8 = 8 8 0 * 9 8 9 = 5 9 q * 8 8 ",
"k k j 5 h j k 3 h k j 3 j j k 3               X g j j 3 h j j 3 j j j 5 g k j > ",
"3 3 4 % > 4 3 $ 3 3 4 $ 4 3 4 $               . > 4 4 $ > 4 4 $ 4 4 4 * > 3 4 # ",
"k 4 j l k 8 h l k > k k k 8 h h X             o j 5 h l l > j l k 8 h l k 3 h l ",
"k 4 j l k 8 h l k > k k k 8 h h X             o j 5 h l l > j l k 8 h l k 3 h l "
};
