/* XPM */
static char *_1695290860[] = {
/* columns rows colors chars-per-pixel */
"40 40 205 2 ",
"   c #010100",
".  c #090301",
"X  c #2D1102",
"o  c #341402",
"O  c #3C1603",
"+  c #3F1804",
"@  c #3F1F16",
"#  c #332E2F",
"$  c #3A3526",
"%  c #441903",
"&  c #4B1C04",
"*  c #421C0A",
"=  c #521F04",
"-  c #562005",
";  c #5C2305",
":  c #5F2609",
">  c #462215",
",  c #5A2B18",
"<  c #632505",
"1  c #692705",
"2  c #6D2906",
"3  c #682A0A",
"4  c #732B06",
"5  c #792D06",
"6  c #762E09",
"7  c #7A310C",
"8  c #672E16",
"9  c #6C3319",
"0  c #753313",
"q  c #743319",
"w  c #7A3819",
"e  c #583626",
"r  c #6B3F28",
"t  c #793B26",
"y  c #5E551C",
"u  c #72691E",
"i  c #4D4925",
"p  c #47443B",
"a  c #5A5637",
"s  c #675B2B",
"d  c #796F2A",
"f  c #533041",
"g  c #713652",
"h  c #4D4B48",
"j  c #5D5753",
"k  c #714F4E",
"l  c #66565B",
"z  c #796D44",
"x  c #6B6C53",
"c  c #77645C",
"v  c #4C6162",
"b  c #6C6A68",
"n  c #736A65",
"m  c #76746D",
"M  c #823A16",
"N  c #A73F09",
"B  c #AC410A",
"V  c #B5440A",
"C  c #BA460A",
"Z  c #BE480B",
"A  c #BD4C12",
"S  c #B34B1D",
"D  c #BC4F1C",
"F  c #BE521D",
"G  c #894F31",
"H  c #BE5A27",
"J  c #837326",
"K  c #877A33",
"L  c #C54A0B",
"P  c #C94C0B",
"I  c #C34D11",
"U  c #CB5316",
"Y  c #C2511C",
"T  c #CB541A",
"R  c #C35E2A",
"E  c #90414D",
"W  c #996A4D",
"Q  c #857843",
"!  c #8E6F57",
"~  c #A76B55",
"^  c #AE725A",
"/  c #B5745D",
"(  c #8B4566",
")  c #954D6D",
"_  c #8F536F",
"`  c #9B4E71",
"'  c #9A5674",
"]  c #A74E77",
"[  c #A5567A",
"{  c #B1527E",
"}  c #86716A",
"|  c #987765",
" . c #897477",
".. c #967676",
"X. c #CE7854",
"o. c #D17B5E",
"O. c #D27E66",
"+. c #98882C",
"@. c #948434",
"#. c #A6952D",
"$. c #AE9637",
"%. c #B4A22E",
"&. c #B9A630",
"*. c #CDB637",
"=. c #CCB638",
"-. c #DAC338",
";. c #E5CC38",
":. c #EED53B",
">. c #F1D73C",
",. c #F2D83C",
"<. c #95904B",
"1. c #AF9E44",
"2. c #918978",
"3. c #AD8D70",
"4. c #B7A174",
"5. c #E1835E",
"6. c #DD8463",
"7. c #D88467",
"8. c #D5836B",
"9. c #D49578",
"0. c #E28560",
"q. c #E29476",
"w. c #357A9B",
"e. c #457796",
"r. c #AB5E81",
"t. c #B75583",
"y. c #BB5A85",
"u. c #997786",
"i. c #AB6685",
"p. c #A7768B",
"a. c #B07690",
"s. c #BA7A96",
"d. c #C65D8D",
"f. c #CC5D92",
"g. c #D06293",
"h. c #4C87A4",
"j. c #6786F4",
"k. c #6A87F4",
"l. c #6D89F5",
"z. c #6B8CFF",
"x. c #758CF1",
"c. c #728EFB",
"v. c #7A91F7",
"b. c #7690FA",
"n. c #7992F9",
"m. c #888785",
"M. c #8B8C8A",
"N. c #978988",
"B. c #96968D",
"V. c #949593",
"C. c #9D9595",
"Z. c #9B9B9A",
"A. c #BC988F",
"S. c #A98394",
"D. c #B88A9C",
"F. c #A39D9C",
"G. c #AC999A",
"H. c #A5A19D",
"J. c #BCA89A",
"K. c #BC8CA1",
"L. c #BF92A5",
"P. c #ABA8A7",
"I. c #B3ADAB",
"U. c #B8B4B3",
"Y. c #D89894",
"T. c #E89D88",
"R. c #C1A897",
"E. c #D5A990",
"W. c #D5B49C",
"Q. c #E8A08F",
"!. c #C798AC",
"~. c #CA9BB0",
"^. c #D29EB4",
"/. c #C9B6AC",
"(. c #D6BAAA",
"). c #CAA2B3",
"_. c #D7A5BB",
"`. c #C5BDBA",
"'. c #D6BDB0",
"]. c #E2BDAB",
"[. c #C6C1BF",
"{. c #D7C2B7",
"}. c #E7CBB7",
"|. c #F2D3BD",
" X c #A299CF",
".X c #AC9BCE",
"XX c #B19ECE",
"oX c #AB9DD3",
"OX c #B6A1CE",
"+X c #ADA0D8",
"@X c #B4A2D2",
"#X c #E4ADC5",
"$X c #E8AFC8",
"%X c #ECB1CA",
"&X c #F2B5CF",
"*X c #F3B6D1",
"=X c #F6B9D3",
"-X c #F8BAD5",
";X c #CCC8C7",
":X c #D3CCC8",
">X c #D6D2D2",
",X c #E9D5CA",
"<X c #E8E5E3",
"1X c #F1EDEC",
"2X c #F7F3F1",
/* pixels */
"z.z.z.z.z.z.z.l.8.Q.z.z.z.oX7.0.6.T.c.z.z.@X6.6.6.Y.v.z.z.OX0.8.c.z.z.z.z.z.z.z.",
"z.z.z.z.z.z.z.l.Y 0.c.z.z..XU P P 6.b.z.z.XXL P P o.v.z.z.OXU Y l.z.z.z.z.z.z.z.",
"z.z.z.z.z.z.z.l.Y 7.c.z.z..XU P P o.b.z.z.OXI P P o.v.z.c.OXI Y k.z.z.z.z.z.z.z.",
"z.z.z.z.z.z.z.l.w / .X X.X~.M 4 5 / .X X.X).7 4 5 ~ XX XoX).7 q k.z.z.z.z.z.z.z.",
"z.z.z.z.z.z.z.l.S A T q T T C 2 N L U q U U C 3 N I T q Y U V 8 j.z.z.z.z.z.z.z.",
"z.z.z.z.z.z.z.l.q 2 4 % 2 2 2 & 1 4 5 e 2 2 2 % 1 2 4 % 2 2 2 > k.z.z.z.z.z.z.z.",
"z.z.z.z.z.z.z.l.S ; V C C 2 B C R :X{.I.E.3 D A C 4 N Z Z - V S k.z.z.z.z.z.z.z.",
"z.z.z.z.z.z.z.k., X ; ; ; o = : 3.b ! +.2.J.H.{.; o = ; ; X : , k.z.z.z.z.z.z.z.",
"z.z.z.z.z.z.z.l.F L L <       $ [.p ! E $.$.d F.      . V L L 8 j.z.z.z.z.z.z.z.",
"z.z.z.z.z.z.z.k.8 < 2 k m.# Z.M.x s r r J h e.m.        < < < @ k.z.z.z.z.z.z.z.",
"z.z.z.z.z.z.z.l.F : L ].h I.a *.,.,.*.,.;.%.a [.h     . C : L D l.z.z.z.z.z.z.z.",
"z.z.z.z.z.z.z.k.q + 4 /.y %.;.,.,.,.,.>.>.:.:.@.Z.b b M.0 + 4 9 k.z.z.z.z.z.z.z.",
"z.z.z.z.z.z.z.l.S C Z {.i :.:.:.,.,.,.,.,.,.,.,.#.m c V.X.C C 8 j.z.z.z.z.z.z.z.",
"z.z.z.z.z.z.z.l.w 4 M F.u ;.-.-.,.,.,.;.-.,.,.,.,.,.K U.4 2 5 > k.z.z.z.z.z.z.z.",
"z.z.z.z.z.z.z.l.S - V /.+.,.-.K :.:.*.Q &.,.,.,.,.d M.b V = V S l.z.z.z.z.z.z.z.",
"b.b.z.z.z.z.b.x.t > 4 | B.+.K R.3.4.E.,XK >.,.>.>.-.m j 4 * 0 t x.c.z.z.z.c.b.n.",
"8.Y.c.z.z.oX8.7.X.9.Z 1 E.z 1.h }.|.} }.J.#.;.,.,.@./.9 N o.X.X.O.Y.c.z.z.+X8.O.",
"L 8.c.z.z..XU P P 6.< i }.b 1.c |.|.p }.W.-.d +.d [.s X = / P P P O.b.z.z.@XU P ",
"P 7.z.z.z..XT P P 5.L 9.l #.<.J...J.{.}.4.<.b *.&.I.[.E.L O.P P P O.v.l.z.XXU P ",
"< ^ @XXXXX).9 < < / 5.q.[.j <Xn :X;X2.R.$ h.w.-.:.#.a }.o.T.3 1 1 ~ OX.XXX_.8 < ",
"L P L 6 V L P 3 C P P 2 6.H.2Xj <X1XZ.f @.v x ;.:.%.j } P P P 2 L L L 5 N P P ; ",
"4 3 2 & 2 2 4 % 2 2 2 , '.M.<Xh 2.2XG...!._.!.$.>.#.x c 2 2 4 % 4 1 4 & 2 2 4 % ",
"Z < C Z Z 4 B Z C ; F /.Z.<XC.c h.<XH.u.&X&X&X..:.J F.R L = C C C 4 N N L < N L ",
"5 & 4 4 4 - 2 4 4 + ^ P.1X<Xh | j <X:Xn &X&X=X} >.d G.7 5 % 5 4 5 = M 4 5 & 4 4 ",
"V V V 2 N V C < N C o.H.;Xm.# K.2.I.P.l ^.=XL.$.,.i E.: B V V < N L N 2 N N N < ",
"5 4 5 & 4 4 5 % 4 5 0 G.`.;Xl ..*X_.!.D.s @.&.>.#.M.W % 2 4 6 & 4 4 M = 4 5 5 = ",
"C < V V V 4 N C C = V C C A.N.) p.[ [ y.y.~ *.,.d :X9.H C ; V C V 4 N V N < N N ",
"< o ; < < O = < < X ; ; 3.N.) ] p.y.d.g.y.] k =.*.a m | ; X < ; < % = < 2 O ; < ",
"Z Z Z 4 V L Z < V Z L G U.( ) ~.*Xa.[ [ ` ] { E +.j (.9 V Z L < N L L 4 N L P = ",
"< ; < O = < < o ; ; ; J._ [ ^.&X*X*X!.' d.d.y.d.) >X8 o ; ; < O < < < O = < < X ",
"L 2 L L L 5 V L P < L (.k #X&X&X&X&X&X#XK.a.i.i.' I.R L P ; L L P 4 V P P 2 C P ",
"2 % 1 1 2 & < 1 2 + w F.D.!.%X&X&X&X&X!.*X*X^._.,Xl R.2 2 O 2 < 2 % 1 1 2 % 1 2 ",
"Z L C 2 V L Z < V L X.m =XD.=X&X*X*X*Xa.=X*X*XS.=X!.C.r V L L 1 C C L 4 N L L = ",
"5 2 5 = 2 4 5 % 2 2 A. .=XK.=X*X*X*X*X~._.*X*X).^.*X .N.4 4 4 % 5 4 4 = 2 4 4 % ",
"V < N C C 2 N V C ; /.S.%X!.&X*X*X=X*X*XK.*X*X*XD.&Xp.`.D = L N V 2 N V V < N C ",
"5 & 5 5 5 = 2 4 5 & U.!._.).&X*X*X*X*X=XK.*X*X*X!.$X#Xm.~ % 5 6 5 & 4 5 5 & 5 4 ",
"C C C 1 N C V < N R I._._.#X*X&X*X*X=X-X!.*X-X-X#X!.-Xb W.N N 1 N L V 4 N V V = ",
"< < < % < < 1 O < A.l [ ) [ a.s.s.s.a.i.( [ i.i.t.k r.` S.2 1 O 1 < < % < < 1 o ",
"L 1 C Z C 4 N Z I I.f t.( { d.d.f.f.d.t.( ( ] t.t.g ] ] l = C L C 4 N L C < N L ",
"= o ; ; ; O = < 3 H.V.M.Z.M.M.M.m.m.m.M.V.V.C.V.V.V.V.Z.F.X = < = O = 1 < X = 1 "
};
