/* XPM */
static char *_1695233513[] = {
/* columns rows colors chars-per-pixel */
"32 32 151 2 ",
"   c #000000",
".  c #0A0400",
"X  c #110701",
"o  c #170801",
"O  c #1A0901",
"+  c #240E02",
"@  c #280F02",
"#  c #2D1103",
"$  c #321303",
"%  c #3E1703",
"&  c #381B0E",
"*  c #3B251C",
"=  c #431904",
"-  c #4A1C04",
";  c #531F05",
":  c #552004",
">  c #5B2205",
",  c #532E1F",
"<  c #652605",
"1  c #682706",
"2  c #6D2906",
"3  c #742C06",
"4  c #7B2E06",
"5  c #7F3007",
"6  c #79320E",
"7  c #713417",
"8  c #7A3513",
"9  c #783A1E",
"0  c #522E20",
"q  c #783D23",
"w  c #5D4E70",
"e  c #645070",
"r  c #6B5371",
"t  c #7B5A72",
"y  c #833107",
"u  c #8B3407",
"i  c #84340B",
"p  c #8C3508",
"a  c #8E3A0F",
"s  c #933606",
"d  c #963807",
"f  c #9F3B07",
"g  c #923708",
"h  c #953808",
"j  c #9C3B09",
"k  c #863711",
"l  c #873913",
"z  c #813818",
"x  c #8A3C18",
"c  c #993F13",
"v  c #903F18",
"b  c #A43E09",
"n  c #A83F09",
"m  c #914019",
"M  c #9C4419",
"N  c #A6400C",
"B  c #AB420B",
"V  c #B3470F",
"C  c #A34312",
"Z  c #AD4511",
"A  c #AB4819",
"S  c #B14610",
"D  c #B44914",
"F  c #B54E1D",
"G  c #8D4422",
"H  c #9B4A25",
"J  c #8C4F3F",
"K  c #95523E",
"L  c #9D553F",
"P  c #AB5126",
"I  c #B75325",
"U  c #AB5732",
"Y  c #A35639",
"T  c #A3583E",
"R  c #B35B33",
"E  c #BC5B33",
"W  c #B75E3F",
"Q  c #C74907",
"!  c #C84906",
"~  c #C74A09",
"^  c #C94B09",
"/  c #C94E10",
"(  c #CA5013",
")  c #CC561C",
"_  c #CA5A24",
"`  c #C15F37",
"'  c #D2612B",
"]  c #CB6435",
"[  c #C4633B",
"{  c #CB673B",
"}  c #CA683B",
"|  c #B66644",
" . c #BC6743",
".. c #B76846",
"X. c #BF6945",
"o. c #A56251",
"O. c #BA6F56",
"+. c #835C72",
"@. c #895F74",
"#. c #8E6273",
"$. c #B2756F",
"%. c #A16774",
"&. c #B17776",
"*. c #BE7D7B",
"=. c #CC6A42",
"-. c #C36D49",
";. c #CF6F4B",
":. c #C8714C",
">. c #D67144",
",. c #D2744D",
"<. c #D9744A",
"1. c #DE794E",
"2. c #C1715F",
"3. c #D37450",
"4. c #D77A57",
"5. c #DC7B54",
"6. c #D27B5C",
"7. c #DE835F",
"8. c #D2836F",
"9. c #BA7E83",
"0. c #AA7F99",
"q. c #6B8CFF",
"w. c #768DF3",
"e. c #788EF4",
"r. c #738FFB",
"t. c #7E90F1",
"y. c #7A92F9",
"u. c #B5858E",
"i. c #9E8BBF",
"p. c #AE87A2",
"a. c #AC8BAC",
"s. c #AE8FB4",
"d. c #AE90B1",
"f. c #AC92BB",
"g. c #B798B8",
"h. c #C48482",
"j. c #DA9181",
"k. c #C58F98",
"l. c #9F94CC",
"z. c #8B8FDD",
"x. c #9793D6",
"c. c #9696DD",
"v. c #9C99DD",
"b. c #A495CB",
"n. c #AB98C8",
"m. c #B59BC3",
"M. c #A89AD1",
"N. c #8590E7",
"B. c #8C93E2",
"V. c #9396E1",
"C. c #8696F2",
/* pixels */
"q.q.q.q.q.q.0.j.w.q.V.8.<.8.b.q.e.p.1.1.k.r.q.M.4.0.q.q.q.q.q.q.",
"q.q.q.q.q.q.%.6.w.q.V.[ ! ' i.q.y.9.^ ( *.y.q.b.) %.q.q.q.q.q.q.",
"q.q.q.q.q.q.@.O.x.B.n.Y d P a.B.v.&.d j $.c.B.g.M +.q.q.q.q.q.q.",
"q.q.q.q.q.q.@.F W K ` C 4 b E J W I y p I T L E d e q.q.q.q.q.q.",
"q.q.q.q.q.q.t 4 4 3 y 4 3 4 4 2 5 5 3 5 4 3 4 4 y e q.q.q.q.q.q.",
"q.q.q.q.q.q.+.; u h 2 y h 3 2 d y < h p 1 p h : u +.q.q.q.q.q.q.",
"q.q.q.q.q.q.+.u u = O O = i p 2 u u 3 # O + < u y e q.q.q.q.q.q.",
"q.q.q.q.q.q.t y 4 #     + 4 y > 5 y < X     - y 4 w q.q.q.q.q.q.",
"q.q.q.q.q.q.#.2 b <     # y y b d 4 j #     < 2 f @.q.q.q.q.q.q.",
"q.q.q.q.q.q.t 4 y %     @ 5 y 3 y y 4 O     : 5 u r q.q.q.q.q.q.",
"q.q.q.q.q.q.+.s u $     @ u d < p d 2 X     > h y w q.q.q.q.q.q.",
"q.q.q.q.q.q.#.2 d :     # 5 4 f p 4 g @     > 2 d +.q.q.q.q.q.q.",
"z.N.q.q.t.z.#.q i : & * , q 8 4 i 9 G 0 * # > 7 G #.z.r.q.r.N.z.",
"3.s.q.q.f.;.{ 6.l 1 U =.] ,.R ; m -.] } :.6 2 ..} ] 8.B.q.C.h.{ ",
") p.q.r.a.( ~ >.c u R _ ! ' R u M [ ~ / } m u X.( Q =.z.q.C.2.! ",
"v 9.l.b.u.k 5 | <.>.5.H 4 H ,.>.1.X.5 i  .<.>.7.l 4 Y d.l.m.o.4 ",
"n D x c D p y Z C k D N 4 b D 6 Z S y p V h a D j 4 B A z A Z 1 ",
"i 4 y y 3 y i 3 y 5 5 y y 4 4 5 y 5 y y 4 y y 3 i 5 4 y y 4 5 4 ",
"i 2 g s 2 u g < p d 3 5 h 4 3 p 5 2 h s 1 u g < u g 3 y h 4 3 g ",
"b f 4 u b i 5 j p 4 f d 4 y - O o - 2 p b i 4 j g 4 f d 3 h f 1 ",
"y y 3 y y 4 3 5 y 3 y y 3 =       . $ 4 y 4 4 4 y 3 y y 3 y y 2 ",
"y 1 g p < p h > u g 3 4 4 @         + 4 < u h > p h 2 4 d 3 2 g ",
"g p 4 y p 5 4 p u 3 p p ;           . 2 p 4 4 i y 3 p p 3 i p 1 ",
"5 y < 2 5 1 < 4 3 < 4 4 =           . < 5 2 < 5 3 < 5 4 < 4 y : ",
"h 3 b b 3 j b 2 f b y g 4 .         . 3 3 j b 2 f b y u n y y b ",
"p y 4 y 5 5 5 5 y 4 y y :           . 2 y 5 5 5 i 4 y y 4 y y 3 ",
"h h 3 5 j 3 3 h i 2 h g -           . 3 h 4 3 d y 2 s g 2 p g > ",
"g 3 f j 3 h j 2 h f 5 p 3 .         . 3 4 h j 2 d b 4 u f y y j ",
"i 3 y y 3 y y 2 y y 4 5 > .         . 1 3 5 y 2 y 5 4 y y 4 4 4 ",
"h h 3 5 j 3 3 h i 1 g g =           . 3 j 3 3 d y 2 g g < p d : ",
"p 3 p g 3 p p 2 p p 5 i < .         . 2 4 u p 2 p p 5 y p 4 5 i ",
"1 ; 3 3 ; 3 4 - 3 3 > < > .         . ; ; 2 4 - 3 4 : < 4 < : 4 "
};
