/* XPM */
static char *_1695289185[] = {
/* columns rows colors chars-per-pixel */
"32 32 212 2 ",
"   c #030404",
".  c #191410",
"X  c #241308",
"o  c #381C0D",
"O  c #342619",
"+  c #2C2A23",
"@  c #3A3529",
"#  c #4B1D05",
"$  c #5C2205",
"%  c #592408",
"&  c #5B3419",
"*  c #652606",
"=  c #692705",
"-  c #6D2906",
";  c #692A09",
":  c #742C06",
">  c #7B2E06",
",  c #712E0C",
"<  c #7B2F09",
"1  c #7F3007",
"2  c #74300D",
"3  c #7C310A",
"4  c #76391B",
"5  c #623423",
"6  c #763E23",
"7  c #4E482A",
"8  c #58522B",
"9  c #6F522F",
"0  c #7B652D",
"q  c #7C6839",
"w  c #5D4E70",
"e  c #665170",
"r  c #7B5A72",
"t  c #833107",
"y  c #8B3407",
"u  c #83340B",
"i  c #8C3508",
"p  c #87380F",
"a  c #963806",
"s  c #923708",
"d  c #953909",
"f  c #9C3B0A",
"g  c #873B15",
"h  c #913F16",
"j  c #A53E09",
"k  c #9C3936",
"l  c #A23337",
"z  c #87431D",
"x  c #95451B",
"c  c #A9420C",
"v  c #A24312",
"b  c #AB4615",
"n  c #B54C18",
"m  c #B55F1C",
"M  c #A7790B",
"N  c #874425",
"B  c #964A24",
"V  c #9C562B",
"C  c #8C4839",
"Z  c #9B4B35",
"A  c #8D5233",
"S  c #99543B",
"D  c #A7552A",
"F  c #B95725",
"G  c #A64F36",
"H  c #A25638",
"J  c #A6573B",
"K  c #B85A3A",
"L  c #976A2B",
"P  c #B26D2A",
"I  c #AC7329",
"U  c #A36433",
"Y  c #AA6937",
"T  c #C84A08",
"R  c #CA5216",
"E  c #CD7509",
"W  c #C97917",
"Q  c #C35B32",
"!  c #D2612B",
"~  c #C7673A",
"^  c #CE723D",
"/  c #911459",
"(  c #893643",
")  c #982656",
"_  c #9B3B58",
"`  c #B02F4F",
"'  c #A7384C",
"]  c #B72558",
"[  c #A63654",
"{  c #961769",
"}  c #A21664",
"|  c #9D316F",
" . c #AE356D",
".. c #B3386C",
"X. c #C11A57",
"o. c #CD2E5A",
"O. c #CA1B67",
"+. c #C90972",
"@. c #CE197A",
"#. c #D32562",
"$. c #D5297C",
"%. c #CB3077",
"&. c #E43D7F",
"*. c #884842",
"=. c #974A43",
"-. c #975648",
";. c #974F50",
":. c #A54449",
">. c #BA5B47",
",. c #AC465A",
"<. c #B64458",
"1. c #9C6150",
"2. c #BA6D4C",
"3. c #A56153",
"4. c #945264",
"5. c #835C72",
"6. c #895F74",
"7. c #A9486A",
"8. c #B24D63",
"9. c #A95E63",
"0. c #96696A",
"q. c #8E6273",
"w. c #B5796A",
"e. c #A16774",
"r. c #AC7674",
"t. c #C94748",
"y. c #C96D47",
"u. c #D8774B",
"i. c #D57B56",
"p. c #DF586E",
"a. c #D75176",
"s. c #CF7F6B",
"d. c #C97471",
"f. c #E16764",
"g. c #EB7D6C",
"h. c #BA9B18",
"j. c #9B8626",
"k. c #B88B27",
"l. c #CB8708",
"z. c #CA8817",
"x. c #DA8A18",
"c. c #CA9817",
"v. c #DCAD09",
"b. c #DCB40C",
"n. c #CA872D",
"m. c #D98A24",
"M. c #D29E2C",
"N. c #C48D32",
"B. c #B98041",
"V. c #D39348",
"C. c #D08A50",
"Z. c #DA866A",
"A. c #C38A7C",
"S. c #E5997A",
"D. c #DC0C88",
"F. c #DD1391",
"G. c #E91191",
"H. c #D82C86",
"J. c #CF3D82",
"K. c #D73684",
"L. c #E32683",
"P. c #E92299",
"I. c #F42796",
"U. c #EE3B9F",
"Y. c #F23CA4",
"T. c #FA3BB9",
"R. c #A24886",
"E. c #BE5D84",
"W. c #BA7E83",
"Q. c #AA7F99",
"!. c #D25689",
"~. c #D84E99",
"^. c #E04281",
"/. c #ED419D",
"(. c #DE55AA",
"). c #F44AAE",
"_. c #EA5BA9",
"`. c #F649B4",
"'. c #EE55B5",
"]. c #F75BBC",
"[. c #E867B9",
"{. c #F064B7",
"}. c #F956C3",
"|. c #F978CD",
" X c #FB77D2",
".X c #6B8CFF",
"XX c #778EF4",
"oX c #738FFB",
"OX c #7B91F6",
"+X c #B78689",
"@X c #BD9492",
"#X c #9E8BBF",
"$X c #AD8AA8",
"%X c #AD91B6",
"&X c #B394B6",
"*X c #CD8D85",
"=X c #C48E97",
"-X c #C5979A",
";X c #D2A698",
":X c #DF81BD",
">X c #D6BAAF",
",X c #E0C4B6",
"<X c #9F94CC",
"1X c #8B8FDD",
"2X c #9896DB",
"3X c #A495CB",
"4X c #AB98C8",
"5X c #AF9BCA",
"6X c #8590E7",
"7X c #8C93E2",
"8X c #8696F2",
"9X c #F884D3",
/* pixels */
".X.X.X.X.X.XQ.*XXX.X2XZ.u.Z.3X.XOX=Xu.u.-XoX.X5Xi.Q..X.X.X.X.X.X",
".X.X.X.X.X.Xe.i.XX.X7X~ T ! #X.XoX+XT R d.oX.X3XR e..X.X.X.X.X.X",
".X.X.X.X.X.X6.2.2X7X4XJ s D $X7X2Xr.a f w.2X1X&XB 5..X.X.X.X.X.X",
".X.X.X.X.X.X6.F J S ~ v : j K C >.F 3 i F -.H Q f e .X.X.X.X.X.X",
".X.X.X.X.X.Xr > 1 - 1 1 - > t = t > : 3 1 : : > > e .X.X.X.X.X.X",
".X.X.X.X.X.X5.$ 1 v - t f < , d u - d i = i s $ y 5..X.X.X.X.X.X",
".X.X.X.X.X.X5.y y # X O & B B 6 x x 6 o X X $ y t e .X.X.X.X.X.X",
".X.X.X.X.X.Xr t 1 o + 8 9 U S 9 U I L @     # t > w .X.X.X.X.X.X",
".X.X.X.X.X.Xq.: v 9 7 j.h.k.B.C.N.c.k.8 .   * - f q..X.X.X.X.X.X",
".X.X.X.X.X.Xr 3 x 9 0 c.v.l.z.z.l.v.h.L 7 . % 1 y e .X.X.X.X.X.X",
".X.X.X.X.X.X5.f x L j.c.E E m.x.E l.c.j.8 + % v y w .X.X.X.X.X.X",
".X.X.X.X.X.X6.- V L j.W m ^ ^ ^ ~ m k.M 8 + % - a 5..X.X.X.X.X.X",
"1X6X.X.X8X1Xq.6 z L M W 2.=.w.w.A 2.W M q O $ 2 N q.7XXX.XoX6X1X",
"y.%X.X.X%Xy.y.i.D L l.W i.-.A.A.1.i.W c.V.N 2 2.~ ~ s.1X.X8X*X~ ",
"R $X.XoX%XR T u.I k.v.x.u.Z.S.S.Z.u.x.b.N.U x K R T y.1X.X8X2.T ",
"h W.3X3X+Xp < 2.V.M.x.Q t.f.Z.g.f.t.F c.M.V.C.g.p t G %X<X5X3.< ",
"j n g x n y p P I n.>.] O.#.p.a.o.X.` y.n.P D n f 3 c b g b b = ",
"y > y t : t p B Y >.!.H.H.H.!.^.K.K.$.a.K U V 2 t t 1 t 3 1 1 3 ",
"t - s s - y f 6 S ,.K.O.J._.(.(._.%.O.K.' S B * i s : t a > : s ",
"j f > y j t t x G ( ` ` [ !.[.[.!.' ` X.' C g f s > f a : a f = ",
"y t > > t > > 3 B C :.d.9.E.[.:Xd.9.d.' C N < 1 t : t t : t t = ",
"> = s i * i s $ h H 3.;X@X4.7... .=X;X1.9 x s $ y s : > d : - d ",
"s s > t i > < t h C ;.r.>X@X7.7.=X>Xe.-.Z p > y t : i i : y i = ",
"t > = - 1 - * < z *._ [ *X>X0.5.,X@X_ ) =.4 = 1 : * 1 3 $ > > $ ",
"s > j j : f j , G <.%.o.8.*X-.-.*X,.%.%.,.G b ; f j t i j t t j ",
"y > > t t > 3 g :.../.L.] ' l l ` X.H._.| =.g 3 t > t t > t t - ",
"s s : t d > 2 G [ ~.`.I.H.O.O.#.O.&.I.}.~.;.N f y : a s - i d * ",
"s > f f : d j C  .{.).P.`.Y.I.I.Y.).P.`.'. .H , a f > i f t 1 a ",
"t : t t : 1 p C  ._.H.F.}. X'.'.|.].D.G.'. .C 2 t t > t t > > > ",
"d d : 1 d > 2 G  .U.D.D.T. X9X9X|.`.D.G.U._ C d t = s i = i s $ ",
"y : i s : y h k ) $.+.D.G.}. X9X'.G.+.@.@._ Z , i i > t i t 1 y ",
"* $ : - % = 2 5 ( ) { { } { R.R.| } / } / k N # : > $ * > $ $ : "
};
