/* XPM */
static char *_1695233513[] = {
/* columns rows colors chars-per-pixel */
"32 32 138 2 ",
"   c #030102",
".  c #0B0202",
"X  c #050509",
"o  c #07080F",
"O  c #130201",
"+  c #180100",
"@  c #150B05",
"#  c #180C00",
"$  c #1A0C0B",
"%  c #1F1204",
"&  c #1D150D",
"*  c #070A13",
"=  c #0A0C14",
"-  c #131313",
";  c #1B1C1C",
":  c #240000",
">  c #2F0100",
",  c #211100",
"<  c #331C04",
"1  c #381F04",
"2  c #0D1221",
"3  c #131A2F",
"4  c #171E36",
"5  c #181F38",
"6  c #19223E",
"7  c #222323",
"8  c #2C2C2B",
"9  c #323232",
"0  c #3C3B3B",
"q  c #4B0200",
"w  c #4E0A00",
"e  c #5B0500",
"r  c #411E05",
"t  c #6B0500",
"y  c #720600",
"u  c #412106",
"i  c #4F2807",
"p  c #4D2C09",
"a  c #552B05",
"s  c #593307",
"d  c #6B380A",
"f  c #6F400C",
"g  c #1C2542",
"h  c #202B4F",
"j  c #232D53",
"k  c #253057",
"l  c #2A3866",
"z  c #2C3B6C",
"x  c #304075",
"c  c #33437A",
"v  c gray28",
"b  c #4B4A4A",
"n  c #555656",
"m  c #5C5C5C",
"M  c #6B6C6C",
"N  c #737373",
"B  c #7D7D7D",
"V  c #830600",
"C  c #8D0701",
"Z  c #900701",
"A  c #9A1303",
"S  c #AB0700",
"D  c #AC0901",
"F  c #B40901",
"G  c #BC0A01",
"H  c #A31203",
"J  c #8C2507",
"K  c #8F3009",
"L  c #A02607",
"P  c #A52E09",
"I  c #CE0B02",
"U  c #D20C01",
"Y  c #D80A01",
"T  c #CF1103",
"R  c #D01404",
"E  c #D21B05",
"W  c #D81E05",
"Q  c #D42206",
"!  c #DA2407",
"~  c #D62B08",
"^  c #DA340A",
"/  c #D7390B",
"(  c #DA3B0C",
")  c #9A5511",
"_  c #9B5912",
"`  c #AB6214",
"'  c #B76A16",
"]  c #DE420C",
"[  c #E04D0F",
"{  c #E15210",
"}  c #E55D12",
"|  c #DA7B19",
" . c #E66314",
".. c #E86715",
"X. c #E96A15",
"o. c #EB7317",
"O. c #EC7618",
"+. c #ED7B19",
"@. c #F17417",
"#. c #DF811A",
"$. c #E6821A",
"%. c #EC831B",
"&. c #EE891C",
"*. c #F2861B",
"=. c #F38D1D",
"-. c #F4901D",
";. c #384986",
":. c #3C4E8E",
">. c #3D5092",
",. c #41549A",
"<. c #4459A3",
"1. c #485FAE",
"2. c #4860AE",
"3. c #4A61B2",
"4. c #4E66BB",
"5. c #5069BF",
"6. c #526CC5",
"7. c #546EC9",
"8. c #5D79DD",
"9. c #5F7DE4",
"0. c #607EE6",
"q. c #6281EA",
"w. c #6686F5",
"e. c #6B8CFF",
"r. c #888989",
"t. c #969797",
"y. c #A1A2A2",
"u. c #ACACAD",
"i. c #B3B3B4",
"p. c gray75",
"a. c #C4C4C4",
"s. c #CECECE",
"d. c #D0D0D0",
"f. c #D9D9D9",
"g. c #E4E4E4",
"h. c #EDEDED",
"j. c gray95",
"k. c #FEFEFE",
/* pixels */
"e.e.e.e.e.e.e.e.e.e.e.e.e.e.e.e.e.e.e.e.e.e.e.e.e.e.e.e.e.e.e.e.",
"e.e.e.e.e.e.e.e.e.e.e.e.e.e.e.e.e.e.e.e.e.e.e.e.e.e.e.e.e.e.e.e.",
"e.e.e.e.e.e.e.e.e.e.e.e.e.e.e.e.e.e.e.e.e.e.e.e.e.e.e.e.e.e.e.e.",
"e.e.e.e.e.e.e.e.e.e.6.j 4 5 4 4 4 5 4 g 4.e.e.e.e.e.e.e.e.e.e.e.",
"e.e.e.e.e.e.e.q.<.<.z * : w a s a w > X z <.<.9.e.e.e.e.e.e.e.e.",
"e.e.e.e.e.e.w.4.* X . . t Q o.-.+.! V + . .   2.w.e.e.e.e.e.e.e.",
"e.e.e.e.e.w.:.g . e C C S Q o.=.+.! F Z Z e . 6 x q.e.e.e.e.e.e.",
"e.e.e.e.q.4.6 . r A Y U R / O.=.+.( W U Y H u . 2 2.q.e.e.e.e.e.",
"e.e.e.e.1.o . u | ( T E [ &.*.=.=.=.} E T / $.i . X >.e.e.e.e.e.",
"e.e.e.e.<.. e L %.X.} } O.&.=.=.=.-.+.} } X.=.P t . :.e.e.e.e.e.",
"e.e.e.6.z . C ! ..+.=.=.O.X.X.X.....O.=.=.%...! D O l 5.e.e.e.e.",
"e.e.e.h o . C U Q  .=.&.{ E E E E R ] %.=...W R D + o 3 q.e.e.e.",
"e.e.e.4 : t D U R } +.{ ~ I I I I I Q ] O...I I G y > * q.e.e.e.",
"e.e.e.4 q I I I R } X.E I I I I I I I T .. .T I I U e = q.e.e.e.",
"e.e.e.4 q I I I R } ..E I I I I I I T T .. .T I I U e = q.e.e.e.",
"e.e.e.6 q U I R { O...E I I I I I I I T ..O.{ E I U e = q.e.e.e.",
"e.e.e.6 w E E ^ *.=.X.~ T I I I I I T Q ..=.*.( E W e * q.e.e.e.",
"e.e.w.4 a o.o.+.=.=.=.O.] I U U U I ^ X.=.=.=.+.o.@.d * q.e.e.e.",
"e.e.w.6 s =.=.#._ _ _ _ K V V V V V J ) _ _ _ | =.-.f = q.e.e.e.",
"e.e.e.6 s $.$.' % & & & $ O $ $ $ O @ & & & @ ` %.&.d = q.e.e.e.",
"e.e.e.4 # p p 1 X M i.u.n ; r.i.t.7 0 y.i.N   < p p , o q.e.e.e.",
"e.e.e.c 4     - m p.k.j.B 8 a.k.f.9 m h.k.a.m ;     3 l w.e.e.e.",
"e.e.e.w.,.    0 g.j.k.k.B 8 a.k.f.9 m h.k.k.h.v     ;.w.e.e.e.e.",
"e.e.e.e.0.2.6 0 j.k.k.k.f.a.j.k.j.a.s.j.k.k.k.b 2 <.8.e.e.e.e.e.",
"e.e.e.e.e.w.k 8 a.h.k.k.k.k.k.k.k.k.k.k.k.j.d.0 3 q.e.e.e.e.e.e.",
"e.e.e.e.e.w.j   8 u.k.k.k.k.k.k.k.k.k.k.k.i.7 X 2 9.e.e.e.e.e.e.",
"e.e.e.e.e.e.3.l = b N N N N N N N N N N N b X k <.w.e.e.e.e.e.e.",
"e.e.e.e.e.e.e.7.2 * * * * * * * * * * = = = = 4.e.e.e.e.e.e.e.e.",
"e.e.e.e.e.e.e.e.q.q.q.q.q.0.q.q.q.q.q.q.q.q.q.e.e.e.e.e.e.e.e.e.",
"e.e.e.e.e.e.e.e.e.e.e.e.e.e.e.e.e.e.e.e.e.e.e.e.e.e.e.e.e.e.e.e.",
"e.e.e.e.e.e.e.e.e.e.e.e.e.e.e.e.e.e.e.e.e.e.e.e.e.e.e.e.e.e.e.e.",
"e.e.e.e.e.e.e.e.e.e.e.e.e.e.e.e.e.e.e.e.e.e.e.e.e.e.e.e.e.e.e.e."
};
