/* XPM */
static char *_1695233513[] = {
/* columns rows colors chars-per-pixel */
"32 32 204 2 ",
"   c #010001",
".  c #080300",
"X  c #1B0A02",
"o  c #151108",
"O  c #1C1308",
"+  c #000013",
"@  c #200803",
"#  c #2E1302",
"$  c #361B01",
"%  c #391A05",
"&  c #33240C",
"*  c #050232",
"=  c #481905",
"-  c #561A07",
";  c #73150F",
":  c #452201",
">  c #4B2401",
",  c #4E2A01",
"<  c #542104",
"1  c #5C2205",
"2  c #562805",
"3  c #533805",
"4  c #642605",
"5  c #682706",
"6  c #6E2906",
"7  c #752C06",
"8  c #7B2E06",
"9  c #76270A",
"0  c #7D3007",
"q  c #7A3708",
"w  c #743C17",
"e  c #534009",
"r  c #73490D",
"t  c #7B5B07",
"y  c #010149",
"u  c #351750",
"i  c #1D0C76",
"p  c #321768",
"a  c #5D4E70",
"s  c #745866",
"d  c #645070",
"f  c #6B5371",
"g  c #7A5972",
"h  c #8E1015",
"j  c #9B1517",
"k  c #A21C15",
"l  c #AC1E17",
"z  c #B9171B",
"x  c #85260C",
"c  c #892A0B",
"v  c #942A0D",
"b  c #833107",
"n  c #8B3407",
"m  c #83320A",
"M  c #8C3508",
"N  c #863B08",
"B  c #933606",
"V  c #9B3A07",
"C  c #923708",
"Z  c #953808",
"A  c #9C3B09",
"S  c #873A15",
"D  c #973116",
"F  c #A63F09",
"G  c #B82915",
"H  c #C51B1B",
"J  c #EF1A1E",
"K  c #C7251B",
"L  c #CB241B",
"P  c #E9211F",
"I  c #E83D1D",
"U  c #F0391C",
"Y  c #DB1B27",
"T  c #CF183C",
"R  c #E61C22",
"E  c #EB1B22",
"W  c #E92121",
"Q  c #8B4208",
"!  c #9E4609",
"~  c #875807",
"^  c #935808",
"/  c #9C4319",
"(  c #A64709",
")  c #AC430B",
"_  c #B6550A",
"`  c #A84514",
"'  c #B44A15",
"]  c #B54E1D",
"[  c #8A6B0A",
"{  c #986807",
"}  c #97710A",
"|  c #A97A07",
" . c #964E26",
".. c #99543F",
"X. c #AB5126",
"o. c #B75325",
"O. c #A7593A",
"+. c #BA5D39",
"@. c #AB603F",
"#. c #C84A08",
"$. c #CB5113",
"%. c #CC561C",
"&. c #F14D1A",
"*. c #D36A11",
"=. c #E47811",
"-. c #F57914",
";. c #C15F37",
":. c #D2612B",
">. c #C8653B",
",. c #B51454",
"<. c #9D1869",
"1. c #C91D40",
"2. c #C62943",
"3. c #AE6E55",
"4. c #835C72",
"5. c #895E73",
"6. c #8E6173",
"7. c #8A6F72",
"8. c #817D7C",
"9. c #B2756F",
"0. c #A16774",
"q. c #B87A79",
"w. c #D6734B",
"e. c #C1715F",
"r. c #D67855",
"t. c #CF7F6B",
"y. c #B68709",
"u. c #C8870B",
"i. c #D18F0C",
"p. c #CA970A",
"a. c #DC990E",
"s. c #E79A0F",
"d. c #E9871E",
"f. c #F38314",
"g. c #F38916",
"h. c #D9A50B",
"j. c #D2A210",
"k. c #E5AC0C",
"l. c #ECB30C",
"z. c #F0B70C",
"x. c #F5BB0C",
"c. c #FBBE0C",
"v. c #F8B211",
"b. c #CF8E36",
"n. c #E9963F",
"m. c #E6A23B",
"M. c #FFC507",
"N. c #FCC20C",
"B. c #D5CD27",
"V. c #9F9A5C",
"C. c #B98349",
"Z. c #AD8356",
"A. c #BAB442",
"S. c #948F68",
"D. c #DF835E",
"F. c #D2836F",
"G. c #07048C",
"H. c #1C0E93",
"J. c #34198F",
"K. c #3118B0",
"L. c #6D0B97",
"P. c #721390",
"I. c #460AB9",
"U. c #610CA2",
"Y. c #4131B7",
"T. c #664D8E",
"R. c #795886",
"E. c #767485",
"W. c #5E48A2",
"Q. c #0201D9",
"!. c #2804D8",
"~. c #2C12D3",
"^. c #2321D8",
"/. c #0706E9",
"(. c #1504E8",
"). c #110FEA",
"_. c #1514E6",
"`. c #0101F6",
"'. c #0A02F2",
"]. c #0A0AF1",
"[. c #0000FB",
"{. c #BA7E83",
"}. c #AA7F99",
"|. c #7E90EF",
" X c #6B8CFF",
".X c #778EF4",
"XX c #738FFB",
"oX c #7B91F6",
"OX c #B4838A",
"+X c #9E8BBF",
"@X c #AD8AA8",
"#X c #AD91B6",
"$X c #B394B6",
"%X c #C98D8E",
"&X c #9F94CC",
"*X c #8B8FDD",
"=X c #9896DB",
"-X c #A495CB",
";X c #AB98C8",
":X c #AF9BCA",
">X c #8590E7",
",X c #8C93E2",
"<X c #9396E1",
"1X c #8696F2",
/* pixels */
" X X X X X X}.%X.X X<XF.w.D.&X XXX@Xw.w.%XXX X-Xr.@X X X X X X X",
" X X X X X X0.r..X X<X>.#.:.+X XoX{.#.$.q.XX X:X%.0. X X X X X X",
" X X X X X X6.3.=X*X;XO.B X.@X>X=X9.F ! 9.=X<X$X/ 4. X X X X X X",
" X X X X X X5.$.O...+.` 8 F +...+.o.b M o.O...;.Z d  X X X X X X",
" X X X X X Xg 8 8 7 8 b 7 8 8 6 0 8 9 0 8 7 7 8 b d  X X X X X X",
" X X X X X X4.1 n Z 6 8 C 9 6 C m 5 C M 5 M B 1 n 4. X X X X X X",
" X X X X X X4.n x - - - ; v v x v v 7 # X @ 5 N b d  X X X X X X",
" X X X X X Xg b 9 ; H H H P R R W G 4 X     - b 8 a  X X X X X X",
" X X X X X X6.7 G L R E E E E E W W L j h ; x 6 V 6. X X X X X X",
" X X X X X X4.8 G H H H L &.U I z L I z z j 9 8 n f  X X X X X X",
" X X X X X X4.Z 6 1 1 - q s.v.i.& ~ a.= @ X 1 Z b a  X X X X X X",
" X X X X X Xg 2 ^ t : ~ | x.c.h.o t z.} t r q 6 V 4. X X X X X X",
"*X|. X X1X*Xs 2 p.y., | k.N.N.h.& t k.z.c.h.^ w  .6.*XXX X X>X*X",
"w.#X X X#Xw. .2 p.u., 2 ~ z.c.x.j.[ e h.N.c.k.m.>.>.t.,X X1X%X>.",
"%.@X XXX@X$.F  .{ } { { | x.c.l.} 3 o t } } u.n.$.#.>.*X X1Xe.#.",
"S {.-X-XOXS 8 @.r ~ z.x.x.c.N.h.& O o O @ & O.D.S 8 O.#X-X:X@.8 ",
") ' S / ' M b ) M ^ N.M.M.N.N.x.j.p.y.Q M 7 N ' A 8 ) ` S ` ' 4 ",
"b 0 m b 8 b m 9 c ` f.C.C.f.g.d.Z.b.d.D x b b 9 b 0 0 b 0 0 8 8 ",
"b 7 Z B 5 M C 4 K E E I.~.Y E 1.(.P.P J k M Z 4 M C 7 b Z 8 7 C ",
"A A 0 M A m c K Y E E I.!.R J T /.L.J R Y l c A B 8 A V 8 Z A 5 ",
"n b 8 8 x x k R E E E I.!.<.,.<.'.L.J E E Y v c b 7 b b 7 0 m 6 ",
"b 4 Z M 5 L R E J E E I.[.'.'.'.`.L.J E E E W j C Z 6 8 Z 7 6 C ",
"Z M 8 b A =.f.f.U ,.U.7.8.).[._.S.4.L.T &.-.f.*.M 7 M M 9 m M 5 ",
"0 8 4 6 Q h.M.M.&.<.'.V.A.).[.^.B.E.(.2.-.c.N.u.8 4 0 8 4 8 m < ",
"Z 8 F F N a.N.N.c.3.).).).[.[.`._.].^.b.c.N.c.| ( F b M ) b b F ",
"n m 8 8 Q a.N.x.Z.W.].[.[.[.[.[.[.[._.R.D.c.N.u.b 8 b b 7 b b 6 ",
"Z C 7 b ( p.k.j.Y.[.[.[.[.Q./.Q.[.[.[.[.T.h.k.u.M 7 Z C 6 M Z 1 ",
"M 8 A A q ( ] Q K.[.[.[.Q.* * y /.[.[.`.p _ _ q Z A 0 n A b b V ",
"b 7 b b 7 8 8 < p H.H.J.i .   + G.G.H.H.u 6 0 6 b b 8 b b 0 8 8 ",
"Z Z 7 0 Z b 1 > : : : q =         O : : : $ 6 ! b 5 Z M 5 M Z < ",
"M 8 M M 7 2 > : : : : 8 4 .       O : : : = , < M M 0 b M 8 8 n ",
"4 < 8 7 > % % % $ $ $ 1 1 .       X $ $ $ $ $ # 6 8 1 4 8 1 1 8 "
};
