/* XPM */
static char *_1695233513[] = {
/* columns rows colors chars-per-pixel */
"32 32 171 2 ",
"   c #131208",
".  c #3D140D",
"X  c #29200A",
"o  c #362A09",
"O  c #1A1C29",
"+  c #381C2A",
"@  c #3D222C",
"#  c #601E06",
"$  c #452202",
"%  c #4B2700",
"&  c #46260A",
"*  c #4D3B07",
"=  c #5A3501",
"-  c #5C3906",
";  c #492D1B",
":  c #652307",
">  c #4B3534",
",  c #63363B",
"<  c #724B03",
"1  c #6E5508",
"2  c #785C0A",
"3  c #7B581D",
"4  c #7F620A",
"5  c #6B512C",
"6  c #4E3D40",
"7  c #354274",
"8  c #4E414F",
"9  c #504456",
"0  c #544C66",
"q  c #544D69",
"w  c #565273",
"e  c #58567D",
"r  c #DE1A1E",
"t  c #E21F1E",
"y  c #F21B1C",
"u  c #EE2D1E",
"i  c #F2221C",
"p  c #ED321E",
"a  c #DC1B20",
"s  c #CE183D",
"d  c #E61A26",
"f  c #EA1B22",
"g  c #E41D2A",
"h  c #DC273B",
"j  c #E92521",
"k  c #EC2C21",
"l  c #E5212B",
"z  c #97580D",
"x  c #84660A",
"c  c #976A05",
"v  c #98750B",
"b  c #AB7B07",
"n  c #B57A0B",
"m  c #84692E",
"M  c #C77A0D",
"N  c #F36416",
"B  c #AA1B5E",
"V  c #B41253",
"C  c #AA355B",
"Z  c #A41364",
"A  c #A81B60",
"S  c #A43360",
"D  c #D92A41",
"F  c #C8324B",
"G  c #CA375B",
"H  c #AE7A55",
"J  c #BD4373",
"K  c #B9487A",
"L  c #C2406A",
"P  c #AC870B",
"I  c #B79015",
"U  c #C28E09",
"Y  c #C4940A",
"T  c #CC9A0A",
"R  c #D49F0D",
"E  c #FA990D",
"W  c #F58914",
"Q  c #F79A11",
"!  c #D6A30B",
"~  c #E2AA0B",
"^  c #E9B20D",
"/  c #FAB20E",
"(  c #F6BC0C",
")  c #FABF0C",
"_  c #FDA611",
"`  c #EEB619",
"'  c #F5BD14",
"]  c #F4BD1A",
"[  c #DC9727",
"{  c #C6973E",
"}  c #E49A24",
"|  c #EA9A24",
" . c #EA9628",
".. c #D9A72E",
"X. c #EBB921",
"o. c #E0B63B",
"O. c #FDC10C",
"+. c #FFC80C",
"@. c #AC8556",
"#. c #A69F55",
"$. c #B1AA4B",
"%. c #C6AD68",
"&. c #3E3CBE",
"*. c #790D8A",
"=. c #7C1987",
"-. c #5B0AA7",
";. c #4C0BB4",
":. c #585781",
">. c #4B4A94",
",. c #7A5D82",
"<. c #6A5295",
"1. c #5D629A",
"2. c #6B6D89",
"3. c #5351A6",
"4. c #5F6DB5",
"5. c #646DAA",
"6. c #606EB6",
"7. c #6170BB",
"8. c #1E0DDF",
"9. c #1F1CDE",
"0. c #3D06C3",
"q. c #3428CB",
"w. c #3936C3",
"e. c #0502EB",
"r. c #1A0BE2",
"t. c #1002ED",
"y. c #100CEC",
"u. c #1917E7",
"i. c #0503F5",
"p. c #0807F4",
"a. c #0B0AF1",
"s. c #0000FC",
"d. c #0F13FD",
"f. c #1014FD",
"g. c #2222E9",
"h. c #2E3BFC",
"j. c #546DC6",
"k. c #647BD8",
"l. c #7F76DB",
"z. c #4357FD",
"x. c #4E66FE",
"c. c #5B75F7",
"v. c #6A7EE0",
"b. c #7A7EE4",
"n. c #801783",
"m. c #B34C83",
"M. c #A75798",
"N. c #A5639B",
"B. c #A67E9D",
"V. c #9E5FA6",
"C. c #9B62AD",
"Z. c #9568B7",
"A. c #8E6DC2",
"S. c #8278DA",
"D. c #7782EB",
"F. c #6988F7",
"G. c #6686FF",
"H. c #6B8CFF",
"J. c #7187F5",
"K. c #708BFC",
"L. c #6F91FF",
"P. c #8B8891",
"I. c #A7829C",
"U. c #AA9295",
"Y. c #A7A197",
"T. c #ACA492",
"R. c #A6A19D",
"E. c #8E8CAC",
"W. c #8A98CC",
"Q. c #8595D3",
"!. c #8094DB",
/* pixels */
"H.H.H.H.H.H.H.H.H.H.H.H.H.H.H.H.H.H.H.H.H.H.H.H.H.H.H.H.H.H.H.H.",
"H.H.H.H.H.H.H.H.H.H.H.H.H.H.H.H.H.H.H.H.H.H.H.H.H.H.H.H.H.H.H.H.",
"H.H.H.H.H.H.H.H.K.H.K.L.H.H.H.H.H.H.H.H.H.H.H.H.H.H.H.H.H.H.H.H.",
"H.H.H.H.H.H.H.H.H.L.D.Z.V.V.V.V.V.V.V.S.H.H.H.H.H.H.H.H.H.H.H.H.",
"H.H.H.H.H.H.H.H.H.J.Z.D g l g l l f g M.J.J.F.F.H.H.H.H.H.H.H.H.",
"H.H.H.H.H.H.H.H.J.M.C l f f f f f f t G m.m.K K C.H.H.H.H.H.H.H.",
"H.H.H.H.H.H.H.H.b.F r r a a j j k f a d i h h h K F.H.H.H.H.H.H.",
"H.H.H.H.H.H.H.L.v., # : : : M _ _ n . z | I.S.S.b.L.H.H.H.H.H.H.",
"H.H.H.H.H.H.H.k.5.5 - % = < T O.+.P   x ` T.W.W.!.H.H.H.H.H.H.H.",
"H.H.H.H.H.H.F.9 - R I = c ( O.O.+.P   x O.' ] ] %.H.H.H.H.H.H.H.",
"H.H.H.H.H.H.F.8 = ! T = < b ~ O.O.R 4 4 v ! O.O.o.T.Q.H.H.H.H.H.",
"H.H.H.H.H.L.F.9 - ! U = % = Y O.O.' ^ 2 X P ' ' ' ] U.L.H.H.H.H.",
"H.H.H.H.H.H.H.6.2.m c b b n ~ O.O.T 2 o   * 1 1 3 Y.Q.H.H.H.H.H.",
"H.H.H.H.H.H.H.H.v.6 3 ~ ) ) ) ) O.I o X o O O O 7 F.H.H.H.H.H.H.",
"H.H.H.H.H.H.H.H.F.k.P.X.) ) ) ) +.^ I Y I 2.j.j.F.H.L.H.H.H.H.H.",
"H.H.H.H.H.H.H.H.J.S.B. .[ { } E E | { } | I.l.L.H.H.H.H.H.H.H.H.",
"H.H.H.H.H.H.H.H.b.G l l n.8.B i u A 8.=.l l G D.H.H.H.H.H.H.H.H.",
"H.H.H.H.H.H.H.A.M.D y d *.t.Z y y Z t.*.d f h M.Z.H.H.H.H.H.H.H.",
"H.H.H.H.H.H.F.L f f f d *.t.Z y y Z t.*.d f f d J F.H.H.H.H.H.H.",
"H.H.H.H.H.Z.J h f f f f *.i.0.-.-.0.i.*.d f f f D K A.H.H.H.H.H.",
"H.H.H.H.H.N.u p k f g s =.9.a.s.s.a.9.=.s g f u k k N.H.H.H.H.H.",
"H.H.H.H.H.U.E E W p V ;.,.$.&.s.s.&.$.,.;.V p W Q Q U.H.H.H.H.H.",
"H.H.H.H.H.T.O.O./ N C 8.3.#.w.s.s.w.#.3.r.S N / O.O.T.H.H.H.H.H.",
"H.H.H.H.F.T.O.O.) / H r.a.u.p.s.s.p.u.a.u.H / ( O.O.T.H.H.H.H.H.",
"H.H.H.H.H.T.+.O.` @.<.y.s.s.s.s.s.s.s.s.y.<.@.^ O.O.T.H.H.H.H.H.",
"H.H.H.H.H.T.O.O...q.s.s.s.s.s.s.s.s.s.s.s.s.q...O.O.Y.H.H.H.H.H.",
"H.H.H.H.L.D.Y.R.E.g.s.s.s.p.h.z.z.h.s.s.s.s.g.E.R.R.!.L.H.H.H.H.",
"H.H.H.H.F.H.H.F.c.u.e.e.i.f.x.L.L.x.d.p.e.e.u.c.F.G.H.H.H.H.H.H.",
"H.H.H.H.L.F.H.w > @ + + >.c.G.H.L.G.c.>.+ + @ > e F.H.H.H.H.H.H.",
"H.H.H.H.F.D.4.> $ $ $ $ :.H.H.H.H.H.H.:.& $ $ $ > 4.D.H.H.H.H.H.",
"H.H.H.H.H.1.* o $ & $ & :.H.H.H.H.H.H.:.& $ $ & o ; 1.L.H.H.H.H.",
"H.H.H.H.H.7.0 q 0 q 0 q 4.H.H.H.H.H.H.4.q q q q q q 6.H.H.H.H.H."
};
