/* XPM */
static char *_1695289185[] = {
/* columns rows colors chars-per-pixel */
"32 32 178 2 ",
"   c #320E14",
".  c #3F151E",
"X  c #1F1D35",
"o  c #241925",
"O  c #240E3E",
"+  c #351732",
"@  c #4D060B",
"#  c #510B0A",
"$  c #460916",
"%  c #550914",
"&  c #5E101A",
"*  c #670706",
"=  c #600E0D",
"-  c #710A06",
";  c #6E1714",
":  c #751C1C",
">  c #71241E",
",  c #4B1035",
"<  c #751520",
"1  c #442E23",
"2  c #542827",
"3  c #5A3A28",
"4  c #48283A",
"5  c #612723",
"6  c #66272A",
"7  c #78272B",
"8  c #7C3429",
"9  c #633836",
"0  c #78422F",
"q  c #7E4336",
"w  c #7A5539",
"e  c #160049",
"r  c #1E154A",
"t  c #0B0A58",
"y  c #130051",
"u  c #270146",
"i  c #271659",
"p  c #060376",
"a  c #14007A",
"s  c #2A1B62",
"d  c #422942",
"f  c #6C334E",
"g  c #7C2E50",
"h  c #623050",
"j  c #7B3053",
"k  c #5C3778",
"l  c #3E4368",
"z  c #394775",
"x  c #434A7A",
"c  c #695F72",
"v  c #8F181A",
"b  c #A50A04",
"n  c #B80B02",
"m  c #AB170B",
"M  c #B51810",
"N  c #AC2E31",
"B  c #DB0A03",
"V  c #DF191D",
"C  c #F40B04",
"Z  c #F01E0F",
"A  c #DF210F",
"S  c #C72229",
"D  c #D72E27",
"F  c #F33E38",
"G  c #844A37",
"H  c #925837",
"J  c #B2452C",
"K  c #B85539",
"L  c #C1613D",
"P  c #9B2F47",
"I  c #A03C4C",
"U  c #B33D65",
"Y  c #865541",
"T  c #955955",
"R  c #926A48",
"E  c #9D7551",
"W  c #B3744A",
"Q  c #A06F5B",
"!  c #9C4169",
"~  c #A1496F",
"^  c #97676D",
"/  c #A3776D",
"(  c #E85E59",
")  c #CD664A",
"_  c #DF714F",
"`  c #C56C64",
"'  c #CA7768",
"]  c #D97D6D",
"[  c #EE6763",
"{  c #EE7F79",
"}  c #B88059",
"|  c #B08067",
" . c #B48E7F",
".. c #B7937D",
"X. c #C08C63",
"o. c #CA9A70",
"O. c #ED857B",
"+. c #D6A46F",
"@. c #D6A775",
"#. c #030087",
"$. c #010297",
"%. c #05059B",
"&. c #2F2788",
"*. c #0705A6",
"=. c #0A0ABA",
"-. c #7F2387",
";. c #7A3B99",
":. c #564A8A",
">. c #46528A",
",. c #644B91",
"<. c #7B6895",
"1. c #4F45A8",
"2. c #4E5EA5",
"3. c #6758A0",
"4. c #4F67B5",
"5. c #5467B7",
"6. c #726DA3",
"7. c #7F69B1",
"8. c #0F0FC8",
"9. c #1817D7",
"0. c #2D2BDD",
"q. c #1F1FE2",
"w. c #2D2DE6",
"e. c #3636E6",
"r. c #5049C2",
"t. c #5046D9",
"y. c #6C5EC8",
"u. c #5E6EC7",
"i. c #5973CE",
"p. c #5F79DB",
"a. c #676DC5",
"s. c #736DC4",
"d. c #6B72CA",
"f. c #6A77D4",
"g. c #7C72D1",
"h. c #617EE3",
"j. c #747EE3",
"k. c #8C5898",
"l. c #8F728C",
"z. c #8C62AE",
"x. c #8B76A2",
"c. c #8C78B8",
"v. c #7B8CD5",
"b. c #7B8ADC",
"n. c #6D84EB",
"m. c #748AEA",
"M. c #798FEB",
"N. c #6786F4",
"B. c #6E87F6",
"V. c #6D8AF6",
"C. c #6B8CFF",
"Z. c #7591F4",
"A. c #AF8981",
"S. c #B8968C",
"D. c #A48A9B",
"F. c #AB929F",
"G. c #A799AB",
"H. c #A29AB5",
"J. c #B39DB7",
"K. c #B8ABBA",
"L. c #E99F96",
"P. c #DCB182",
"I. c #C3A099",
"U. c #DCB09C",
"Y. c #DBB5A5",
"T. c #CFBCB5",
"R. c #E6BAA7",
"E. c #F4CC94",
"W. c #8B8FD3",
"Q. c #929FDE",
"!. c #BDBBCF",
"~. c #B0B2D0",
"^. c #A7B3EC",
"/. c #DFCCC4",
"(. c #CCC8D3",
"). c #EBE0D6",
"_. c #ECE8E9",
"`. c #F8F5F6",
/* pixels */
"C.C.C.C.C.C.C.C.C.C.C.C.C.C.C.C.C.C.C.C.C.C.C.C.C.C.C.C.C.C.C.C.",
"C.C.C.C.C.C.C.C.C.C.C.C.C.C.C.C.C.C.C.C.C.C.C.C.C.C.C.C.C.C.C.C.",
"C.C.C.C.C.C.C.C.C.C.C.C.C.C.C.C.C.C.C.C.C.C.C.C.C.C.C.C.C.C.C.C.",
"C.C.C.C.C.C.C.C.C.C.C.C.C.C.C.C.B.f.f.j.C.C.C.C.C.C.C.C.C.C.C.C.",
"C.C.C.C.C.C.C.C.C.C.C.C.C.C.d.7.k.I N ~ z.m.C.C.C.C.C.C.C.C.C.C.",
"C.C.C.C.C.C.C.C.C.C.C.C.C.d.g n D ( [ F V U z.m.C.C.C.C.C.C.C.C.",
"C.C.C.C.C.C.C.C.C.C.C.C.f.j b D O.L.{ O.F C S k.B.C.C.C.C.C.C.C.",
"C.C.C.C.C.C.C.C.C.C.C.C.s.v n _ R.O.[ L.] Z C U B.C.C.C.C.C.C.C.",
"C.C.C.C.C.C.C.C.C.C.C.C.a.: b ) U.Y.R.Y.X.A B ~ B.C.C.C.C.C.C.C.",
"C.C.C.C.C.C.C.C.C.C.C.V.6.1 - m J K L K S n M T b.C.C.C.C.C.C.C.",
"C.C.C.C.C.C.C.C.C.C.C.M...w 5 J ` ` ) ' L J K o.H.C.C.C.C.C.C.C.",
"C.C.C.C.C.C.C.C.C.C.C.M...R 0 S.W.c.D.g.J.X.W +.H.C.C.C.C.C.C.C.",
"C.C.C.C.C.C.C.C.C.C.C.m.^ 8 G I.y.,.T 1.~.P.} D.m.C.C.C.C.C.C.C.",
"C.C.C.C.C.C.C.C.C.C.C.C.d.f 0 R Q o.P.A.| W / m.C.C.C.C.C.C.C.C.",
"C.C.C.C.C.C.C.C.C.C.C.C.C.3.6 1 H @.E.o.q G x.B.C.C.C.C.C.C.C.C.",
"C.C.C.C.C.C.C.C.C.C.C.C.C.3.> 0 3 w E Y 0 G <.N.C.C.C.C.C.C.C.C.",
"C.C.C.C.C.C.C.C.C.C.C.C.p.h : 7 9 G H g Y / S.W.m.C.C.C.C.C.C.C.",
"C.C.C.C.C.C.C.C.C.C.C.C.d.< v k ,.P N ! l.T.).(.Q.C.C.C.C.C.C.C.",
"C.C.C.C.C.C.C.C.C.C.C.C.W.T , <.D.;.-.<. ./.`.`.^.C.C.C.C.C.C.C.",
"C.C.C.C.C.C.C.C.C.C.C.Z.H.F.i :.c.t.e.y.x.J._._.^.C.C.C.C.C.C.C.",
"C.C.C.C.C.C.C.C.C.C.C.Z.!.G.s *.9.w.e.e.0.r.H.K.Q.C.C.C.C.C.C.C.",
"C.C.C.C.C.C.C.C.C.C.C.Z.~.G.i p $.8.q.w.9.8.&.:.f.C.C.C.C.C.C.C.",
"C.C.C.C.C.C.C.C.C.C.C.C.v.c O e y #.=.=.%.$.a + 2.C.C.C.C.C.C.C.",
"C.C.C.C.C.C.C.C.C.C.C.C.u.4 % & % e t t t p u $ >.C.C.C.C.C.C.C.",
"C.C.C.C.C.C.C.C.C.C.C.C.u.2 > 8 ; $ r r     @ 4 5.C.C.C.C.C.C.C.",
"C.C.C.C.C.C.C.C.C.C.C.C.a.6 > ; ; # o X o . d 4.C.C.C.C.C.C.C.C.",
"C.C.C.C.C.C.C.C.C.C.C.C.i.d = * * # o z 5.5.i.N.C.C.C.C.C.C.C.C.",
"C.C.C.C.C.C.C.C.C.C.C.C.B.2.4 6 5 2 z n.C.C.C.C.C.C.C.C.C.C.C.C.",
"C.C.C.C.C.C.C.C.C.C.C.C.C.V.2.x l >.h.C.C.C.C.C.C.C.C.C.C.C.C.C.",
"C.C.C.C.C.C.C.C.C.C.C.C.C.C.N.N.N.N.C.C.C.C.C.C.C.C.C.C.C.C.C.C.",
"C.C.C.C.C.C.C.C.C.C.C.C.C.C.C.C.C.C.C.C.C.C.C.C.C.C.C.C.C.C.C.C.",
"C.C.C.C.C.C.C.C.C.C.C.C.C.C.C.C.C.C.C.C.C.C.C.C.C.C.C.C.C.C.C.C."
};
