/* XPM */
static char *_1695233514[] = {
/* columns rows colors chars-per-pixel */
"32 32 148 2 ",
"   c #0D0C09",
".  c #161702",
"X  c #181803",
"o  c #13120C",
"O  c #1F1709",
"+  c #0D0D12",
"@  c #121216",
"#  c #17191D",
"$  c #242109",
"%  c #2E2D09",
"&  c #332C0D",
"*  c #3F2E0F",
"=  c #121625",
"-  c #131827",
";  c #171E36",
":  c #181F38",
">  c #182039",
",  c #28292D",
"<  c #373736",
"1  c #383736",
"2  c #49391A",
"3  c #574D0B",
"4  c #595010",
"5  c #625611",
"6  c #7D7A0D",
"7  c #796B12",
"8  c #434239",
"9  c #555437",
"0  c #6C5326",
"q  c #745721",
"w  c #755823",
"e  c #67553C",
"r  c #222D52",
"t  c #27335B",
"y  c #2F3C6A",
"u  c #39487C",
"i  c #5F5448",
"p  c #5A5958",
"a  c #484D6B",
"s  c #525660",
"d  c #565E79",
"f  c #8F6C27",
"g  c #887C21",
"h  c #997826",
"j  c #A77B2C",
"k  c #8D8C05",
"l  c #9D9C08",
"z  c #99821D",
"x  c #B1AE03",
"c  c #BEBC0A",
"v  c #AD8928",
"b  c #B29E2A",
"n  c #C2AB1D",
"m  c #C09432",
"M  c #CC9835",
"N  c #DAA735",
"B  c #DBA836",
"V  c #DDA539",
"C  c #E6B82E",
"Z  c #E8BD2C",
"A  c #E1A73B",
"S  c #E5B532",
"D  c #C8C902",
"F  c #E1D40F",
"G  c #E2CC1C",
"H  c #E9CC1F",
"J  c #E9D518",
"K  c #F5D61E",
"L  c #F6DC1B",
"P  c #F9DB1E",
"I  c #F7EA0E",
"U  c #F8EA0C",
"Y  c #F8F206",
"T  c #FAF804",
"R  c #FAF20A",
"E  c #F7F80A",
"W  c #F7E318",
"Q  c #FBE219",
"!  c #F7F815",
"~  c #F7F71F",
"^  c #E8C326",
"/  c #EDCB24",
"(  c #EEC728",
")  c #F2CB28",
"_  c #F7D720",
"`  c #F7D923",
"'  c #FADC21",
"]  c #F8DC39",
"[  c #F8DD3C",
"{  c #F7F622",
"}  c #F7E036",
"|  c #F8E036",
" . c #F8F33C",
".. c #A79E5E",
"X. c #8C8973",
"o. c #C9C64B",
"O. c #F8F646",
"+. c #F8E856",
"@. c #F9F459",
"#. c #DAD763",
"$. c #EFDC66",
"%. c #EADB77",
"&. c #F8E56E",
"*. c #FBFC6A",
"=. c #364886",
"-. c #374989",
";. c #3C4F93",
":. c #3D5093",
">. c #48568A",
",. c #47599B",
"<. c #4E609E",
"1. c #4C61A9",
"2. c #5063A6",
"3. c #4F67BA",
"4. c #526BC3",
"5. c #556FC9",
"6. c #5670CC",
"7. c #5A75D5",
"8. c #5A76D9",
"9. c #5D7ADD",
"0. c #5F7DE3",
"q. c #6280E9",
"w. c #6685F2",
"e. c #6888F7",
"r. c #6B8CFF",
"t. c #8D899E",
"y. c #928C9E",
"u. c #A9A89F",
"i. c #9C93A0",
"p. c #A3A3A4",
"a. c #FAEB90",
"s. c #F6EEAD",
"d. c #FAFBA3",
"f. c #FDF3B1",
"g. c #FBF8B4",
"h. c #FCFCBD",
"j. c #91A1DB",
"k. c #9FAFE8",
"l. c #A0AFE8",
"z. c #D3D3CA",
"x. c #DFDED3",
"c. c #DDDDDB",
"v. c #FCF5C4",
"b. c #FEF8CE",
"n. c #FCFDDA",
"m. c #F6F5EA",
"M. c #FFFEEC",
"N. c #FDFEFC",
/* pixels */
"r.r.r.r.r.r.r.r.r.r.r.r.r.r.r.r.r.r.r.r.r.r.r.r.r.r.r.r.r.r.r.r.",
"r.r.r.r.r.r.r.r.r.r.r.r.r.r.r.r.r.r.r.r.r.r.r.r.r.r.r.r.r.r.r.r.",
"r.r.r.r.r.r.r.r.r.r.r.r.r.r.r.r.r.r.r.r.r.r.r.r.r.r.r.r.r.r.r.r.",
"r.r.r.r.r.r.r.r.8.:.:.,.j.l.l.k.l.l.j.2.;.:.5.r.r.r.r.r.r.r.r.r.",
"r.r.r.r.r.r.r.q.1.- # , z.m.m.m.m.m.x.8 o o u q.e.r.r.r.r.r.r.r.",
"r.r.r.r.r.r.0.u d p.p.u.%.&.&.&.&.&.$.b z f i y 7.r.r.r.r.r.r.r.",
"r.r.r.r.r.r.5.= p N.M.b.} P ] ] [ ` L P ) A q + 3.r.r.r.r.r.r.r.",
"r.r.r.r.r.r.5.= p N.a.} U  .v.n.b.@.Y L ) V w + 3.r.r.r.r.r.r.r.",
"r.r.r.r.e.6.<.s X.f.+.W O.*.d.g.s.o.x J _ S h 2 >.4.w.r.r.r.r.r.",
"r.r.r.r.q.r < c.f.K I ! n.h.~ U H 5 X D R ' Z M 2 > 7.r.r.r.r.r.",
"r.r.r.r.q.r < c.f._ I ! n.h.~ U H 5 . D R ' Z M & ; 7.r.r.r.r.r.",
"r.r.r.r.q.r < c.f._ I ! n.h.~ U H 5 . D R P Z M 2 - 7.r.r.r.r.r.",
"r.r.r.r.q.r < c.f._ I ! n.h.~ U H 5 . D R P Z M 2 > 7.r.r.r.r.r.",
"r.r.r.r.q.r < c.f._ I ! n.h.~ U H 5 . D R P Z M * > 7.r.r.r.r.r.",
"r.r.r.r.q.r 1 c.f._ I ! n.h.{ U H 5 . D U P C M * ; 7.r.r.r.r.r.",
"r.r.r.r.q.r 1 c.f.K I ! n.h.~ U H 5 . D Y L Z M * ; 7.r.r.r.r.r.",
"r.r.r.r.q.r 1 c.f._ U ! n.h.~ U H 5 . D R P Z M * : 7.r.r.r.r.r.",
"r.r.r.r.q.r 1 c.f._ I ! n.h.~ U H 5 . D R P Z M * : 7.r.r.r.r.r.",
"r.r.r.r.q.r 1 c.f._ U ! n.h.{ U H 5 . D R ' Z M * : 7.r.r.r.r.r.",
"r.r.r.r.q.r 1 c.f._ U ! n.v.| P H 5 . D R P Z M * : 7.r.r.r.r.r.",
"r.r.r.r.q.r 1 c.f._ I ! n.v.[ P H 5 . D Y _ Z M * > 7.r.r.r.r.r.",
"r.r.r.r.q.r 1 x.f.' I ! n.v.[ P / 5 . D R P Z M * > 7.r.r.r.r.r.",
"r.r.r.r.e.2.d <..._ I E *.#.g 7 7 6 k F L Z v 0 a ,.q.r.r.r.r.r.",
"r.r.r.r.r.r.5.- 4 _ I Y T c %   $ l T L ( V w @ 3.r.r.r.r.r.r.r.",
"r.r.r.r.r.r.6.# 3 P Q L Q J n n n G L Z A A q o 3.r.r.r.r.r.r.r.",
"r.r.r.r.r.r.8.t 9 n n n ^ ) ) ) ) / ^ v j j e r 6.r.r.r.r.r.r.r.",
"r.r.r.r.r.r.e.q.,.$ $ & m N N N B B M 2 O O u 9.e.r.r.r.r.r.r.r.",
"r.r.r.r.r.r.r.r.7.-.-.>.t.i.i.i.i.i.y.>.=.=.4.r.r.r.r.r.r.r.r.r.",
"r.r.r.r.r.r.r.r.r.e.r.e.e.r.r.r.r.r.e.r.e.r.r.r.r.r.r.r.r.r.r.r.",
"r.r.r.r.r.r.r.r.r.r.r.r.r.r.r.r.r.r.r.r.r.r.r.r.r.r.r.r.r.r.r.r.",
"r.r.r.r.r.r.r.r.r.r.r.r.r.r.r.r.r.r.r.r.r.r.r.r.r.r.r.r.r.r.r.r.",
"r.r.r.r.r.r.r.r.r.r.r.r.r.r.r.r.r.r.r.r.r.r.r.r.r.r.r.r.r.r.r.r."
};
