/* XPM */
static char *_31695289186[] = {
/* columns rows colors chars-per-pixel */
"32 32 183 2 ",
"   c #B02F3C",
".  c #AF5A10",
"X  c #B55A1A",
"o  c #AA630B",
"O  c #B06A09",
"+  c #BC760C",
"@  c #A76E1D",
"#  c #B16115",
"$  c #B97910",
"%  c #9A5E2D",
"&  c #A6492F",
"*  c #BB4731",
"=  c #996A2C",
"-  c #A87025",
";  c #B77924",
":  c #B76039",
">  c #AB7D30",
",  c #C77D0C",
"<  c #D16E2C",
"1  c #C9663A",
"2  c #BA0A4C",
"3  c #B82F51",
"4  c #BA1B61",
"5  c #AC0F77",
"6  c #A71878",
"7  c #9E3475",
"8  c #A8386A",
"9  c #CD265F",
"0  c #C4096F",
"q  c #CF1566",
"w  c #D80878",
"e  c #D5187C",
"r  c #E1057A",
"t  c #C83B63",
"y  c #D12873",
"u  c #895E5D",
"i  c #A24F4F",
"p  c #BB454D",
"a  c #A85D4A",
"s  c #B55E44",
"d  c #BF5B52",
"f  c #B26352",
"g  c #9E4F66",
"h  c #BB5F65",
"j  c #A74071",
"k  c #B45276",
"l  c #8C6E66",
"z  c #89716B",
"x  c #847576",
"c  c #997776",
"v  c #B86D6C",
"b  c #AB7171",
"n  c #C5755F",
"m  c #D8795F",
"M  c #D3426D",
"N  c #C75662",
"B  c #C64E7C",
"V  c #E14C75",
"C  c #D67666",
"Z  c #BD861C",
"A  c #BA8237",
"S  c #D09017",
"D  c #D79818",
"F  c #CF972F",
"G  c #C68D34",
"H  c #E09D21",
"J  c #E99B3A",
"K  c #D5A82D",
"L  c #9F814F",
"P  c #BC8F4A",
"I  c #BC974E",
"U  c #B28358",
"Y  c #AB916F",
"T  c #BA9B6A",
"R  c #D48967",
"E  c #C6897E",
"W  c #E69577",
"Q  c #7E72CF",
"!  c #AD2A8B",
"~  c #A13186",
"^  c #C81885",
"/  c #DC188C",
"(  c #CF1993",
")  c #E80986",
"_  c #FC0C8B",
"`  c #E91285",
"'  c #F9148A",
"]  c #FA0D93",
"[  c #E41993",
"{  c #FB1392",
"}  c #F6129A",
"|  c #C62586",
" . c #D82B8D",
".. c #D72693",
"X. c #C93199",
"o. c #ED338A",
"O. c #E52995",
"+. c #E12599",
"@. c #F02F93",
"#. c #FD28A7",
"$. c #E83AA4",
"%. c #F134A4",
"&. c #8E469C",
"*. c #AD4A83",
"=. c #90618D",
"-. c #89748D",
";. c #937C81",
":. c #8F749B",
">. c #9949A3",
",. c #8B54AF",
"<. c #9654AE",
"1. c #8A5BB5",
"2. c #945BB5",
"3. c #AA49AA",
"4. c #B554A8",
"5. c #A84EB0",
"6. c #A35CB6",
"7. c #8B6DAF",
"8. c #9767AE",
"9. c #8279AE",
"0. c #8A61BA",
"q. c #9361B5",
"w. c #CA5B82",
"e. c #E8408A",
"r. c #E94498",
"t. c #D46497",
"y. c #C74AAA",
"u. c #DA57AA",
"i. c #EA49A8",
"p. c #F051AC",
"a. c #E147B3",
"s. c #E957B1",
"d. c #F45EB3",
"f. c #F25EBF",
"g. c #C661B3",
"h. c #F074A7",
"j. c #E464BA",
"k. c #F766B5",
"l. c #876BC6",
"z. c #946CC8",
"x. c #9578CA",
"c. c #8F7BD9",
"v. c #EF5FC5",
"b. c #F757C0",
"n. c #EA68C6",
"m. c #F36BC2",
"M. c #FA66CA",
"N. c #F876CA",
"B. c #7E8DD7",
"V. c #718AE9",
"C. c #7589EA",
"Z. c #7D93E4",
"A. c #7B93ED",
"S. c #6F89F7",
"D. c #6B8CFF",
"F. c #748CF6",
"G. c #6F90FF",
"H. c #7C93F5",
"J. c #7392FD",
"K. c #7B95FA",
"L. c #7D9AF9",
"P. c #8D858C",
"I. c #8D8596",
"U. c #9E9594",
"Y. c #AB988D",
"T. c #8789A8",
"R. c #868AB7",
"E. c #AF9EA1",
"W. c #DCAD8E",
"Q. c #E6A295",
"!. c #E1BA9D",
"~. c #888CC8",
"^. c #8E95CD",
"/. c #8682DE",
"(. c #8595D8",
"). c #98A6DD",
"_. c #A9ABC5",
"`. c #8488E7",
"'. c #878AE6",
"]. c #8B9FE3",
"[. c #8493E8",
"{. c #8294F4",
"}. c #839BF2",
/* pixels */
"D.D.D.D.D.D.D.D.D.D.D.D.D.D.D.D.D.D.D.D.D.D.D.D.D.D.D.D.D.D.D.D.",
"D.D.D.D.D.D.D.D.D.D.D.D.D.D.D.D.D.D.D.D.D.D.D.D.D.D.D.D.D.D.D.D.",
"D.D.D.D.D.D.D.D.D.D.D.D.D.D.D.D.D.D.D.D.D.D.D.D.D.D.D.D.D.D.D.D.",
"D.D.D.D.D.D.D.D.D.D.D.D.D.K.Z.(.].(.^.^.}.J.D.D.D.D.D.D.D.D.D.D.",
"D.D.D.D.D.D.D.D.D.D.D.G.L.B.I.Y._._.E.Y.).K.D.D.D.D.D.D.D.D.D.D.",
"D.D.D.D.D.D.D.D.D.D.J.Z.R.c = > Y Y.T I U.(.H.D.D.D.D.D.D.D.D.D.",
"D.D.D.D.D.D.D.D.D.G.Z.T.L F S S Z @ S K P ;.B.D.D.D.D.D.D.D.D.D.",
"D.D.D.D.D.D.D.D.D.D.A.I.A H D H $ o + $ A ;.B.D.D.D.D.D.D.D.D.D.",
"D.D.D.D.D.D.D.D.D.D.K.I.- , $ $ . X X % l ~.H.D.D.D.D.D.D.D.D.D.",
"D.D.D.D.D.D.D.D.D.D.L.P.@ O ; X 1 a a u R.H.J.D.D.D.D.D.D.D.D.D.",
"D.D.D.D.D.D.D.D.D.K.T.L $ # G s m n v c ~.H.D.D.D.D.D.D.D.D.D.D.",
"D.D.D.D.D.D.D.D.J.R.L F S # : m C W W E :.A.G.D.D.D.D.D.D.D.D.D.",
"D.D.D.D.D.D.D.D.V.x G J < *   3 N m R v 9.A.D.D.D.D.D.D.D.D.D.D.",
"D.D.D.D.D.D.D.D.V.z G 1 t 9 q 2     i :.[.J.D.D.D.D.D.D.D.D.D.D.",
"D.D.D.D.D.D.D.D.V.-.a p V k.p.y 9 M j x.K.D.D.D.D.D.D.D.D.D.D.D.",
"D.D.D.D.D.D.D.D.J.~.=.*.j.N.k.O.@.k.u.6.C.D.D.D.D.D.D.D.D.D.D.D.",
"D.D.D.D.D.D.D.D.D.H.[.x.4.r.o.y %.M.j.5.`.D.D.D.D.D.D.D.D.D.D.D.",
"D.D.D.D.D.D.D.D.D.D.J.{.8.w.V 4 | ..! <.{.J.D.D.D.D.D.D.D.D.D.D.",
"D.D.D.D.D.D.D.D.D.D.D.{.9.;.Q.B 7 w.~ x.{.D.D.D.D.D.D.D.D.D.D.D.",
"D.D.D.D.D.D.D.D.D.D.J.{.9.b W.!.n k 7 q.'.J.D.D.D.D.D.D.D.D.D.D.",
"D.D.D.D.D.D.D.D.D.D.J.{.7.g f U W.v k 4.z.F.G.D.D.D.D.D.D.D.D.D.",
"D.D.D.D.D.D.D.D.D.D.K.c.6.t.N & R E w.s.3.'.J.D.D.D.D.D.D.D.D.D.",
"D.D.D.D.D.D.D.D.D.J.`.6.j.N.h.N d h 8 d.y.z.A.G.D.D.D.D.D.D.D.D.",
"D.D.D.D.D.D.D.D.D.H.z.g.N.v.m.h.M 3 y f.a.5.'.G.D.D.D.D.D.D.D.D.",
"D.D.D.D.D.D.D.D.J.`.3.i.b.a.n.N.r.e.o.i.n.y.l.S.D.D.D.D.D.D.D.D.",
"D.D.D.D.D.D.D.D.F.z.X.} } ( v.N.$.$.' y s.y.0.S.D.D.D.D.D.D.D.D.",
"D.D.D.D.D.D.D.D.F.<.+.] ) / b.M.[ r ' r  .X.0.S.D.D.D.D.D.D.D.D.",
"D.D.D.D.D.D.D.D.V.>.+.} ) ) #.#.` r _ _ e | 1.S.D.D.D.D.D.D.D.D.",
"D.D.D.D.D.D.D.D.V.,.| ` w r { ] w w ] ' 0 6 ,.S.D.D.D.D.D.D.D.D.",
"D.D.D.D.D.D.D.D.J./.>.6 5 ^ ..( 6 0 /  .~ &.Q S.D.D.D.D.D.D.D.D.",
"D.D.D.D.D.D.D.D.D.K./.0.2.2.2.2.1.2.2.q.l.'.S.D.D.D.D.D.D.D.D.D.",
"D.D.D.D.D.D.D.D.D.J.J.H.{.{.H.{.{.{.{.{.H.J.D.D.D.D.D.D.D.D.D.D."
};
