/* XPM */
static char *_11695290860[] = {
/* columns rows colors chars-per-pixel */
"40 40 177 2 ",
"   c #3A3518",
".  c #60352D",
"X  c #3E473A",
"o  c #554E1C",
"O  c #4F472C",
"+  c #575635",
"@  c #6B5C28",
"#  c #6B6121",
"$  c #7C6D26",
"%  c #776E33",
"&  c #5E3C4D",
"*  c #633B4E",
"=  c #27464F",
"-  c #56444D",
";  c #5A424D",
":  c #5B5843",
">  c #5F4552",
",  c #5C4E54",
"<  c #4E5A54",
"1  c #6C4E41",
"2  c #624352",
"3  c #694958",
"4  c #67525B",
"5  c #735C54",
"6  c #5F755B",
"7  c #6B744F",
"8  c #686654",
"9  c #7D7653",
"0  c #6A686B",
"q  c #7D626D",
"w  c #797764",
"e  c #7A6871",
"r  c #767374",
"t  c #7C7A7B",
"y  c #836A29",
"u  c #967334",
"i  c #967549",
"p  c #887251",
"a  c #947D5B",
"s  c #8C4868",
"d  c #974A6C",
"f  c #8E556F",
"g  c #9E4E71",
"h  c #A84F78",
"j  c #A6577B",
"k  c #AB537B",
"l  c #B3567A",
"z  c #886C6B",
"x  c #857666",
"c  c #8C6875",
"v  c #8A6E78",
"b  c #966C7E",
"n  c #877379",
"m  c #9A7970",
"M  c #8C8028",
"N  c #96882A",
"B  c #9F902A",
"V  c #86833A",
"C  c #9B8C36",
"Z  c #94853C",
"A  c #A6942E",
"S  c #AC9B2D",
"D  c #A68B3B",
"F  c #A89837",
"G  c #B8A52F",
"H  c #BDAA30",
"J  c #C2AE33",
"K  c #CBB635",
"L  c #D2BC35",
"P  c #D9C237",
"I  c #E4CC39",
"U  c #EDD43B",
"Y  c #F1D73C",
"T  c #F3D93C",
"R  c #928047",
"E  c #9B8653",
"W  c #AD9C46",
"Q  c #9A896D",
"!  c #82827D",
"~  c #9C8778",
"^  c #9B9073",
"/  c #A78F71",
"(  c #367B9B",
")  c #2F78A6",
"_  c #5C7C86",
"`  c #B85B86",
"'  c #BE5A87",
"]  c #887F85",
"[  c #967484",
"{  c #9D7A87",
"}  c #A47A8E",
"|  c #A57E90",
" . c #C35D8B",
".. c #CA5C8F",
"X. c #CE5E92",
"o. c #D46096",
"O. c #D9639A",
"+. c #5389A3",
"@. c #6B8CFF",
"#. c #708FFE",
"$. c #7392FE",
"%. c #7997FE",
"&. c #7C99FE",
"*. c #8B8787",
"=. c #8D8B8C",
"-. c #97968E",
";. c #988C90",
":. c #8E919A",
">. c #96969B",
",. c #A28A86",
"<. c #B09B89",
"1. c #AC8495",
"2. c #AE8999",
"3. c #B38699",
"4. c #B58B9D",
"5. c #B98B9E",
"6. c #A19898",
"7. c #BE9591",
"8. c #B8A192",
"9. c #9A9EA9",
"0. c #BC8DA1",
"q. c #BF90A4",
"w. c #9FA2AD",
"e. c #A4A5A5",
"r. c #A7A7A9",
"t. c #B1B0AC",
"y. c #A2A9B5",
"u. c #B1ADB3",
"i. c #AFB0B3",
"p. c #B3B5BA",
"a. c #B8B8B9",
"s. c #C3AC9A",
"d. c #C08EA4",
"f. c #C393A7",
"g. c #C596AA",
"h. c #CE9CB1",
"j. c #D8B7A8",
"k. c #D5A1B7",
"l. c #DBA5BC",
"z. c #DFA8BF",
"x. c #E0A9BF",
"c. c #DFC2AF",
"v. c #E8CBB6",
"b. c #EFD1BA",
"n. c #F2D3BD",
"m. c #B4B9CA",
"M. c #B2B9D1",
"N. c #B3BCDA",
"B. c #839EFF",
"V. c #86A1FE",
"C. c #8AA4FE",
"Z. c #93ABFE",
"A. c #9CB2FD",
"S. c #A4B6F5",
"D. c #ADBEF6",
"F. c #A1B5FD",
"G. c #A6BAFD",
"H. c #AABCFC",
"J. c #E4ACC4",
"K. c #E8AEC6",
"L. c #EBAFC9",
"P. c #EDB2CC",
"I. c #F2B5CF",
"U. c #F3B6D1",
"Y. c #F5B9D3",
"T. c #B8C2DF",
"R. c #BBC5E9",
"E. c #AFC0FC",
"W. c #B5C4F9",
"Q. c #C4C8D9",
"!. c #D9D7D6",
"~. c #C6CDE7",
"^. c #CAD1E7",
"/. c #C1CDF6",
"(. c #CBD5F5",
"). c #EBE9E7",
"_. c #F0EDEB",
/* pixels */
"@.@.@.@.@.@.@.@.@.@.@.@.@.@.@.@.@.@.@.@.@.@.@.@.@.@.@.@.@.@.@.@.@.@.@.@.@.@.@.@.",
"@.@.@.@.@.@.@.@.@.@.@.@.@.@.@.@.@.@.@.@.@.@.@.@.@.@.@.@.@.@.@.@.@.@.@.@.@.@.@.@.",
"@.@.@.@.@.@.@.@.@.@.@.@.@.@.@.@.@.@.@.@.@.@.@.@.@.@.@.@.@.@.@.@.@.@.@.@.@.@.@.@.",
"@.@.@.@.@.@.@.@.@.@.@.@.@.@.@.@.@.@.@.@.@.@.@.@.@.@.@.@.@.@.@.@.@.@.@.@.@.@.@.@.",
"@.@.@.@.@.@.@.@.@.@.@.@.@.@.@.@.@.@.@.@.@.@.@.@.@.@.@.@.@.@.@.@.@.@.@.@.@.@.@.@.",
"@.@.@.@.@.@.@.@.@.@.@.@.@.@.@.@.@.@.@.@.@.@.@.@.@.@.@.@.@.@.@.@.@.@.@.@.@.@.@.@.",
"@.@.@.@.@.@.@.@.@.@.@.@.@.@.@.@./.(.t.^.A.E.W.$.@.@.@.@.@.@.@.@.@.@.@.@.@.@.@.@.",
"@.@.@.@.@.@.@.@.@.@.@.@.@.@.@.%.r.9 u D ^ E t.&.@.@.@.@.@.@.@.@.@.@.@.@.@.@.@.@.",
"@.@.@.@.@.@.@.@.@.@.@.@.@.@.@.G.0 u l y F < p.%.@.@.@.@.@.@.@.@.@.@.@.@.@.@.@.@.",
"@.@.@.@.@.@.@.@.@.@.@.@.@.@.W.:.X @ . $ $ = y.E.@.@.@.@.@.@.@.@.@.@.@.@.@.@.@.@.",
"@.@.@.@.@.@.@.@.@.@.@.(.W.R.8 G T U Y T T T M -./.V.A.E.@.@.@.@.@.@.@.@.@.@.@.@.",
"@.@.@.@.@.@.@.@.@.@.%.w.: % L Y Y T T T T T T K 9 =.: Q.$.@.@.@.@.@.@.@.@.@.@.@.",
"@.@.@.@.@.@.@.@.@.@.$.m.B T U Y T T Y T T T T T T I % (.@.@.@.@.@.@.@.@.@.@.@.@.",
"@.@.@.@.@.@.@.@.@.@.$.Q.  I P U T T T I P T T T T N w.E.@.@.@.@.@.@.@.@.@.@.@.@.",
"@.@.@.@.@.@.@.@.@.@.@.Q.M U P A T T U Z S T Y T T J : E.@.@.@.@.@.@.@.@.@.@.@.@.",
"@.@.@.@.@.@.@.@.@.@.@.D.p T H Q F C / v.^ P Y Y U P 6.&.@.@.@.@.@.@.@.@.@.@.@.@.",
"@.@.@.@.@.@.@.@.@.@.@.$.R.8 o ~ ~ b.! s.n.% S K S w A.@.@.@.@.@.@.@.@.@.@.@.@.@.",
"@.@.@.@.@.@.@.@.@.@.@.@.W.i.N x ~ b.x <.n.W R / P t E.E.@.@.@.@.@.@.@.@.@.@.@.@.",
"@.@.@.@.@.@.@.@.@.@.@.#.9.# I Q v.j.c.b.<.V +.6 T V w >.&.@.@.@.@.@.@.@.@.@.@.@.",
"@.@.@.@.@.@.@.@.@.@.@.@.D.! N F 8.7.v.b.9 + ( 7 Y T M y.$.@.@.@.@.@.@.@.@.@.@.@.",
"@.@.@.@.@.@.@.@.@.@.@.@.%.Q.5 m O p ~ { v p z E P K   y.$.@.@.@.@.@.@.@.@.@.@.@.",
"@.@.@.@.@.@.@.@.@.@.@.@.W.e I.1.q _ a Y.[ I.U.P.i U o T.@.@.@.@.@.@.@.@.@.@.@.@.",
"@.@.@.@.@.@.@.@.@.@.@.@.N.| Y.n 0 ) E z.d.I.I.U.x T O W.@.@.@.@.@.@.@.@.@.@.@.@.",
"@.@.@.@.@.@.@.@.@.@.@.@.N.,.k.q Q i 7.J.v k.I.I.p Y + W.@.@.@.@.@.@.@.@.@.@.@.@.",
"@.@.@.@.@.@.@.@.@.@.@.@.A.u.n ,.0.J.I.6.8.,.2.m K J =.C.@.@.@.@.@.@.@.@.@.@.@.@.",
"@.@.@.@.@.@.@.@.@.@.@.@.@.F.6.!.v L.;.j.! 5 A U T @ R.$.@.@.@.@.@.@.@.@.@.@.@.@.",
"@.@.@.@.@.@.@.@.@.@.@.@.@.Z.r.).q & t._.;...l D T C *.9.Z.@.@.@.@.@.@.@.@.@.@.@.",
"@.@.@.@.@.@.@.@.@.@.@.@.$.^.3 !.).t ).;.g l d g i U $ :.B.@.@.@.@.@.@.@.@.@.@.@.",
"@.@.@.@.@.@.@.@.@.@.@.@.H.[ d r.).:.6.f k h g g d 1 e.Z.@.@.@.@.@.@.@.@.@.@.@.@.",
"@.@.@.@.@.@.@.@.@.@.@.@.T.s 3.v r.r f.P.} ` ` '  .j Q.@.@.@.@.@.@.@.@.@.@.@.@.@.",
"@.@.@.@.@.@.@.@.@.@.@.@.m.[ J.x.2.g.U.I.J.L.l.5.f.d.=.A.@.@.@.@.@.@.@.@.@.@.@.@.",
"@.@.@.@.@.@.@.@.@.@.@.V.*.K.0.U.U.I.U.I.0.U.U.J.f.U.q Q.#.@.@.@.@.@.@.@.@.@.@.@.",
"@.@.@.@.@.@.@.@.@.@.@.W.n U.q.I.U.U.U.U.5.U.U.I.3.U.K.t Z.@.@.@.@.@.@.@.@.@.@.@.",
"@.@.@.@.@.@.@.@.@.@.@.^.[ P.f.I.U.U.Y.U.k.k.U.I.J.d.U.n R.@.@.@.@.@.@.@.@.@.@.@.",
"@.@.@.@.@.@.@.@.@.@.#.p.q.J.h.U.U.U.U.U.I.3.U.U.U.4.U.d.a.$.@.@.@.@.@.@.@.@.@.@.",
"@.@.@.@.@.@.@.@.@.@.&.>.k.h.z.I.U.I.U.U.U.3.U.I.U.h.J.L.*.A.@.@.@.@.@.@.@.@.@.@.",
"@.@.@.@.@.@.@.@.@.@.H.0 4.c 0.J.L.I.L.l.d.c 0.h.h.1.b 0.; ~.#.@.@.@.@.@.@.@.@.@.",
"@.@.@.@.@.@.@.@.@.@.M.s O.h o. .` ` `  .o.' ..X.o.o.k O.o.] C.@.@.@.@.@.@.@.@.@.",
"@.@.@.@.@.@.@.@.@.#.p.- > - 2 * * * * & ; , , 2 > 2 , 4 4 r H.@.@.@.@.@.@.@.@.@.",
"@.@.@.@.@.@.@.@.@.@.Z.F.G.G.G.G.H.S.S.H.H.A.F.H.G.G.A.F.G.A.$.@.@.@.@.@.@.@.@.@."
};
