/* XPM */
static char *_01695289187[] = {
/* columns rows colors chars-per-pixel */
"32 32 160 2 ",
"   c #A14C1A",
".  c #AA5B16",
"X  c #B95E1D",
"o  c #AB6800",
"O  c #B56D00",
"+  c #B87402",
"@  c #BC7A03",
"#  c #BD6C1E",
"$  c #AC751E",
"%  c #9D5B34",
"&  c #A57927",
"*  c #A67B32",
"=  c #A47E3A",
"-  c #C47D09",
";  c #BA296D",
":  c #AD3461",
">  c #B5316C",
",  c #A42C7F",
"<  c #AE474E",
"1  c #B54A47",
"2  c #9F7744",
"3  c #A47E58",
"4  c #BA7055",
"5  c #955A7E",
"6  c #A44864",
"7  c #B84779",
"8  c #866F72",
"9  c #A98133",
"0  c #CA8504",
"q  c #C2820D",
"w  c #D8970A",
"e  c #C68812",
"r  c #D88916",
"t  c #CD9318",
"y  c #D09711",
"u  c #DC9710",
"i  c #D3A304",
"p  c #D9A305",
"a  c #E3A30D",
"s  c #E9B60D",
"d  c #E8A717",
"f  c #F3B11C",
"g  c #D1A52E",
"h  c #EAAC27",
"j  c #A0814D",
"k  c #A3855B",
"l  c #9C8A7C",
"z  c #A89167",
"x  c #A6288F",
"c  c #B0288E",
"v  c #BF3394",
"b  c #A33CA0",
"n  c #D41382",
"m  c #DD158A",
"M  c #CC1D91",
"N  c #E70E88",
"B  c #EA0A88",
"V  c #F00B8F",
"C  c #E41A8C",
"Z  c #E51B94",
"A  c #FE1C9E",
"S  c #CB258A",
"D  c #DA2C87",
"F  c #C63687",
"G  c #D93086",
"H  c #DD2E91",
"J  c #C5379F",
"K  c #DC38A6",
"L  c #EC3FAA",
"P  c #FD32A8",
"I  c #A14A92",
"U  c #9E47A5",
"Y  c #9B4CAA",
"T  c #8D5AB8",
"R  c #935FBF",
"E  c #A045A6",
"W  c #AA47AF",
"Q  c #B149A9",
"!  c #AD54AD",
"~  c #AC4CB0",
"^  c #A25AB6",
"/  c #A556BD",
"(  c #B75BB3",
")  c #837FA4",
"_  c #8670B4",
"`  c #9372B9",
"'  c #D4509E",
"]  c #C96C93",
"[  c #C347AC",
"{  c #DB4CB3",
"}  c #E341A9",
"|  c #E948A8",
" . c #F64FB5",
".. c #E454B2",
"X. c #EF59B6",
"o. c #F355B2",
"O. c #D068A5",
"+. c #EE60B9",
"@. c #F261BC",
"#. c #B852C0",
"$. c #8D65C1",
"%. c #9762C4",
"&. c #9169C7",
"*. c #8A76D5",
"=. c #8A79D3",
"-. c #8B7FDE",
";. c #9779DA",
":. c #847EE5",
">. c #F85BC1",
",. c #EB66C3",
"<. c #F264C4",
"1. c #F36AC3",
"2. c #F671C0",
"3. c #F674CB",
"4. c #F379CC",
"5. c #F87BCA",
"6. c #F77ED6",
"7. c #7D88C5",
"8. c #7D8FD7",
"9. c #7C90DD",
"0. c #7E81E2",
"q. c #7A8CE7",
"w. c #7D8BEE",
"e. c #7A93EC",
"r. c #6B8CFF",
"t. c #778DF5",
"y. c #7C8CF2",
"u. c #708FFE",
"i. c #6F90FF",
"p. c #7792F4",
"a. c #7B94F4",
"s. c #7392FE",
"d. c #7A94FB",
"f. c #948785",
"g. c #8E8D9F",
"h. c #979299",
"j. c #AC8799",
"k. c #B48097",
"l. c #ADA68D",
"z. c #B0A995",
"x. c #8185AD",
"c. c #9896AB",
"v. c #8B92B5",
"b. c #9091B4",
"n. c #959BB2",
"m. c #A29AA6",
"M. c #ACAEB8",
"N. c #8187C8",
"B. c #8984DD",
"V. c #8798DB",
"C. c #93A2D8",
"Z. c #8482E2",
"A. c #818DED",
"S. c #8397E4",
"D. c #8B9CE2",
"F. c #8192F3",
"G. c #829CFB",
"H. c #90A4E7",
"J. c #F684D4",
"K. c #FA85DA",
/* pixels */
"r.r.r.r.r.r.r.r.r.r.r.r.r.r.r.r.r.r.r.r.r.r.r.r.r.r.r.r.r.r.r.r.",
"r.r.r.r.r.r.r.r.r.r.r.r.r.r.r.r.r.r.r.r.r.r.r.r.r.r.r.r.r.r.r.r.",
"r.r.r.r.r.r.r.r.r.r.r.r.r.r.r.r.r.r.r.r.r.r.r.r.r.r.r.r.r.r.r.r.",
"r.r.r.r.r.r.r.r.r.r.r.r.r.r.r.r.r.r.r.r.r.r.r.r.r.r.r.r.r.r.r.r.",
"r.r.r.r.r.r.r.r.r.r.r.r.r.r.r.i.r.r.r.r.r.r.r.r.r.r.r.r.r.r.r.r.",
"r.r.r.r.r.r.r.r.r.r.r.r.r.r.i.i.r.r.r.r.r.r.r.r.r.r.r.r.r.r.r.r.",
"r.r.r.r.r.r.r.r.r.r.i.i.i.i.d.s.i.i.i.r.r.r.r.r.r.r.r.r.r.r.r.r.",
"r.r.r.r.r.r.r.r.r.r.r.i.d.d.G.G.d.d.i.i.r.r.r.r.r.r.r.r.r.r.r.r.",
"r.r.r.r.r.r.r.r.r.r.r.r.a.D.H.H.C.V.p.r.r.r.r.r.r.r.r.r.r.r.r.r.",
"r.r.r.r.r.r.r.r.r.r.r.r.V.c.M.M.z.h.e.r.r.r.r.r.r.r.r.r.r.r.r.r.",
"r.r.r.r.r.r.r.r.r.r.r.e.g.j = = 9 j v.p.r.r.r.r.r.r.r.r.r.r.r.r.",
"r.r.r.r.r.r.r.r.r.r.a.x.z g e q t g l 9.i.r.r.r.r.r.r.r.r.r.r.r.",
"r.r.r.r.r.r.r.r.r.s.8.f.9 y d h d e 3 e.i.r.r.r.r.r.r.r.r.r.r.r.",
"r.r.r.r.r.r.r.r.r.p.v.l.* @ @ q + + 2 N.s.r.r.r.r.r.r.r.r.r.r.r.",
"r.r.r.r.r.r.r.r.i.e.n.z $ 0 + o O 0 $ 8 7.s.r.r.r.r.r.r.r.r.r.r.",
"r.r.r.r.r.r.r.r.r.e.n.k q a w u a p $ f.) 9.r.r.r.r.r.r.r.r.r.r.",
"r.r.r.r.r.r.r.r.r.a.b.3 # u d f s i & m.c.7.d.r.r.r.r.r.r.r.r.r.",
"r.r.r.r.r.r.r.r.r.u.S.f.4 - r d p @ % k.j.N.s.r.r.r.r.r.r.r.r.r.",
"r.r.r.r.r.r.r.r.r.r.p.` ] < X - @ . < 7 5 N.d.r.r.r.r.r.r.r.r.r.",
"r.r.r.r.r.r.r.r.r.r.p.B.! : 1     1 7 I _ q.i.r.r.r.r.r.r.r.r.r.",
"r.r.r.r.r.r.r.r.r.r.r.d.=., > 6 6 ; ! B.a.i.r.r.r.r.r.r.r.r.r.r.",
"r.r.r.r.r.r.r.r.r.r.r.d.;.c F O.' S ^ F.r.r.r.r.r.r.r.r.r.r.r.r.",
"r.r.r.r.r.r.r.r.r.r.u.:.#.} D G H | ( -.s.r.r.r.r.r.r.r.r.r.r.r.",
"r.r.r.r.r.r.r.r.r.r.d.%.{ 2.@.5.5.K.+.R y.r.r.r.r.r.r.r.r.r.r.r.",
"r.r.r.r.r.r.r.r.r.s.0.! 1.1.4.J.6.6.>.[ -.s.r.r.r.r.r.r.r.r.r.r.",
"r.r.r.r.r.r.r.r.r.s.*.[ 1.,.J.3.<.6.>.K %.d.r.r.r.r.r.r.r.r.r.r.",
"r.r.r.r.r.r.r.r.r.y./ ..X.L 1.X.+.6.L Z ~ A.r.r.r.r.r.r.r.r.r.r.",
"r.r.r.r.r.r.r.r.r.w.W | L m  .| o.>.m N J *.i.r.r.r.r.r.r.r.r.r.",
"r.r.r.r.r.r.r.r.r.t.T v n V P Z C A B m Q 0.s.r.r.r.r.r.r.r.r.r.",
"r.r.r.r.r.r.r.r.r.i.w.T x M Z C n Z M b *.p.r.r.r.r.r.r.r.r.r.r.",
"r.r.r.r.r.r.r.r.r.r.i.y.-.&.Y E U Y $.Z.r.r.r.r.r.r.r.r.r.r.r.r.",
"r.r.r.r.r.r.r.r.r.r.r.i.s.d.y.A.e.y.p.s.r.r.r.r.r.r.r.r.r.r.r.r."
};
