/* XPM */
static char *_11695289187[] = {
/* columns rows colors chars-per-pixel */
"32 32 192 2 ",
"   c #B02F3C",
".  c #AF5A10",
"X  c #B55A1A",
"o  c #AA630B",
"O  c #B06A09",
"+  c #A76E1D",
"@  c #B16115",
"#  c #B97910",
"$  c #9A5E2D",
"%  c #A6492F",
"&  c #BB4731",
"*  c #996A2C",
"=  c #A87025",
"-  c #B77924",
";  c #B76039",
":  c #AB7D30",
">  c #C77D0C",
",  c #C07612",
"<  c #D16E2C",
"1  c #C9663A",
"2  c #C27939",
"3  c #BA0A4C",
"4  c #B82F51",
"5  c #BA1B61",
"6  c #AC0F77",
"7  c #A71878",
"8  c #9E3475",
"9  c #A8386A",
"0  c #CD265F",
"q  c #C4096F",
"w  c #CF1566",
"e  c #D80878",
"r  c #CC1872",
"t  c #D5187C",
"y  c #E1057A",
"u  c #D32066",
"i  c #C83B63",
"p  c #D12873",
"a  c #C73F74",
"s  c #895E5D",
"d  c #A24F4F",
"f  c #BB454D",
"g  c #A85D4A",
"h  c #BF5B52",
"j  c #B26352",
"k  c #9E4F66",
"l  c #BB5F65",
"z  c #A74071",
"x  c #B45276",
"c  c #8C6E66",
"v  c #877377",
"b  c #B86D6C",
"n  c #AB7171",
"m  c #C44148",
"M  c #C95554",
"N  c #C06844",
"B  c #C5755F",
"V  c #D8795F",
"C  c #D3426D",
"Z  c #C75662",
"A  c #C64E7C",
"S  c #E14C75",
"D  c #D67666",
"F  c #BD861C",
"G  c #BA8237",
"H  c #D09017",
"J  c #D79818",
"K  c #E0A11E",
"L  c #CF972F",
"P  c #C68D34",
"I  c #E99B3A",
"U  c #D5A82D",
"Y  c #9F814F",
"T  c #BC8F4A",
"R  c #BC974E",
"E  c #AB916F",
"W  c #BA9B6A",
"Q  c #D48967",
"!  c #C6897E",
"~  c #D69D76",
"^  c #E48575",
"/  c #E69577",
"(  c #AD2A8B",
")  c #A13186",
"_  c #C81885",
"`  c #DC188C",
"'  c #CF1993",
"]  c #E80986",
"[  c #FC0C8B",
"{  c #E91285",
"}  c #F9148A",
"|  c #FA0D93",
" . c #E41993",
".. c #FB1392",
"X. c #F6129A",
"o. c #C62586",
"O. c #D82B8D",
"+. c #D72693",
"@. c #C93199",
"#. c #ED338A",
"$. c #E52995",
"%. c #E12599",
"&. c #F02F93",
"*. c #FD28A7",
"=. c #E83AA4",
"-. c #F134A4",
";. c #8E469C",
":. c #BD4289",
">. c #90618D",
",. c #937C81",
"<. c #8B7599",
"1. c #974BA7",
"2. c #9355AF",
"3. c #8A58B4",
"4. c #955AB5",
"5. c #AA49AA",
"6. c #B554A8",
"7. c #A84EB0",
"8. c #A35CB6",
"9. c #8B6DAF",
"0. c #9767AE",
"q. c #8775A1",
"w. c #8279AE",
"e. c #8A63BB",
"r. c #9261B5",
"t. c #CA5B82",
"y. c #E0558A",
"u. c #E94498",
"i. c #D46497",
"p. c #C74AAA",
"a. c #DA57AA",
"s. c #EA49A8",
"d. c #E056A9",
"f. c #F051AC",
"g. c #E147B3",
"h. c #F45EB3",
"j. c #C661B3",
"k. c #F074A7",
"l. c #E464BA",
"z. c #F766B5",
"x. c #896BC4",
"c. c #926CC9",
"v. c #8772CB",
"b. c #9578CA",
"n. c #8F7BD9",
"m. c #EF5FC5",
"M. c #F757C0",
"N. c #EA68C6",
"B. c #F36BC2",
"V. c #FA66CA",
"C. c #F876CA",
"Z. c #7F8DD4",
"A. c #6B87ED",
"S. c #7B8FEA",
"D. c #7D93E4",
"F. c #7B93ED",
"G. c #6C85F3",
"H. c #6B88F1",
"J. c #6B8CFF",
"K. c #768CF5",
"L. c #728EFA",
"P. c #7C94F5",
"I. c #7392FE",
"U. c #7A96F8",
"Y. c #7B95FA",
"T. c #8D858C",
"R. c #8D8596",
"E. c #9E9594",
"W. c #AF8E8B",
"Q. c #AB988D",
"!. c #8789A8",
"~. c #858AB8",
"^. c #AF9EA1",
"/. c #DCAD8E",
"(. c #E6A295",
"). c #E1BA9D",
"_. c #898DC5",
"`. c #8E95CD",
"'. c #828CD3",
"]. c #8482DD",
"[. c #8595D8",
"{. c #98A6DD",
"}. c #A9ABC5",
"|. c #8382E2",
" X c #878AE6",
".X c #8A89E5",
"XX c #818DED",
"oX c #8B9FE3",
"OX c #8493E8",
"+X c #8299EB",
"@X c #8294F4",
"#X c #839BF2",
/* pixels */
"J.J.J.J.J.J.J.J.J.J.J.J.J.J.J.J.J.J.J.J.J.J.J.J.J.J.J.J.J.J.J.J.",
"J.J.J.J.J.J.J.J.J.J.J.J.J.J.J.J.J.J.J.J.J.J.J.J.J.J.J.J.J.J.J.J.",
"J.J.J.J.J.J.J.J.J.J.J.J.J.J.J.J.J.J.J.J.J.J.J.J.J.J.J.J.J.J.J.J.",
"J.J.J.J.J.J.J.J.J.J.I.+X`.`.[.oX[.+XI.J.J.J.J.J.J.J.J.J.J.J.J.J.",
"J.J.J.J.J.J.J.J.J.J.Y.{.Q.^.}.}.Q.R.[.I.J.J.J.J.J.J.J.J.J.J.J.J.",
"J.J.J.J.J.J.J.J.J.U.[.E.R W Q.E : * E ~.D.I.J.J.J.J.J.J.J.J.J.J.",
"J.J.J.J.J.J.J.J.J.'.,.T U F + # H J P Y R.F.J.J.J.J.J.J.J.J.J.J.",
"J.J.J.J.J.J.J.J.I.].,.: H # . > J J K G R.F.J.J.J.J.J.J.J.J.J.J.",
"J.J.J.J.J.J.J.J.J.K._.c * . . . , O H = !.U.J.J.J.J.J.J.J.J.J.J.",
"J.J.J.J.J.J.J.J.J.J.P.~.s g g 1 X - o + T.+XI.J.J.J.J.J.J.J.J.J.",
"J.J.J.J.J.J.J.J.J.J.U._.n b B V N 2 @ # Y !.P.J.J.J.J.J.J.J.J.J.",
"J.J.J.J.J.J.J.J.J.J.S.q.! / / ^ D ; @ H L Y ~.I.J.J.J.J.J.J.J.J.",
"J.J.J.J.J.J.J.J.J.J.P.w.n Q Q M 4   & < I L v H.J.J.J.J.J.J.J.J.",
"J.J.J.J.J.J.J.J.J.J.I.OX<.d   4 3 w 0 m h : v H.J.J.J.J.J.J.J.J.",
"J.J.J.J.J.J.J.J.J.J.J.U.b.9 i u r z.z.y.f g <.G.J.J.J.J.J.J.J.J.",
"J.J.J.J.J.J.J.J.J.J.I.XX8.d.z.&.$.z.C.l.z >.'.J.J.J.J.J.J.J.J.J.",
"J.J.J.J.J.J.J.J.J.J.I. X5.N.V.-.t #.u.6.b.OXK.J.J.J.J.J.J.J.J.J.",
"J.J.J.J.J.J.J.J.J.J.L.XX2.( @.p 5 S A 0.#XI.J.J.J.J.J.J.J.J.J.J.",
"J.J.J.J.J.J.J.J.J.J.I.U.b.) :.9 b (.W.w.U.J.J.J.J.J.J.J.J.J.J.J.",
"J.J.J.J.J.J.J.J.J.J.I.@Xr.8 x ! )./.n w.Y.J.J.J.J.J.J.J.J.J.J.J.",
"J.J.J.J.J.J.J.J.J.J.P.c.6.z b ~ b j k 9.#XJ.J.J.J.J.J.J.J.J.J.J.",
"J.J.J.J.J.J.J.J.J.I..X1.a.A ! Q % M i.6.n.Y.J.J.J.J.J.J.J.J.J.J.",
"J.J.J.J.J.J.J.J.I.@Xc.p.h.a b M Z k.C.l.8.|.I.J.J.J.J.J.J.J.J.J.",
"J.J.J.J.J.J.J.J.I..X7.g.h.p 4 C k.C.l.C.j.b.Y.J.J.J.J.J.J.J.J.J.",
"J.J.J.J.J.J.J.J.K.x.6.B.s.#.#.u.C.N.=.M.g.5.|.L.J.J.J.J.J.J.J.J.",
"J.J.J.J.J.J.J.J.K.e.p.f.p } =.=.V.N.' X.X.@.c.J.J.J.J.J.J.J.J.J.",
"J.J.J.J.J.J.J.J.K.r.@.$.{ } e  .V.N.` ] | %.3.G.J.J.J.J.J.J.J.J.",
"J.J.J.J.J.J.J.J.K.0.o.q [ [ y { *.*.{ y ..$.1.A.J.J.J.J.J.J.J.J.",
"J.J.J.J.J.J.J.J.K.3.7 q } | e e X.| ] e { o.3.J.J.J.J.J.J.J.J.J.",
"J.J.J.J.J.J.J.J.L.v.;.) O.' q 6 ' +._ 6 7 1.n.J.J.J.J.J.J.J.J.J.",
"J.J.J.J.J.J.J.J.L.Y. Xx.4.4.4.3.4.4.4.2.e.].L.J.J.J.J.J.J.J.J.J.",
"J.J.J.J.J.J.J.J.J.J.I.U.@X#X@X@XP.@X@X@XP.I.J.J.J.J.J.J.J.J.J.J."
};
