/* XPM */
static char *_21695290861[] = {
/* columns rows colors chars-per-pixel */
"40 40 183 2 ",
"   c #3D3715",
".  c #423F2F",
"X  c #543825",
"o  c #665D1C",
"O  c #554D23",
"+  c #5D5627",
"@  c #494830",
"#  c #524F31",
"$  c #595333",
"%  c #665B28",
"&  c #675B39",
"*  c #726834",
"=  c #746A3A",
"-  c #4F4240",
";  c #5B4A4A",
":  c #495A46",
">  c #59574C",
",  c #575756",
"<  c #695549",
"1  c #734E5F",
"2  c #62535B",
"3  c #67595A",
"4  c #55685B",
"5  c #67634D",
"6  c #7C774A",
"7  c #69675A",
"8  c #796459",
"9  c #697B56",
"0  c #797353",
"q  c #74725D",
"w  c #7A4C62",
"e  c #6E5561",
"r  c #655C61",
"t  c #735363",
"y  c #775666",
"u  c #745D65",
"i  c #4F716D",
"p  c #6B6B6A",
"a  c #76646C",
"s  c #7B726F",
"d  c #7A7676",
"f  c #867927",
"g  c #857135",
"h  c #914D55",
"j  c #8B7B48",
"k  c #877D55",
"l  c #8E536F",
"z  c #9B556B",
"x  c #9C4E71",
"c  c #885D70",
"v  c #9F5878",
"b  c #A54F76",
"n  c #A95373",
"m  c #AD537C",
"M  c #AE587F",
"N  c #876B65",
"B  c #8E7169",
"V  c #8A6676",
"C  c #9A777C",
"Z  c #94852B",
"A  c #988B2A",
"S  c #8D8438",
"D  c #998736",
"F  c #A8972D",
"G  c #B09E2F",
"H  c #B5963A",
"J  c #BAA733",
"K  c #D3BF35",
"L  c #D7C237",
"P  c #D9C236",
"I  c #E5CE39",
"U  c #EBD23B",
"Y  c #F1D73C",
"T  c #F3D93C",
"R  c #998A53",
"E  c #A78E48",
"W  c #9A8976",
"Q  c #A08B7C",
"!  c #2E6588",
"~  c #A85F80",
"^  c #B75982",
"/  c #B45B83",
"(  c #947080",
")  c #9A7785",
"_  c #A8758B",
"`  c #AE7B90",
"'  c #B47D95",
"]  c #C55E8C",
"[  c #CE6193",
"{  c #D6649A",
"}  c #D8649A",
"|  c #E167A0",
" . c #E468A1",
".. c #3886B0",
"X. c #49809D",
"o. c #7A8D98",
"O. c #588BA8",
"+. c #6A86E9",
"@. c #6B8CFF",
"#. c #7492FE",
"$. c #7A96FB",
"%. c #7D99FE",
"&. c #8C8B8B",
"*. c #998B89",
"=. c #969495",
"-. c #9B9A9B",
";. c #A88088",
":. c #B58889",
">. c #A69587",
",. c #B89988",
"<. c #AE8497",
"1. c #B28799",
"2. c #BA849B",
"3. c #B78A9C",
"4. c #BBA493",
"5. c #9C9DA1",
"6. c #BC8EA2",
"7. c #A09EA0",
"8. c #BD90A4",
"9. c #9EA2AA",
"0. c #A4A4A3",
"q. c #A2A5AD",
"w. c #ABABAB",
"e. c #ABACB3",
"r. c #B5B3B2",
"t. c #B6B7BC",
"y. c #C0A998",
"u. c #C48EA5",
"i. c #C796A7",
"p. c #CC9AAE",
"a. c #CF9CB2",
"s. c #D29DB4",
"d. c #D3A0AC",
"f. c #D4B6A5",
"g. c #D7A3BA",
"h. c #DBA5BD",
"j. c #C0BEBD",
"k. c #E7CAB5",
"l. c #EED0BA",
"z. c #F2D4BE",
"x. c #B9BFD2",
"c. c #839FFE",
"v. c #86A1FE",
"b. c #8BA5FE",
"n. c #92AAFE",
"m. c #9DB3FD",
"M. c #A2B7FE",
"N. c #A5B9FE",
"B. c #ABBDFE",
"V. c #C1BFCA",
"C. c #E3ABC3",
"Z. c #E8AFC8",
"A. c #EEB3CC",
"S. c #F1B5CF",
"D. c #F3B6D0",
"F. c #F6B9D3",
"G. c #BFC1C9",
"H. c #BEC4DA",
"J. c #BEC8E7",
"K. c #B5C2EB",
"L. c #AFC0FE",
"P. c #B4C2F4",
"I. c #B9C6F4",
"U. c #B3C3FC",
"Y. c #BAC8FA",
"T. c #BBC9FC",
"R. c #C3C4C9",
"E. c #CAC9CB",
"W. c #C6CAD5",
"Q. c #CCD1DF",
"!. c #D7D5D7",
"~. c #E1DFDE",
"^. c #E2E0DE",
"/. c #C5CDE7",
"(. c #CDD3E6",
"). c #D3D7E7",
"_. c #C4CEF1",
"`. c #C2CEFB",
"'. c #C7D3F8",
"]. c #D8DEF7",
"[. c #EDE9E8",
"{. c #F1EEEC",
"}. c #EEEFF5",
/* pixels */
"@.@.@.@.@.@.@.@.@.@.@.@.@.@.@.@.@.@.@.@.@.@.@.@.@.@.@.@.@.@.@.@.@.@.@.@.@.@.@.@.",
"@.@.@.@.@.@.@.@.@.@.@.@.@.@.@.@.@.@.@.@.@.@.@.@.@.@.@.@.@.@.@.@.@.@.@.@.@.@.@.@.",
"@.@.@.@.@.@.@.@.@.@.@.@.@.@.@.@.@.@.@.@.@.@.@.@.@.@.@.@.@.@.@.@.@.@.@.@.@.@.@.@.",
"@.@.@.@.@.@.@.@.@.@.@.@.@.@.@.#.v.b.B.#.@.@.@.@.@.@.@.@.@.@.@.@.@.@.@.@.@.@.@.@.",
"@.@.@.@.@.@.@.@.@.@.@.@.@.@.@.I.E.t.B ).M.`.U.@.@.@.@.@.@.@.@.@.@.@.@.@.@.@.@.@.",
"@.@.@.@.@.@.@.@.@.@.@.@.@.@.#.J.& g H g Q 8 G.#.@.@.@.@.@.@.@.@.@.@.@.@.@.@.@.@.",
"@.@.@.@.@.@.@.@.@.@.@.@.@.$.T.o.* n h F D 4 H.@.@.@.@.@.@.@.@.@.@.@.@.@.@.@.@.@.",
"@.@.@.@.@.@.@.@.@.#.m.@.n.(.p # O X X o @ ! J.#.@.@.@.@.@.@.@.@.@.@.@.@.@.@.@.@.",
"@.@.@.@.@.@.@.@.@.N.0.(.e.% K T U L T T L Z W _.#.@.#.@.@.@.@.@.@.@.@.@.@.@.@.@.",
"@.@.@.@.@.@.@.@.@.U.> S Z U Y T T T T T Y T J 7 /.N._.Y.@.@.@.@.@.@.@.@.@.@.@.@.",
"@.@.@.@.@.@.@.@.@.N., U T T Y T T T T T Y T T P * q . G.#.@.@.@.@.@.@.@.@.@.@.@.",
"@.@.@.@.@.@.@.@.@.T., f T P T T T T Y I T T T Y T U 5 T.@.@.@.@.@.@.@.@.@.@.@.@.",
"@.@.@.@.@.@.@.@.@.B.q I T J K Y Y T J A Y Y T T P # R.b.@.@.@.@.@.@.@.@.@.@.@.@.",
"@.@.@.@.@.@.@.@.@.b.=.L Y F k P L D ,.= Y Y T Y U Z 5.b.@.@.@.@.@.@.@.@.@.@.@.@.",
"@.@.@.@.@.@.@.@.@.#.'.< Z 0 Q >.4.4.z.4.Z U T Y U * ).@.@.@.@.@.@.@.@.@.@.@.@.@.",
"@.@.@.@.@.@.@.@.@.@.$.G.F R @ k.^.. f.z.R A G J = R.b.@.@.@.@.@.@.@.@.@.@.@.@.@.",
"@.@.@.@.@.@.@.@.@.%.(.9.A R ,.l.z.< l.k.J D W L q }.Q.n.@.@.@.@.@.@.@.@.@.@.@.@.",
"@.@.@.@.@.@.@.@.@.%.9.o K k >.z ,.z.k.R 6 O.9 T G & p m.@.@.@.@.@.@.@.@.@.@.@.@.",
"@.@.@.@.@.@.@.@.@.@.T.&.> [.=.) f.z.y.+ : ..9 T Y A -.b.@.@.@.@.@.@.@.@.@.@.@.@.",
"@.@.@.@.@.@.@.@.@.@.m.(.V {.V @ 8 u V ; N r f U J   -.b.@.@.@.@.@.@.@.@.@.@.@.@.",
"@.@.@.@.@.@.@.@.#./.w.0.[.&.; 7 0 d.s.3.F.F.a.D T + R.$.@.@.@.@.@.@.@.@.@.@.@.@.",
"@.@.@.@.@.@.@.@.m.w.^.{.-.a C X.i :.<.C.D.D.D.N Y O ].@.@.@.@.@.@.@.@.@.@.@.@.@.",
"@.@.@.@.@.@.@.@.m.0.~.-.; ( :.4 R d.:.h.D.D.Z.B U # '.@.@.@.@.@.@.@.@.@.@.@.@.@.",
"@.@.@.@.@.@.@.@.#.J.t.Q.-.< ` ,.i.S.C.C C.8.*.j J d m.@.@.@.@.@.@.@.@.@.@.@.@.@.",
"@.@.@.@.@.@.@.@.@.@.c.#.J.$ k F.F.F.Z.N E j f.W $ G.#.@.@.@.@.@.@.@.@.@.@.@.@.@.",
"@.@.@.@.@.@.@.@.@.@.@.@.m.*.h <.` n M M z J 6 !.r.W.].b.@.@.@.@.@.@.@.@.@.@.@.@.",
"@.@.@.@.@.@.@.@.@.@.@.b.V.l ] V M [ [ [ ] z < !.{.&., (.P.@.@.@.@.@.@.@.@.@.@.@.",
"@.@.@.@.@.@.@.@.@.@.$.).w b M Z.2.M m n n m / ; r.[.E.j.7.$.@.@.@.@.@.@.@.@.@.@.",
"@.@.@.@.@.@.@.@.@.@.T.) M _ S.D.S.i.v ] M b b m 3 r.{.{.!.+.@.@.@.@.@.@.@.@.@.@.",
"@.@.@.@.@.@.@.@.@.@.'.1 3.D.D.D.S.D.C._ M M / M x p w.9.e.%.@.@.@.@.@.@.@.@.@.@.",
"@.@.@.@.@.@.@.@.@.v.q.<.S.S.D.D.D.S.A.S.S.C.s.s.h.a &.T.v.@.@.@.@.@.@.@.@.@.@.@.",
"@.@.@.@.@.@.@.@.@.U.a F.s.h.D.D.D.S.C.p.D.S.S.1.F.A.7 T.@.@.@.@.@.@.@.@.@.@.@.@.",
"@.@.@.@.@.@.@.@.#.H.) S.8.S.D.F.D.D.D.6.S.D.D.u.C.D.1.q.v.@.@.@.@.@.@.@.@.@.@.@.",
"@.@.@.@.@.@.@.@.$.9.d.S.8.F.A.D.D.D.D.8.D.D.D.A.8.D.S.s B.@.@.@.@.@.@.@.@.@.@.@.",
"@.@.@.@.@.@.@.@.m.o.g.g.a.D.F.F.D.D.S.p.C.D.D.D.8.A.S.) x.@.@.@.@.@.@.@.@.@.@.@.",
"@.@.@.@.@.@.@.@.P.C F.a.C.F.A.D.D.S.D.C.a.D.D.D.C.g.F.a.5.#.@.@.@.@.@.@.@.@.@.@.",
"@.@.@.@.@.@.@.#.W.t 2.V 2.a.g.g.C.p.8.' c 2.u.u.` V ' ' r %.@.@.@.@.@.@.@.@.@.@.",
"@.@.@.@.@.@.@.L.d } | b } [ ] ] [ ^ { | b | } } { ^ | | ^ +.@.@.@.@.@.@.@.@.@.@.",
"@.@.@.@.@.@.@.T.2 t e 2 t w w w 1 h t e 2 t t t t 2 y u t +.@.@.@.@.@.@.@.@.@.@.",
"@.@.@.@.@.@.@.v.B.U.Y.U.I.I.K.K.K.K.I.U.U.U.U.T.N.U.U.U.N.#.@.@.@.@.@.@.@.@.@.@."
};
