/* XPM */
static char *_21695289186[] = {
/* columns rows colors chars-per-pixel */
"32 32 186 2 ",
"   c #7A4D51",
".  c #9B3131",
"X  c #BC6918",
"o  c #824839",
"O  c #B75E25",
"+  c #BE4D33",
"@  c #BA612A",
"#  c #C87509",
"$  c #C17717",
"%  c #C4433E",
"&  c #CD7324",
"*  c #C67236",
"=  c #CC703B",
"-  c #D37A34",
";  c #A62F4A",
":  c #A83A43",
">  c #AB2D56",
",  c #B52754",
"<  c #9E3A6B",
"1  c #9E3B79",
"2  c #AA3568",
"3  c #AD3675",
"4  c #C2145F",
"5  c #C9205A",
"6  c #CA1C61",
"7  c #C61E69",
"8  c #D01963",
"9  c #CA087A",
"0  c #D9037D",
"q  c #CF1F74",
"w  c #C1256E",
"e  c #D72665",
"r  c #CD2878",
"t  c #D52674",
"y  c #E22E7C",
"u  c #975A4D",
"i  c #A45C47",
"p  c #A4505F",
"a  c #BF5153",
"s  c #9C6556",
"d  c #AF634C",
"f  c #A96B5A",
"g  c #B34164",
"h  c #B24C6C",
"j  c #A55567",
"k  c #97647B",
"l  c #AC646B",
"z  c #BA6A6C",
"x  c #A97466",
"c  c #A96476",
"v  c #BF7A71",
"b  c #CE5052",
"n  c #D65259",
"m  c #D57C40",
"M  c #D74466",
"N  c #C45A66",
"B  c #C06D70",
"V  c #C47A7A",
"C  c #E87669",
"Z  c #E46275",
"A  c #BC8118",
"S  c #C98A13",
"D  c #CF9C15",
"F  c #E09F0E",
"G  c #D7A80F",
"H  c #DDB81C",
"J  c #D88220",
"K  c #C59224",
"L  c #CA9838",
"P  c #D29B31",
"I  c #E39128",
"U  c #CCA030",
"Y  c #D0B138",
"T  c #AF9252",
"R  c #B69756",
"E  c #BEB140",
"W  c #B7A75C",
"Q  c #BFB552",
"!  c #A49469",
"~  c #ADA16F",
"^  c #B4A56A",
"/  c #A9A17D",
"(  c #C6A544",
")  c #C1B64C",
"_  c #DD8461",
"`  c #C58871",
"'  c #E49777",
"]  c #9C2C8A",
"[  c #9F3B93",
"{  c #A22A8B",
"}  c #B52E8E",
"|  c #A73692",
" . c #AC3A9C",
".. c #D80C88",
"X. c #DF1988",
"o. c #D42284",
"O. c #D12E89",
"+. c #D23581",
"@. c #E1398C",
"#. c #EC2497",
"$. c #EC2B92",
"%. c #F32899",
"&. c #EF379E",
"*. c #ED2EA1",
"=. c #F121A6",
"-. c #E939A5",
";. c #F432A1",
":. c #F234AB",
">. c #F73DAC",
",. c #905C8A",
"<. c #92638D",
"1. c #8E649D",
"2. c #8F56AC",
"3. c #955CB4",
"4. c #AD4EAD",
"5. c #B94AA7",
"6. c #AC55AC",
"7. c #8F64BC",
"8. c #8A78B9",
"9. c #B165B3",
"0. c #C94683",
"q. c #DD4187",
"w. c #DD4F91",
"e. c #D3709F",
"r. c #C847A4",
"t. c #DB51AA",
"y. c #C254B1",
"u. c #D258B4",
"i. c #E45AA9",
"p. c #F452AF",
"a. c #F449B0",
"s. c #F75FBD",
"d. c #DA6CAA",
"f. c #E666B9",
"g. c #936AC6",
"h. c #8A77CD",
"j. c #8C76D4",
"k. c #847AD6",
"l. c #8C7AD4",
"z. c #837CD8",
"x. c #ED6EC2",
"c. c #F765C5",
"v. c #FB74CB",
"b. c #FD72D2",
"n. c #7E88EA",
"m. c #7C96EE",
"M. c #6B8CFF",
"N. c #778FF0",
"B. c #708FFF",
"V. c #6F90FF",
"C. c #7B97F5",
"Z. c #7A95F6",
"A. c #7492FC",
"S. c #7A94FA",
"D. c #999E9E",
"F. c #AE8793",
"G. c #BE9095",
"H. c #A1A189",
"J. c #ACA396",
"K. c #989BA5",
"L. c #9398B8",
"P. c #96A1A9",
"I. c #A9A0A3",
"U. c #CB9682",
"Y. c #C09C9B",
"T. c #D0AEAA",
"R. c #D7B5AB",
"E. c #E3C1B3",
"W. c #8C86C4",
"Q. c #8A96C5",
"!. c #8D9ECD",
"~. c #9195C8",
"^. c #888DD6",
"/. c #899AD6",
"(. c #899CDD",
"). c #97A5C5",
"_. c #94A4D3",
"`. c #8584E2",
"'. c #818BEA",
"]. c #859BE5",
"[. c #8798E8",
"{. c #8393F4",
"}. c #8095F8",
"|. c #8AA0E3",
" X c #E186C4",
".X c #FA85D5",
/* pixels */
"M.M.M.M.M.M.M.M.M.M.M.M.M.M.M.M.M.M.M.M.M.M.M.M.M.M.M.M.M.M.M.M.",
"M.M.M.M.M.M.M.M.M.M.M.M.M.M.M.M.M.M.M.M.M.M.M.M.M.M.M.M.M.M.M.M.",
"M.M.M.M.M.M.M.M.M.M.M.M.M.M.M.M.M.M.M.M.M.M.M.M.M.M.M.M.M.M.M.M.",
"M.M.M.M.M.M.M.M.M.M.M.M.M.M.M.M.M.M.M.M.M.M.M.M.M.M.M.M.M.M.M.M.",
"M.M.M.M.M.M.M.M.M.M.M.M.M.M.M.B.M.M.M.M.M.M.M.M.M.M.M.M.M.M.M.M.",
"M.M.M.M.M.M.M.M.M.M.M.A.Z.m.C.C.N.C.C.m.A.V.M.M.M.M.M.M.M.M.M.M.",
"M.M.M.M.M.M.M.M.M.M.A.Z.!.P.).].^.].).P./.A.V.M.M.M.M.M.M.M.M.M.",
"M.M.M.M.M.M.M.M.M.M.A.].H.) ^ J.I.J.W Q D.|.V.M.M.M.M.M.M.M.M.M.",
"M.M.M.M.M.M.M.M.M.A.].L.W H D K L K G H ~ _.m.A.M.M.M.M.M.M.M.M.",
"M.M.M.M.M.M.M.M.M.A.Q.H.( S # - I S # D ( H./.A.M.M.M.M.M.M.M.M.",
"M.M.M.M.M.M.M.M.M.A.).T D X @ = = = O X K ! |.V.M.M.M.M.M.M.M.M.",
"M.M.M.M.M.M.M.M.M.V.|.! $ * i s ` u d * A H.[.V.M.M.M.M.M.M.M.M.",
"M.M.M.M.M.M.M.M.M.A._.R S m d f U.p z J S ~ |.A.M.M.M.M.M.M.M.M.",
"M.M.M.M.M.M.M.M.V.C.K.Y F - _ ' ' ' _ J G E L.C.M.M.M.M.M.M.M.M.",
"M.M.M.M.M.M.M.M.A.!.~ P & % n C C C b % $ U / (.M.M.M.M.M.M.M.M.",
"M.M.M.M.M.M.M.M.C.K.T * g 4 8 M Z M 5 , a * T L.A.M.M.M.M.M.M.M.",
"M.M.M.M.M.M.M.M.C.L.f N q.o.@.+.0.+.+.r +.N x ~.S.B.M.M.M.M.M.M.",
"M.M.M.M.M.M.M.M.M.[.1.0.t w w.i.t.i.w.e y 0.1.[.A.M.M.M.M.M.M.M.",
"M.M.M.M.M.M.M.M.A.{.8.1 > ; h f.f.t.g ; , 1 h.S.M.M.M.M.M.M.M.M.",
"M.M.M.M.M.M.M.M.M.B.'.,.z v j d. Xe.j v l 1.{.B.M.M.M.M.M.M.M.M.",
"M.M.M.M.M.M.M.M.M.M.{.8.G.T.l 2 3 2 c R.F.L.S.M.M.M.M.M.M.M.M.M.",
"M.M.M.M.M.M.M.M.M.M.}.W.k T.T.c 2 v R.Y.,.^.S.M.M.M.M.M.M.M.M.M.",
"M.M.M.M.M.M.M.M.M.A.{.2.< l E./   J.E.j 1 7.S.B.M.M.M.M.M.M.M.M.",
"M.M.M.M.M.M.M.M.M.C.l.5.r , V x o V B > O.4.`.S.M.M.M.M.M.M.M.M.",
"M.M.M.M.M.M.M.M.B.{.3.t.$.7 > : . : , t &.y.g.{.M.M.M.M.M.M.M.M.",
"M.M.M.M.M.M.M.M.A.j.y.s.%.#.q w e 4 t $.>.x.6.`.A.M.M.M.M.M.M.M.",
"M.M.M.M.M.M.M.M.S.g.u.s.%.:.a.#.%.%.p.;.*.s.y.j.S.M.M.M.M.M.M.M.",
"M.M.M.M.M.M.M.M.S.g.u.-...:.b.c.p.c.v.*...>.y.j.S.M.M.M.M.M.M.M.",
"M.M.M.M.M.M.M.M.S.g.r.$...=.c..X.X.Xc.%.0 %.r.h.B.M.M.M.M.M.M.M.",
"M.M.M.M.M.M.M.M.S.g.} X.9 ..:.c..Xf.-...9 X.| j.A.M.M.M.M.M.M.M.",
"M.M.M.M.M.M.M.M.B.z.2.[ ] ]  .6.9.6. .] { | 2.'.B.M.M.M.M.M.M.M.",
"M.M.M.M.M.M.M.M.M.B.n.k.k.k.k.z.z.z.z.z.k.z.'.A.M.M.M.M.M.M.M.M."
};
