/* XPM */
static char *_41695289185[] = {
/* columns rows colors chars-per-pixel */
"32 32 150 2 ",
"   c #5A2627",
".  c #5D2E2A",
"X  c #542F3D",
"o  c #59333D",
"O  c #7E2727",
"+  c #594036",
"@  c #664637",
"#  c #734C37",
"$  c #7A5039",
"%  c #503141",
"&  c #65334C",
"*  c #7E3741",
"=  c #633754",
"-  c #613C5E",
";  c #793C60",
":  c #514856",
">  c #794A4F",
",  c #7D4C56",
"<  c #65545C",
"1  c #4A466F",
"2  c #5F5364",
"3  c #4A4A74",
"4  c #584E7E",
"5  c #44527F",
"6  c #664368",
"7  c #7E4661",
"8  c #615668",
"9  c #674A70",
"0  c #625D75",
"q  c #715074",
"w  c #73537D",
"e  c #951E24",
"r  c #842D2D",
"t  c #82352E",
"y  c #882D33",
"u  c #B2202D",
"i  c #B42637",
"p  c #CA101E",
"a  c #D3101F",
"s  c #D41D2C",
"d  c #DA3836",
"f  c #814E37",
"g  c #88553B",
"h  c #A05E3D",
"j  c #813B44",
"k  c #B92C45",
"l  c #B4394E",
"z  c #8B444C",
"x  c #964B40",
"c  c #9B4F47",
"v  c #83504F",
"b  c #935647",
"n  c #824A59",
"m  c #88585D",
"M  c #B74556",
"N  c #966B56",
"B  c #AA6942",
"V  c #AE6B46",
"C  c #B86B42",
"Z  c #AC7145",
"A  c #BB764F",
"S  c #BF7A51",
"D  c #9B7364",
"F  c #A37662",
"G  c #C2495E",
"H  c #CA7B4D",
"J  c #C8466E",
"K  c #C34D77",
"L  c #E1566F",
"P  c #F85D76",
"I  c #DF647E",
"U  c #F96279",
"Y  c #CD8358",
"T  c #D8895B",
"R  c #C88A64",
"E  c #E1986A",
"W  c #EDA06F",
"Q  c #455483",
"!  c #5C5F89",
"~  c #4E5B92",
"^  c #515A94",
"/  c #505F9F",
"(  c #4F6096",
")  c #5C6192",
"_  c #616699",
"`  c #666B9B",
"'  c #5F5EA1",
"]  c #774DA8",
"[  c #5163A5",
"{  c #5E65A7",
"}  c #5C6BB5",
"|  c #5A6DBC",
" . c #636BA3",
".. c #707FB3",
"X. c #5A6EC0",
"o. c #5C73CB",
"O. c #5B75D0",
"+. c #5D78D5",
"@. c #5E7CDD",
"#. c #616FC3",
"$. c #5F7EE1",
"%. c #627EE2",
"&. c #856A8A",
"*. c #8A7DAD",
"=. c #B46EA9",
"-. c #B074B3",
";. c #F17487",
":. c #8474CC",
">. c #7582AD",
",. c #5F80E4",
"<. c #6181E7",
"1. c #6582EA",
"2. c #6686F2",
"3. c #6888F5",
"4. c #6B8CFF",
"5. c #A78687",
"6. c #9E80A6",
"7. c #A182AE",
"8. c #A8ABAD",
"9. c #D78C95",
"0. c #DC939B",
"q. c #F88396",
"w. c #D096B8",
"e. c #F795A2",
"r. c #F99FAC",
"t. c #D3BAA8",
"y. c #F8A0AD",
"u. c #F8A4B2",
"i. c #F9AAB6",
"p. c #A79EDD",
"a. c #99A7CB",
"s. c #A0ABCC",
"d. c #BCA5CB",
"f. c #A495E8",
"g. c #A8A3E2",
"h. c #D2A2C1",
"j. c #F2BAC6",
"k. c #F3C3CD",
"l. c #F6CDD2",
"z. c #F8D2D5",
"x. c #F9D3D9",
"c. c #DDD7ED",
"v. c #C9D5FA",
"b. c #E0D8ED",
"n. c #DFE5F9",
"m. c #E3E4E9",
"M. c #F7E2E5",
"N. c #F6E7ED",
"B. c #F5EEF2",
"V. c #FBFBFB",
/* pixels */
"4.4.4.4.4.4.4.4.4.4.4.4.4.4.4.4.4.4.4.4.4.4.4.4.4.4.4.4.4.4.4.4.",
"4.4.4.4.4.4.4.4.4.4.4.4.4.4.4.4.4.4.4.4.4.4.4.4.4.4.4.4.4.4.4.4.",
"4.4.4.4.4.4.4.4.4.4.4.4.4.4.4.4.4.4.4.4.4.4.4.4.4.4.4.4.4.4.4.4.",
"4.4.4.4.4.4.4.4.4.4.4.4.4.4.4.4.4.4.4.4.4.4.4.4.4.4.4.4.4.4.4.4.",
"4.4.4.4.4.4.4.4.4.4.4.4.4.4.4.4.4.4.4.4.4.4.4.4.4.4.4.4.4.4.4.4.",
"4.4.4.4.4.4.4.4.4.4.4.4.4.4.4.4.4.4.4.4.4.4.4.4.4.4.4.4.4.4.4.4.",
"4.4.4.4.4.4.4.4.4.4.4.4.4.4.4.4.4.4.4.4.4.4.4.4.4.4.4.4.4.4.4.4.",
"4.4.4.4.4.4.4.4.4.4.4.4.4.4.4.4.4.4.4.4.4.4.4.4.4.4.4.4.4.4.4.4.",
"4.4.4.4.4.4.4.4.4.4.4.4.4.4.4.4.4.4.4.4.4.4.4.4.4.4.4.4.4.4.4.4.",
"4.4.4.4.4.4.4.4.4.4.4.4.4.4.4.4.4.4.4.4.4.4.4.4.4.4.4.4.4.4.4.4.",
"4.4.4.4.4.4.4.4.4.4.4.4.4.4.4.4.4.4.4.4.4.4.4.4.4.4.4.4.4.4.4.4.",
"4.4.4.4.4.4.4.4.4.4.4.4.1.| ~ ~ ( ^ | 2.4.4.4.4.4.4.4.4.4.4.4.4.",
"4.4.4.4.4.4.4.4.4.4.4.| 4 n 5.8.8.F 7 ^ o.3.4.4.4.4.4.4.4.4.4.4.",
"4.4.4.4.4.4.4.4.4.3.X.; M 0.z.M.M.l.9.l ; #.4.4.4.4.4.4.4.4.4.4.",
"4.4.4.4.4.4.4.4.4.+.6 G r.x.r.q.q.u.x.e.M 6 @.4.4.4.4.4.4.4.4.4.",
"4.4.4.4.4.4.4.4.3.{ q h.N.i.U P P U j.N.d.9 } 4.4.4.4.4.4.4.4.4.",
"4.4.4.4.4.4.4.4.%.= k 8.N.y.U U U U i.B.w.k - ,.4.4.4.4.4.4.4.4.",
"4.4.4.4.4.4.4.4.$.& a ;.b.k.I U P ;.k.c.L p = $.4.4.4.4.4.4.4.4.",
"4.4.4.4.4.4.4.4.$.& d -.f.6.m z z m 7.f.=.k - ,.4.4.4.4.4.4.4.4.",
"4.4.4.4.4.4.4.4.%.' w :.] v @ g b @ , ] :.w { 3.4.4.4.4.4.4.4.4.",
"4.4.4.4.4.4.4.4.4.%.X.1 , Y N R R N Y > 3 | 3.4.4.4.4.4.4.4.4.4.",
"4.4.4.4.4.4.4.4.4.4.%.^ $ T E W W E T @ ( 3.4.4.4.4.4.4.4.4.4.4.",
"4.4.4.4.4.4.4.4.4.4.%.) + g V V B B $ + ) 2.4.4.4.4.4.4.4.4.4.4.",
"4.4.4.4.4.4.4.4.4.%.` D f   . # # .   g N  .1.4.4.4.4.4.4.4.4.4.",
"4.4.4.4.4.4.4.4.2.) F S g u O A Z O i x S D { 2.4.4.4.4.4.4.4.4.",
"4.4.4.4.4.4.4.4.+.< Y h y s r V B r s t B H 8 ,.4.4.4.4.4.4.4.4.",
"4.4.4.4.4.4.4.4.,.8 C h o j 5.t.t.5.* % h C 0 <.4.4.4.4.4.4.4.4.",
"4.4.4.4.4.4.4.4.3.} 2 0 ..s.N.V.V.m.a.>.8 2 X.3.4.4.4.4.4.4.4.4.",
"4.4.4.4.4.4.4.4.4.4.O.! &.g.v.n.n.v.p.` ) +.4.4.4.4.4.4.4.4.4.4.",
"4.4.4.4.4.4.4.4.4.1._ c d K *...>.*.J d b  .2.4.4.4.4.4.4.4.4.4.",
"4.4.4.4.4.4.4.4.4.o.: t e e % Q 5 X e e t : +.4.4.4.4.4.4.4.4.4.",
"4.4.4.4.4.4.4.4.4.<.[ ^ ^ ^ / %.+.^ ^ ^ ( [ 1.4.4.4.4.4.4.4.4.4."
};
