/* XPM */
static char *_41695290861[] = {
/* columns rows colors chars-per-pixel */
"40 40 140 2 ",
"   c #1A090B",
".  c #0B101A",
"X  c #11151A",
"o  c #191B1F",
"O  c #2D0C0D",
"+  c #300B0D",
"@  c #3F0E13",
"#  c #2D121A",
"$  c #3D1116",
"%  c #3D1718",
"&  c #331B1B",
"*  c #3B1B1C",
"=  c #251522",
"-  c #1B2231",
";  c #2D2B2B",
":  c #232035",
">  c #292739",
",  c #272C38",
"<  c #2E3031",
"1  c #2C303E",
"2  c #333435",
"3  c #3A3630",
"4  c #353739",
"5  c #3D3D3D",
"6  c #470C0E",
"7  c #4D0D0F",
"8  c #500D0F",
"9  c #4C0F10",
"0  c #520E10",
"q  c #461214",
"w  c #4A1515",
"e  c #431718",
"r  c #441818",
"t  c #531215",
"y  c #5C1214",
"u  c #641115",
"i  c #6C1215",
"p  c #711114",
"a  c #7E1216",
"s  c #473737",
"d  c #4C3833",
"f  c #423F3E",
"g  c #44403C",
"h  c #524039",
"j  c #292742",
"k  c #252B45",
"l  c #2B3041",
"z  c #273054",
"x  c #293054",
"c  c #2A355C",
"v  c #293760",
"b  c #303F71",
"n  c #324276",
"m  c #34457C",
"M  c #4E4942",
"N  c #4A4848",
"B  c #504444",
"V  c #544C45",
"C  c #524E4F",
"Z  c #5A534A",
"A  c #535050",
"S  c #5A5C5C",
"D  c #665C52",
"F  c #6C6258",
"G  c #76675C",
"H  c #636263",
"J  c #6D6D6D",
"K  c #776C60",
"L  c #7C6D62",
"P  c #7C7065",
"I  c #717070",
"U  c #7A7B7B",
"Y  c #831417",
"T  c #8B1417",
"R  c #8A1518",
"E  c #971418",
"W  c #9B1519",
"Q  c #A4161A",
"!  c #A9161A",
"~  c #B6181D",
"^  c #BA191D",
"/  c #C4191E",
"(  c #CC1A1E",
")  c #D11B1F",
"_  c #D71B20",
"`  c #DC1C21",
"'  c #E51D22",
"]  c #EC1E23",
"[  c #857B6F",
"{  c #8E8073",
"}  c #8B867E",
"|  c #958778",
" . c #9C8D7E",
".. c #374881",
"X. c #384B86",
"o. c #3B4D8C",
"O. c #3E5293",
"+. c #445AA3",
"@. c #465DA8",
"#. c #4B63B4",
"$. c #4F68BC",
"%. c #536CC4",
"&. c #546EC9",
"*. c #5772D0",
"=. c #5975D5",
"-. c #5C79DC",
";. c #607EE5",
":. c #6281EA",
">. c #6686F4",
",. c #6B8CFF",
"<. c #848585",
"1. c #8D8C8C",
"2. c #938E88",
"3. c #909192",
"4. c #9E9F9F",
"5. c #A39382",
"6. c #AE9D8C",
"7. c #BBA997",
"8. c #B6A99C",
"9. c gray65",
"0. c #ACACAC",
"q. c #B4B5B5",
"w. c #C1AD9A",
"e. c #C6B19D",
"r. c #CEB8A4",
"t. c #D9C2AD",
"y. c #DEC6B0",
"u. c #E8CFB8",
"i. c #EED4BC",
"p. c #F2D7BF",
"a. c #C1C1C1",
"s. c #CDCDCD",
"d. c #D6D7D7",
"f. c #DDDDDD",
"g. c #F5DAC2",
"h. c #FADEC5",
"j. c #FDE0C7",
"k. c gray92",
"l. c #F3F3F3",
"z. c #FEFEFE",
/* pixels */
",.,.,.,.,.,.,.,.,.,.,.,.,.,.,.,.,.,.,.,.,.,.,.,.,.,.,.,.,.,.,.,.,.,.,.,.,.,.,.,.",
",.,.,.,.,.,.,.,.,.,.,.,.,.,.,.,.,.,.,.,.,.,.,.,.,.,.,.,.,.,.,.,.,.,.,.,.,.,.,.,.",
",.,.,.,.,.,.,.,.,.,.,.,.,.,.,.,.,.,.,.,.,.,.,.,.,.,.,.,.,.,.,.,.,.,.,.,.,.,.,.,.",
",.,.,.,.,.,.,.,.,.,.,.,.,.,.,.,.,.,.,.,.,.,.,.,.,.,.,.,.,.,.,.,.,.,.,.,.,.,.,.,.",
",.,.,.,.,.,.,.,.,.,.,.,.,.,.,.,.,.,.,.,.,.,.,.,.,.,.,.,.,.,.,.,.,.,.,.,.,.,.,.,.",
",.,.,.,.,.,.,.,.,.,.,.,.,.,.,.,.,.,.,.,.,.,.,.,.,.,.,.,.,.,.,.,.,.,.,.,.,.,.,.,.",
",.,.,.,.,.,.,.,.,.,.,.,.,.,.,.,.,.,.,.,.,.,.,.,.,.,.,.,.,.,.,.,.,.,.,.,.,.,.,.,.",
",.,.,.,.,.,.,.,.,.,.,.,.,.,.,.,.,.,.,.,.,.,.,.,.,.,.,.,.,.,.,.,.,.,.,.,.,.,.,.,.",
",.,.,.,.,.,.,.,.,.,.,.,.,.,.,.,.,.,.,.,.,.,.,.,.,.,.,.,.,.,.,.,.,.,.,.,.,.,.,.,.",
",.,.,.,.,.,.,.,.,.,.,.,.,.,.,.,.,.,.,.,.,.,.,.,.,.,.,.,.,.,.,.,.,.,.,.,.,.,.,.,.",
",.,.,.,.,.,.,.,.,.,.,.,.,.,.,.,.,.,.,.,.,.,.,.,.,.,.,.,.,.,.,.,.,.,.,.,.,.,.,.,.",
",.,.,.,.,.,.,.,.,.,.,.,.,.,.,.,.,.,.,.,.,.,.,.,.,.,.,.,.,.,.,.,.,.,.,.,.,.,.,.,.",
",.,.,.,.,.,.,.,.,.,.,.,.,.,.,.,.,.,.,.,.,.,.,.,.,.,.,.,.,.,.,.,.,.,.,.,.,.,.,.,.",
",.,.,.,.,.,.,.,.,.,.,.,.,.,.,.,.,.,.,.,.,.,.,.,.,.,.,.,.,.,.,.,.,.,.,.,.,.,.,.,.",
",.,.,.,.,.,.,.,.,.,.,.,.,.,.,.,.,.,.,.,.,.,.,.,.,.,.,.,.,.,.,.,.,.,.,.,.,.,.,.,.",
",.,.,.,.,.,.,.,.,.,.,.,.,.,.,.,.,.,.,.,.,.,.,.,.,.,.,.,.,.,.,.,.,.,.,.,.,.,.,.,.",
",.,.,.,.,.,.,.,.,.,.,.,.,.,.,.,.,.,.,.,.,.,.,.,.,.,.,.,.,.,.,.,.,.,.,.,.,.,.,.,.",
",.,.,.,.,.,.,.,.,.,.,.,.,.,.&.m x l > j c o.=.,.,.,.,.,.,.,.,.,.,.,.,.,.,.,.,.,.",
",.,.,.,.,.,.,.,.,.,.,.,.#.j q a p 7 w 0 p a $ z %.,.,.,.,.,.,.,.,.,.,.,.,.,.,.,.",
",.,.,.,.,.,.,.,.,.,.>.b $ ~ / $ H q.s.0.C 9 ) Q # o.>.,.,.,.,.,.,.,.,.,.,.,.,.,.",
",.,.,.,.,.,.,.,.,.>.v u ` _ % 9.l.z.z.z.l.1.t ' ) t m ,.,.,.,.,.,.,.,.,.,.,.,.,.",
",.,.,.,.,.,.,.,.,...u ' ] Y 1.z.z.z.z.z.z.z.S E ] ` @ +.,.,.,.,.,.,.,.,.,.,.,.,.",
",.,.,.,.,.,.,.,.*.X Y ] ] * f.z.z.z.z.z.z.z.a.6 ] ] 8 - ;.,.,.,.,.,.,.,.,.,.,.,.",
",.,.,.,.,.,.,.,.v U e ] ' ; l.z.z.z.z.z.z.z.l.O ] ) & <.O.,.,.,.,.,.,.,.,.,.,.,.",
",.,.,.,.,.,.,.:., k.; ] ' ; l.z.z.z.z.z.z.z.l.+ ] / A d.k ,.,.,.,.,.,.,.,.,.,.,.",
",.,.,.,.,.,.,.%.H z.2 ) ] e d.z.z.z.z.z.z.z.q.8 ] ^ H l.4 :.,.,.,.,.,.,.,.,.,.,.",
",.,.,.,.,.,.,.+.3.l.; ] ] T I l.z.z.z.z.z.l.N ! ] / A z.S &.,.,.,.,.,.,.,.,.,.,.",
",.,.,.,.,.,.,.o.0.s.r ] ] ' w <.l.z.z.z.k.J i ' ] ` & k.U #.,.,.,.,.,.,.,.,.,.,.",
",.,.,.,.,.,.,.X.0.H W ] ] ] _ u B 1.4.<.s p ` ] ] ] p U U #.,.,.,.,.,.,.,.,.,.,.",
",.,.,.,.,.,.,.O.5 y ` ] ] ] ] ' ^ T a T / ' ] ] ] ] ) r < $.,.,.,.,.,.,.,.,.,.,.",
",.,.,.,.,.,.,.#.+ ` ] ] ] ] ` ^ W Y Y T W / ' ] ] ] ] (   -.,.,.,.,.,.,.,.,.,.,.",
",.,.,.,.,.,.,.;.= ` ] ] ` R r h L |  .{ G d w W ] ] ] / : ,.,.,.,.,.,.,.,.,.,.,.",
",.,.,.,.,.,.,.,.m i ' ( w D r.p.j.j.j.j.g.p.7.V y ) ' t @.,.,.,.,.,.,.,.,.,.,.,.",
",.,.,.,.,.,.,.,.:.x i q  .j.j.8.8.j.j.j.8.6.j.g.P 9 y n >.,.,.,.,.,.,.,.,.,.,.,.",
",.,.,.,.,.,.,.,.,.>.n o y.j.j.} [ j.j.j.2.F j.j.w.. o.>.,.,.,.,.,.,.,.,.,.,.,.,.",
",.,.,.,.,.,.,.,.,.,.,.c e.j.j.h F j.j.j.3 F j.j.| n ,.,.,.,.,.,.,.,.,.,.,.,.,.,.",
",.,.,.,.,.,.,.,.,.,.,.O.{ j.j.{ 5.j.j.j.K  .j.j.Z #.,.,.,.,.,.,.,.,.,.,.,.,.,.,.",
",.,.,.,.,.,.,.,.,.,.,.-.4 i.j.j.j.j.j.j.p.j.j.t., >.,.,.,.,.,.,.,.,.,.,.,.,.,.,.",
",.,.,.,.,.,.,.,.,.,.,.,.m g 7.u.h.j.j.j.g.u.6.< @.,.,.,.,.,.,.,.,.,.,.,.,.,.,.,.",
",.,.,.,.,.,.,.,.,.,.,.,.,.#.c 1 g M V M f 1 n %.,.,.,.,.,.,.,.,.,.,.,.,.,.,.,.,."
};
