/* XPM */
static char *_1695233514[] = {
/* columns rows colors chars-per-pixel */
"32 32 76 1 ",
"  c #1F0D0B",
". c #150E12",
"X c #1A1113",
"o c #25110D",
"O c #2A130F",
"+ c #241516",
"@ c #2A1310",
"# c #2C191B",
"$ c #321611",
"% c #371813",
"& c #3D1B14",
"* c #341B1A",
"= c #3B1F20",
"- c #26273F",
"; c #451E17",
": c #431E18",
"> c #481F18",
", c #41201C",
"< c #4E221A",
"1 c #55251D",
"2 c #59271E",
"3 c #5D281F",
"4 c #5E2920",
"5 c #612A21",
"6 c #6B2F24",
"7 c #6B3024",
"8 c #713125",
"9 c #7A3529",
"0 c #2C2941",
"q c #372D44",
"w c #3E3046",
"e c #36304A",
"r c #2D365F",
"t c #413147",
"y c #533D56",
"u c #36457B",
"i c #7B4957",
"p c #6A5A5C",
"a c #7D5F5C",
"s c #756C7C",
"d c #82372A",
"f c #83392B",
"g c #893C2D",
"h c #923F30",
"j c #974132",
"k c #9A4233",
"l c #A44636",
"z c #A74836",
"x c #AA4937",
"c c #A74938",
"v c #AB4938",
"b c #B64E3C",
"n c #B84F3C",
"m c #B9503C",
"M c #C4533F",
"N c #83625E",
"B c #8E5668",
"V c #956963",
"C c #A06E67",
"Z c #AE736B",
"A c #BA796F",
"S c #C65541",
"D c #CE5842",
"F c #D55B44",
"G c #DA5C46",
"H c #DF5F48",
"J c #E05F48",
"K c #E46149",
"L c #EE654C",
"P c #F0664D",
"I c #C57B71",
"U c #CF7F74",
"Y c #E0877A",
"T c #E68A7C",
"R c #E88A7D",
"E c #98698E",
/* pixels */
"swyEytq0wwtttttttttttt-0tttttteu",
"IMFLFSk&bMSSSSMMSSSSMM18MSSSSSv,",
"TPPPPPm<GPPPPPPPPPPPLL5gLPPPPPPj",
"RLPPPPm<GG9MPKGKFPK8FL3gLPPPPPPv",
"RPPPPPm<GH7MPc129LH6ML5gLPPPPPPx",
"RPPPPPm<FPKLPKkjFLLKLL5gLLPPPPPx",
"TLLLLPm<FPPPPPPPLLLPLL3gLLLPLLLx",
"Avvvvvg*kxxxxxvvxxvvvx:3zxvvvvx9",
"a<+%<<>>>1><<1$@<<<<<<;;<<> ;<<%",
"YF1kKKJKKJJJKK95MJJJJKKJKKM%nJJl",
"RJ2xPPPPPPPPPPj5PPPPPPPPLPD&MPLx",
"RJ2xPPPLPPPPPP96LPPPPPPPLPD:MPPv",
"RJ2xLPPPPPPPPPg6LPLPPPPPPPM;MPPv",
"RJ2xPPPPPPPPPPg6LLPPPPPPPPM;MPPv",
"RJ2xLLPLPPPPPPg6KPLLPPPPPPM;MLPv",
"C9$3fddddddddd<&dddddddddg8o6dd3",
"V878874@68888877888888$;8888888<",
"TLPPLPn<FLPLLPLLLLLPPL5gJLPPLLLx",
"RPPPPPm<GPPPPPPPPPPPPJ3gPPPPPPPx",
"RPPPPPm<GLPPPPPPPPPPPL5gLPPPPPPx",
"RPPPPPm<GLPPPPPPPPPPPP5gLPPPPPPx",
"RPPPLLn<GPPPPLPPPPPPPL5gLPPLPPPx",
"YLKLLLb<DLLLLLLLLLJJLJ3dJLLLPJJx",
"N<<411:o<11111<<<22211O&111<111;",
"Zh*6jhjjjjjjjj2,hjjjjjjjhhdOdhh8",
"RH1cPPPPLPPLPPg7KLPLPPLLPPM;MLLx",
"RH4cPPPPPPPPPPg7LLPPPPPPPPM;MPPx",
"RH4lPPPPPPPPPPg7KPPPLPPPPPG;MPPx",
"RH2xPPPPPPPPPPg7LPPPPLPPPPD&MPPv",
"RH2xPPPPPPPPPPg6KPPPPPPPPPD&MPPl",
"UM<jGFFFFFFFFG93DFFFFFKLGFb%vFn<",
"p#X+**%*******+X******iB=*#.$*#r"
};
