/* XPM */
static char *wall1695234102[] = {
/* columns rows colors chars-per-pixel */
"32 32 255 2 ",
"   c #827C85",
".  c #4F4755",
"X  c #65596A",
"o  c #9D889D",
"O  c #615666",
"+  c #504857",
"@  c #494353",
"#  c #3B394D",
"$  c #4C4555",
"%  c #4F4857",
"&  c #4F4756",
"*  c #3D3B4F",
"=  c #433F51",
"-  c #4F4856",
";  c #504856",
":  c #484459",
">  c #465185",
",  c #D3A582",
"<  c #C98A5B",
"1  c #D69462",
"2  c #E9A16B",
"3  c #D69562",
"4  c #CD8E5E",
"5  c #A6744D",
"6  c #583F2C",
"7  c #BB8257",
"8  c #CC8D5E",
"9  c #CB8D5E",
"0  c #C98C5C",
"q  c #634631",
"w  c #835C3F",
"e  c #CA8C5D",
"r  c #B17B53",
"t  c #583F30",
"y  c #EDB88F",
"u  c #EFA56C",
"i  c #F0A56C",
"p  c #F1A66C",
"a  c #C28658",
"s  c #644631",
"d  c #DC9763",
"f  c #EDA36B",
"g  c #EEA46B",
"h  c #EFA46B",
"j  c #EDA36A",
"k  c #704F36",
"l  c #986A47",
"z  c #F0A66C",
"x  c #A3724C",
"c  c #EEB990",
"v  c #EEA56C",
"b  c #C18558",
"n  c #DC9864",
"m  c #E09B65",
"M  c #895F41",
"N  c #CC8D5D",
"B  c #E19B66",
"V  c #DB9763",
"C  c #DA9663",
"Z  c #E39C66",
"A  c #825B3E",
"S  c #D59360",
"D  c #ECA36A",
"F  c #976946",
"G  c #EEA46C",
"H  c #B37C52",
"J  c #EEB890",
"K  c #DE9A64",
"L  c #7F593D",
"P  c #CA8B5C",
"I  c #F3A86D",
"U  c #B07A51",
"Y  c #654731",
"T  c #6A4A33",
"R  c #885F40",
"E  c #EBA26A",
"W  c #79553A",
"Q  c #D2915F",
"!  c #EDA46B",
"~  c #E39D67",
"^  c #EBA269",
"/  c #E19B65",
"(  c #AB774F",
")  c #9D6D49",
"_  c #E29C66",
"`  c #EDB890",
"'  c #C18557",
"]  c #634530",
"[  c #DA9763",
"{  c #F1A66D",
"}  c #F2A76D",
"|  c #EEA56B",
" . c #704E36",
".. c #B27B52",
"X. c #C59E81",
"o. c #B37C53",
"O. c #B27C53",
"+. c #B37D53",
"@. c #916644",
"#. c #4F3828",
"$. c #A4724C",
"%. c #583E2C",
"&. c #735138",
"*. c #B17B51",
"=. c #B27C52",
"-. c #8B776B",
";. c #5B412E",
":. c #3C2B20",
">. c #4E3728",
",. c #5F432F",
"<. c #5E432F",
"1. c #5C422E",
"2. c #593F2D",
"3. c #5E422F",
"4. c #473325",
"5. c #412F22",
"6. c #5C412E",
"7. c #5A3F2D",
"8. c #5B412D",
"9. c #5E432E",
"0. c #573D2B",
"q. c #35271D",
"w. c #553C2B",
"e. c #4C3627",
"r. c #E7B48E",
"t. c #D79562",
"y. c #664832",
"u. c #A8754E",
"i. c #E49E67",
"p. c #E49D67",
"a. c #E69F68",
"s. c #916544",
"d. c #795439",
"f. c #C88B5B",
"g. c #C18659",
"h. c #E39D66",
"j. c #AB764F",
"k. c #EFB991",
"l. c #6B4B34",
"z. c #B17B52",
"x. c #976947",
"c. c #7E593B",
"v. c #E7A069",
"b. c #D3925F",
"n. c #513A29",
"m. c #EFB990",
"M. c #E79F68",
"N. c #513929",
"B. c #CB8D5D",
"V. c #E19C66",
"C. c #6A4B34",
"Z. c #EFA56B",
"A. c #7D583B",
"S. c #CB8C5C",
"D. c #AD8E77",
"F. c #4A3526",
"G. c #6F4E36",
"H. c #906443",
"J. c #8F6443",
"K. c #8E6343",
"L. c #8D6242",
"P. c #624530",
"I. c #543C2A",
"U. c #8B6141",
"Y. c #8D6342",
"T. c #805A3D",
"R. c #3D2C21",
"E. c #7D573C",
"W. c #8F6343",
"Q. c #A38774",
"!. c #815B3E",
"~. c #7D583C",
"^. c #815A3D",
"/. c #815A3E",
"(. c #6D4C35",
"). c #433023",
"_. c #785439",
"`. c #7F593C",
"'. c #7E583C",
"]. c #80593D",
"[. c #493426",
"{. c #5A402D",
"}. c #654732",
"|. c #EDB990",
" X c #C08557",
".X c #EAB68F",
"XX c #EAA16A",
"oX c #BC8356",
"OX c #614430",
"+X c #D69461",
"@X c #6E4D35",
"#X c #946745",
"$X c #E9A169",
"%X c #AF7A51",
"&X c #927C6D",
"*X c #694A34",
"=X c #684933",
"-X c #694933",
";X c #644731",
":X c #674932",
">X c #4D3727",
",X c #674933",
"<X c #674833",
"1X c #543B2A",
"2X c #BA977D",
"3X c #9B6C48",
"4X c #7C563B",
"5X c #A3714C",
"6X c #A2714B",
"7X c #6B4C34",
"8X c #9E6E49",
"9X c #3F2D22",
"0X c #8C6242",
"qX c #A2704B",
"wX c #7D573B",
"eX c #CB8C5D",
"rX c #EEB98F",
"tX c #976A47",
"yX c #E7A068",
"uX c #A7744E",
"iX c #DBAB85",
"pX c #CA8B5B",
"aX c #A0704A",
"sX c #D89662",
"dX c #8A6041",
"fX c #745137",
"gX c #D1905F",
"hX c #E59F68",
"jX c #E9A16A",
"kX c #D99663",
"lX c #D89562",
"zX c #BE8457",
"xX c #4B3627",
"cX c #B88055",
"vX c #BE8358",
"bX c #5F4431",
"nX c #7C6F69",
"mX c #46352D",
"MX c #312724",
"NX c #3D2F29",
"BX c #49372E",
"VX c #49362E",
"CX c #392C27",
"ZX c #352925",
"AX c #48352E",
"SX c #47352D",
"DX c #866B6B",
"FX c #967A7B",
"GX c #4E3C33",
"HX c #43332C",
"JX c #2C2423",
"KX c #42332B",
"LX c #413432",
"PX c #40456A",
"IX c white",
/* pixels */
"  . X o O + @ # $ + % % % % % % % % % % + & * = - % % % % ; : > ",
", < 1 2 3 4 5 6 7 8 9 9 8 8 8 8 8 9 9 9 8 0 q w e 8 8 8 8 9 r t ",
"y u u u i p a s d i f g u u i i u u h j h j k l f z i i i u u x ",
"c v u u u i b q n m M N p B V m C g Z A S D k F D u u u u u G H ",
"J v u u u i b q n K L P I U Y T R E B W Q D k F D u u u u u G H ",
"c v u u u i b q V ! ~ ^ u / ( ) S g f _ D D k F D u u u u u G H ",
"` ! g g g u ' ] [ g g ! ! g { } | ! ! g g E  .F E g g g g g ! ..",
"X.o.o.o.O.+.@.#.$.+.O.O.O.O.o.o.O.O.O.O.o.U %.&.*.O.O.o.o.O.=.R ",
"-.;.:.>.,.<.1.2.3.<.<.<.<.,.4.5.6.<.<.<.<.<.7.8.9.,.0.q.w.9.9.e.",
"r.t.y.u.i.p.p.p.p.p.p.p.p.a.s.d.n p.p.p.p.p.p.p.p.p.f.>.g.~ h.j.",
"k._ l.z.i u u u u u u u u } x.c.v.i u u u u u u u z b.n.N u v H ",
"m._ l.*.u u u u u u u u u } x.c.M.u u u u u u u u i Q N.N u G H ",
"m._ l.*.u u u u u u u u u } x.c.M.u u u u u u u u i Q N.B.u G H ",
"m._ l.*.u u u u u u u u u } x.c.M.u u u u u u u u i Q N.B.u G H ",
"c V.C.U Z.g g g g g g g g p F A.a.| g g g g g g g Z.Q N.S.g ! ..",
"D.M F.G.H.J.K.L.J.J.J.J.J.s.P.I.U.J.J.J.J.J.Y.K.J.J.T.R.E.W.J.G.",
"Q.!.~.L ^./.(.)._.^.^.^.^.^.`.'.^.^.^.^.^.].[.{.].^.T.E.T.^.^.}.",
"|.G G g g u  X] [ G g g g g G G g g g g g E k F E G g G g g ! ..",
"J v u u u i b q V u u u u u u u u u u u u D k F D u u u u u G H ",
"J v u u u i b q V u u u u u u u u u u u u D k F D u u u u u G H ",
"J v u u u i b q V u u u u u u u u u u u u D k F D u u u u u G H ",
"c u u u u i b q V u u u u u u u u u u u u D k F D u u u u u v H ",
".XXXXXXXXXE oXOX+XXXXXXXXXXXXXXXXXXXXXXXXXM.@X#XM.XXXXXXXXXX$X%X",
"&X*Xs y.=X-X7.:.P.=X=X=X=X=X}.;X=X=X=X=X=X:X5.>X,X=X=Xq <X=X=X1X",
"2X3X#.4X5X6X6X6X6X6X6X6X6X$.7X8.8X6X6X6X6X6X6X6X6X5Xs.9X0X6XqXwX",
"c B C.U Z.g g g g g g g g p F c.a.g g g g g g g g Z.Q N.eXg ! =.",
"m._ l.*.u u u u u u u u u } x.c.M.u u u u u u u u i Q N.N u G H ",
"m._ l.*.u u u u u u u u u } x.c.M.u u u u u u u u i Q N.B.u G H ",
"k._ l.*.u u u u u u u u u } x.c.M.u u u u u u u u i Q N.N u G H ",
"rX_ l.*.i u u u u u u u u } tXc.yXi u u u u u u u z b.N.N Z.u uX",
"iXpXP.aXsXt.t.t.t.t.t.t.t.[ dXfXgXt.t.t.t.sXhXjXkXlXzXxXcXt.vXbX",
"nXmXMXNXBXVXVXVXVXVXVXVXVXBXCXZXAXVXVXVXVXSXDXFXGXVXHXJXKXBXLXPX"
};
