/* XPM */
static char *visuel_so_long__4_1695291957[] = {
/* columns rows colors chars-per-pixel */
"40 40 124 2 ",
"   c #1F1815",
".  c #201914",
"X  c #201815",
"o  c #221916",
"O  c #241B16",
"+  c #261D17",
"@  c #221A18",
"#  c #231C18",
"$  c #291E18",
"%  c #2B1F19",
"&  c #2C211A",
"*  c #2E221A",
"=  c #36271D",
"-  c #36271E",
";  c #3A2A1F",
":  c #3D2C21",
">  c #3E2D22",
",  c #402E22",
"<  c #433023",
"1  c #433125",
"2  c #443124",
"3  c #473327",
"4  c #483222",
"5  c #4A3426",
"6  c #4A3627",
"7  c #4F392A",
"8  c #523926",
"9  c #543A27",
"0  c #503929",
"q  c #523A29",
"w  c #553B2A",
"e  c #563D2D",
"r  c #563E2D",
"t  c #583E2C",
"y  c #5A3F2D",
"u  c #583F2E",
"i  c #5A402D",
"p  c #5F432E",
"a  c #60422B",
"s  c #69472D",
"d  c #624530",
"f  c #634731",
"g  c #644731",
"h  c #6C4C35",
"j  c #6D4C35",
"k  c #6E4D35",
"l  c #704E36",
"z  c #715037",
"x  c #785133",
"c  c #785439",
"v  c #7A563A",
"b  c #7D573B",
"n  c #7D583C",
"m  c #7F593D",
"M  c #343651",
"N  c #373852",
"B  c #353955",
"V  c #454258",
"C  c #494459",
"Z  c #4E4759",
"A  c #4C475B",
"S  c #4F495C",
"D  c #5E5358",
"F  c #72626E",
"G  c #746470",
"H  c #865937",
"J  c #845D42",
"K  c #8B6141",
"L  c #8A6142",
"P  c #8E6342",
"I  c #8B6244",
"U  c #956845",
"Y  c #9E6E4A",
"T  c #9F6F4A",
"R  c #A06F4A",
"E  c #A1704A",
"W  c #A1714B",
"Q  c #A3724B",
"!  c #A9764E",
"~  c #AE7950",
"^  c #AF7950",
"/  c #B07A51",
"(  c #B57E52",
")  c #BE8356",
"_  c #BE8456",
"`  c #BF8457",
"'  c #C08658",
"]  c #C18758",
"[  c #C48759",
"{  c #C6895A",
"}  c #CB8D5D",
"|  c #CC8D5C",
" . c #CC8C5D",
".. c #CD8E5D",
"X. c #CE905E",
"o. c #D0905E",
"O. c #D1905F",
"+. c #E49250",
"@. c #E39455",
"#. c #E49657",
"$. c #E79859",
"%. c #D29260",
"&. c #DA9662",
"*. c #DB9763",
"=. c #DC9964",
"-. c #E49D67",
";. c #E79F68",
":. c #EFA266",
">. c #E8A068",
",. c #E9A169",
"<. c #EBA26A",
"1. c #ECA36A",
"2. c #EDA36A",
"3. c #EEA46B",
"4. c #EFA46C",
"5. c #EFA56C",
"6. c #F0A56C",
"7. c #F0A66C",
"8. c #F1A76C",
"9. c #F1A66D",
"0. c #F2A86D",
"q. c #F4A86D",
"w. c #E5A375",
"e. c #BF9CA1",
/* pixels */
"D Z S G e.F S S C M A S S S S S S S S S S S S S S S S S V N S S S S S S S S C B ",
"+.:.9.9.5.9.q.0.]   &.0.0.q.9.0.q.q.q.9.q.9.9.q.9.q.9.9.Q - 0.q.0.0.q.0.9.q.5.( ",
"@.3.3.5.5.5.9.2.`   &.7.5.3.3.3.9.3.9.3.5.5.5.5.4.9.2.9.Q - 3.3.5.5.5.5.9.3.3.9.",
"#.3.5.5.5.5.9.2.`   &.3.5./ -.3.2.7.2.3.2.5.2.2.O.[ 5.2.Q - 3.3.5.5.5.5.3.9.3.3.",
"@.5.5.5.5.5.5.2.`   &.,.>.+ ) 3.3.{ } q.( =.2.5.n p 3.9.E - 9.2.5.5.5.5.7.3.7.3.",
"#.2.5.5.5.5.5.5.`   &.3.>., ' 3.5.b % , O / 5.3.U c 3.3.R - 3.5.5.5.5.5.3.7.3.7.",
"#.5.5.5.5.5.5.2.`   &.3.3.>.3.3.2.;.! K ) 3.2.2.2.,.2.3.E - 3.3.5.5.3.7.7.3.7.3.",
"@.5.5.5.5.5.5.5.`   &.3.7.3.8.3.9.2.5.5.9.2.9.9.5.3.9.5.Q - 3.3.5.3.9.3.7.7.3.3.",
"#.5.3.3.5.2.5.2.` . &.2.3.3.3.3.3.3.3.3.3.3.3.3.3.3.3.3.E - 9.5.3.3.3.3.3.3.3.3.",
"H L L L L L L K z . n L L L L K K K L L L L L L P L L L a * L L L L L L L L L L ",
"4 5 < . 2 5 5 5 5 5 5 6 5 6 5 5 5 5 ;   5 5 5 5 5 5 5 5 6 5 5 5 5 5 : + 5 5 5 5 ",
"@.2.X.O } 2.4.2.5.5.2.5.3.3.5.3.3.3.~ & >.3.1.5.3.3.3.3.5.3.3.3.3.2.T : >.2.3.3.",
"#.3.%.O  .2.5.5.5.3.5.5.5.5.5.5.3.8.~ & ,.1.5.5.5.5.5.5.5.5.5.5.3.9.T : ,.3.3.8.",
"@.2.O.@  .9.9.2.3.9.5.5.5.5.5.5.8.3.~ + ,.3.5.5.5.5.5.5.5.5.5.5.3.1.T : ,.3.3.3.",
"#.3.o..  .2.9.9.5.5.5.5.5.5.5.5.7.3.~ $ ,.3.5.5.5.5.5.5.5.5.5.5.3.3.E > >.3.9.3.",
"#.3.%..  .9.6.2.5.5.5.5.5.5.5.5.3.7.~ $ ,.3.5.5.5.5.5.5.5.5.5.5.3.3.E > >.3.2.9.",
"#.2.O.O } 3.3.3.3.9.3.7.2.9.2.5.9.3.^ & >.5.5.5.5.5.5.5.5.5.5.5.3.3.E > >.3.9.2.",
"#.2.O.O } 3.9.3.5.3.7.3.9.2.9.4.3.7.~ + >.5.5.5.5.5.5.5.5.5.5.5.3.3.T > ,.3.2.7.",
"#.2.o.+ X.7.3.9.3.0.0.3.3.3.5.5.5.5.~ $ ,.5.3.3.3.5.5.5.5.5.5.5.3.3.E > >.3.3.7.",
"x b l . h b n n n n n n n n b b n H a + v n n v n v n n n n n n n n t & v n n n ",
"9 e t t r r r r 5   q i r r r r r r i r r r i r r i i i 2 + i r i r r r r r r y ",
"#.2.3.2.3.3.3.3.`   &.,.4.2.2.4.3.5.3.3.3.3.3.3.1.3.1.3.E - 1.1.3.3.3.3.5.2.5.2.",
"#.3.3.7.5.5.3.3.`   &.3.5.5.5.5.3.5.5.5.3.3.9.5.3.3.3.3.E - 3.3.5.5.0.3.2.5.2.9.",
"$.2.3.7.5.3.3.3.` . &.3.5.5.5.5.3.3.5.5.3.3.5.5.5.3.3.3.Q - 3.3.5.5.3.3.9.2.9.2.",
"@.7.5.5.5.5.5.2.'   &.2.9.2.5.5.5.5.5.5.5.5.9.2.3.7.3.7.Q - 3.1.5.5.5.5.5.5.2.9.",
"@.2.5.5.5.5.5.5.) X &.2.2.9.5.5.5.5.5.5.5.5.5.9.5.5.7.3.Q - 3.3.5.5.5.5.5.5.9.2.",
"#.3.9.5.5.5.5.2.' X *.7.9.5.5.5.5.5.5.5.5.5.9.2.5.5.5.7.Q - 3.3.5.5.2.9.5.5.5.9.",
"#.9.3.5.5.5.5.5.) X &.2.5.5.5.5.5.5.5.5.5.5.3.9.5.5.5.3.E - 3.3.5.4.9.9.5.5.5.2.",
"$.9.9.9.5.9.9.9.' X *.9.9.q.9.9.9.9.9.9.9.9.9.9.9.9.9.9.Q = 7.7.9.9.9.9.9.9.0.0.",
"s h h j h h h h y X g j h h h h j h h h j j h h h h h h 7 & h h h j h h h h h h ",
"p g p . i f g g g g g g g g g g g g 7 O g g g g g g f g f f f f f f 5 % g g f g ",
"#.2.o.. } 3.3.3.2.9.2.2.9.2.2.2.2.7.~ $ -.7.2.2.7.7.3.3.3.3.3.5.5.2.R , ;.2.2.5.",
"#.2.O.O  .5.5.9.5.5.5.5.5.5.5.5.5.5.~ $ ,.2.5.5.5.5.5.5.5.5.5.5.5.,.T > -.5.5.5.",
"#.2.O.O X.2.5.2.5.5.5.5.5.5.5.5.5.5./ $ ;.6.5.5.5.5.5.5.5.5.5.5.5.5.E > >.4.5.2.",
"$.2.O.O  .5.4.9.5.5.5.5.5.5.5.5.9.3.~ $ ,.4.4.5.5.5.5.5.5.5.5.5.9.,.T > ,.4.5.5.",
"@.2.O..  .2.5.4.5.5.5.5.5.5.5.5.3.7.^ $ ;.9.5.5.5.5.5.5.5.5.5.5.5.5.T > ,.,.5.5.",
"$.,.O..  .9.5.5.5.5.5.3.5.5.5.5.5.5.~ $ ,.3.5.3.5.5.5.5.5.5.5.5.5.5.T > ,.5.5.5.",
"#.2.O.O  .4.5.5.5.5.5.9.5.5.5.5.5.5./ $ >.3.5.9.5.5.3.9.5.5.5.5.9.,.T : ;.4.5.5.",
"+.:.%.X O.9.9.9.9.0.9.0.0.0.9.0.0.0.~ % ,.0.9.0.9.9.9.9.5.5.5.9.9.9.W : ,.9.9. .",
"8 w q @ 0 r y y y r i y r r i i r i 3 @ r i r i r y i r J w.I i y r 2 & r y 7 & "
};
