/* XPM */
static char *ec9586477af3430ac0b37d7c96fcee723bmLpiPSmqXdbudP[] = {
/* columns rows colors chars-per-pixel */
"32 32 151 2 ",
"   c #010000",
".  c #0C0502",
"X  c #100703",
"o  c #140904",
"O  c #1A0C05",
"+  c #0B0E19",
"@  c #0F101A",
"#  c #19141B",
"$  c #210F06",
"%  c #231007",
"&  c #271208",
"*  c #2A1308",
"=  c #3B1B0C",
"-  c #441F0D",
";  c #49200D",
":  c #542610",
">  c #5D2A12",
",  c #622C13",
"<  c #692F14",
"1  c #6C3115",
"2  c #743416",
"3  c #7A3616",
"4  c #7D3817",
"5  c #74371C",
"6  c #7A3718",
"7  c #74381F",
"8  c #7D3919",
"9  c #542F27",
"0  c #573027",
"q  c #5C3226",
"w  c #593128",
"e  c #5D392B",
"r  c #64362A",
"t  c #603C2F",
"y  c #6C3A2C",
"u  c #773920",
"i  c #7D3E22",
"p  c #743D2D",
"a  c #783F2E",
"s  c #7B4026",
"d  c #7F442A",
"f  c #6A473A",
"g  c #714A3C",
"h  c #5D4E6B",
"j  c #604E6A",
"k  c #65516D",
"l  c #6C546E",
"z  c #73576F",
"x  c #7A5B71",
"c  c #765E7E",
"v  c #883C17",
"b  c #843B1A",
"n  c #8A3E1B",
"m  c #8F401C",
"M  c #93421D",
"N  c #AA4B1D",
"B  c #834122",
"V  c #8B4424",
"C  c #81472E",
"Z  c #8F492B",
"A  c #954928",
"S  c #9C4B29",
"D  c #924E31",
"F  c #9D5231",
"G  c #9B5638",
"H  c #A44F27",
"J  c #AA4E24",
"K  c #A34F28",
"L  c #AB542C",
"P  c #BE5422",
"I  c #BF5826",
"U  c #A55B3D",
"Y  c #B25A32",
"T  c #B45E38",
"R  c #B7633E",
"E  c #C15C2D",
"W  c #C36236",
"Q  c #C4653C",
"!  c #8B5641",
"~  c #8E5844",
"^  c #9C5C47",
"/  c #AA5F43",
"(  c #AE6546",
")  c #B36544",
"_  c #BC6A47",
"`  c #B56648",
"'  c #B46949",
"]  c #BC6E4D",
"[  c #B56D57",
"{  c #BE6E55",
"}  c #835E73",
"|  c #876174",
" . c #936473",
".. c #AC746D",
"X. c #B4766B",
"o. c #A26F7C",
"O. c #B27B7A",
"+. c #C66B43",
"@. c #C46F4B",
"#. c #C4704D",
"$. c #C37964",
"%. c #C37C6B",
"&. c #C07E73",
"*. c #C38175",
"=. c #5C5D93",
"-. c #6D6597",
";. c #716696",
":. c #7C6D9C",
">. c #746DA5",
",. c #7678BF",
"<. c #7779C1",
"1. c #797AC2",
"2. c #9D7A89",
"3. c #806F9E",
"4. c #88719C",
"5. c #91739B",
"6. c #AF7E80",
"7. c #9379A2",
"8. c #847DC0",
"9. c #6F8EFD",
"0. c #728DF7",
"q. c #788FF4",
"w. c #728EFA",
"e. c #7790F6",
"r. c #7B91F2",
"t. c #BD8584",
"y. c #B1848D",
"u. c #B68893",
"i. c #B18A9A",
"p. c #9383B9",
"a. c #A083A0",
"s. c #AE89A1",
"d. c #B08EA4",
"f. c #AE91AD",
"g. c #A68DB2",
"h. c #AB92B4",
"j. c #AA92B8",
"k. c #9B8FC1",
"l. c #9E90C2",
"z. c #9E95CD",
"x. c #8587D2",
"c. c #8F8FD5",
"v. c #8F93DE",
"b. c #9692D1",
"n. c #9B96D3",
"m. c #9595DA",
"M. c #A393C4",
"N. c #868FE0",
"B. c #8D96E6",
"V. c #8594EC",
"C. c #8193F1",
/* pixels */
"0.0.0.0.0.0.0.0.0.0.0.0.0.0.0.0.0.0.0.0.0.0.0.0.0.0.0.0.0.0.0.0.",
"0.0.0.0.0.0.0.0.0.0.0.0.w.0.0.0.0.w.w.0.0.0.0.0.0.0.0.0.0.0.0.0.",
"0.0.0.0.0.0.0.q.r.q.0.r.C.C.q.0.q.C.C.r.0.q.r.q.0.0.0.0.0.0.0.0.",
"0.0.0.0.0.0.w.x.t.V.w.j.$.*.m.9.z.%.%.M.9.B.*.p.w.0.0.0.0.0.0.0.",
"0.0.0.0.0.0.w.8.{ V.w.s.P W b.9.l.E I g.9.v.Q 5.w.0.0.0.0.0.0.0.",
"0.0.0.0.0.0.w.,.^ h.l.6.b Z d.k.i.V b y.k.f.D ;.w.0.0.0.0.0.0.0.",
"0.0.0.0.0.0.w.1.A S B H 2 b K i H 8 5 H B S n =.w.0.0.0.0.0.0.0.",
"0.0.0.0.0.0.w.1.7 2 b 1 b 6 1 b 1 8 b 1 b 2 2 :.w.0.0.0.0.0.0.0.",
"0.0.0.0.0.0.w.1.7 2 > = > 2 2 6 2 2 : = , 2 2 -.w.0.0.0.0.0.0.0.",
"0.0.0.0.0.0.w.1.V b O   . 8 m < M 2 .   O n b =.w.0.0.0.0.0.0.0.",
"0.0.0.0.0.0.w.1.7 6 =   X 1 2 m 1 8 %   % 1 3 :.w.0.0.0.0.0.0.0.",
"0.0.0.0.0.0.w.<.u 2 &   X 1 2 2 2 2 O   $ 2 2 -.w.0.0.0.0.0.0.0.",
"0.0.0.0.0.0.w.1.V b O   X 6 n < n 2 .   $ b b =.w.0.0.0.0.0.0.0.",
"0.0.w.w.0.0.w.1.7 8 =   . 1 2 M 1 8 $   % 2 3 :.w.0.0.w.w.0.0.0.",
"0.w.N.n.q.q.n.a.~ i : t f ! d 1 C ~ g e ; s ! 2.m.0.r.z.c.0.0.0.",
"0.w.7.&.r.e.t.E @.D 1 ] W +.U , ( Q Q ' < G +.E u.w.V.$.o.w.0.0.",
"0.w.4.X.V.C.O.N R ) L ] J Y _ L ] L L ] L ` T N y.C.B.[  .w.0.0.",
"0.w.:.U ..../ < A @.' _ 1 B @.( @.8 5 _ ) #.V 1 ' ..X.F j w.0.0.",
"0.w.:.4 2 2 4 1 6 2 1 8 1 2 3 < 4 2 2 4 1 3 3 1 4 1 2 3 k w.0.0.",
"0.w.3.1 b n 1 M 2 8 M < m b 2 M 1 n n 1 M 2 8 M < m b 2 | w.0.0.",
"0.w.:.n 2 2 n 1 b 8 1 n 2 2 = o * , 2 n 1 b 8 1 n 2 6 v h 0.0.0.",
"0.w.:.3 2 2 2 1 2 2 2 2 2 -       * 2 2 1 2 2 2 2 2 2 2 k w.0.0.",
"0.w.:.1 b n 1 M 2 6 m < b %       X 2 1 M 2 6 m < n 8 2 } w.0.0.",
"0.w.:.m 6 2 m 1 b b 1 M >           1 m 1 b b 1 m 2 8 v h 0.0.0.",
"0.w.:.2 2 2 2 2 2 2 2 2 , .         > 2 2 2 2 2 2 2 2 2 l w.0.0.",
"0.w.:.1 b b 1 n 2 6 n 1 2 X         , 1 n 2 6 n < b 8 2 } w.0.0.",
"0.w.:.M 6 2 M 1 n b 1 M ,           1 M 1 n b 1 M 2 b n h 0.0.0.",
"0.w.:.1 6 6 1 6 2 2 6 1 1 .         > 1 6 2 2 6 1 6 2 2 z w.0.0.",
"0.w.:.1 8 8 1 b 2 2 b 1 2 .         , 1 b 2 2 b 1 b 6 2 x w.0.0.",
"0.w.:.M 6 2 M 1 n b 1 M ,           1 M 1 n b 1 M 2 b M h 0.0.0.",
"0.w.:.1 4 8 1 b 2 2 b 1 2 .         , 1 b 2 2 b 1 b 3 2 x 0.0.0.",
"0.w.>.w y p w a r r a w r # + + + @ 9 w a r r a 0 a y q c 0.0.0."
};
