/* XPM */
static char *_4ca77aebc2d44b4f75f2463036c5909sgHlVAbYqyvqT6Ly[] = {
/* columns rows colors chars-per-pixel */
"32 32 233 2 ",
"   c #2B2C36",
".  c #4D362C",
"X  c #6E4938",
"o  c #725040",
"O  c #AD755A",
"+  c #C88566",
"@  c #765342",
"#  c #745241",
"$  c #3F322C",
"%  c #513C33",
"&  c #755242",
"*  c #45352E",
"=  c #4B3930",
"-  c #715040",
";  c #4E3B32",
":  c #502817",
">  c #C5643A",
",  c #E17D4F",
"<  c #EB8D5F",
"1  c #EE8F60",
"2  c #F09061",
"3  c #5A3624",
"4  c #8A5337",
"5  c #EF8F60",
"6  c #EC8D5F",
"7  c #ED8E60",
"8  c #693F2A",
"9  c #7A4931",
"0  c #EA8C5E",
"q  c #D78156",
"w  c #9D5030",
"e  c #E17345",
"r  c #EB8859",
"t  c #F29263",
"y  c #F19162",
"u  c #5E3826",
"i  c #8E563A",
"p  c #F69464",
"a  c #E88C5E",
"s  c #E58A5D",
"d  c #F29162",
"f  c #F29262",
"g  c #F49363",
"h  c #E2885C",
"j  c #EB8D60",
"k  c #6D422C",
"l  c #7E4C33",
"z  c #F59364",
"x  c #A25331",
"c  c #E07345",
"v  c #F89665",
"b  c #955A3D",
"n  c #804D34",
"m  c #C3754F",
"M  c #E0875B",
"N  c #EB8E60",
"B  c #EE8F61",
"V  c #683F2A",
"C  c #B26B48",
"Z  c #F79464",
"A  c #6D412C",
"S  c #F59363",
"D  c #F89565",
"F  c #A46242",
"G  c #91573B",
"H  c #D27F56",
"J  c #3F261A",
"K  c #352016",
"L  c #513021",
"P  c #E3895C",
"I  c #7D4B33",
"U  c #BC714C",
"Y  c #F59464",
"T  c #ED8F60",
"R  c #F09162",
"E  c #CB7A52",
"W  c #A46343",
"Q  c #D58056",
"!  c #EC8E60",
"~  c #EF9061",
"^  c #F39263",
"/  c #A55432",
"(  c #E37546",
")  c #EF8A5B",
"_  c #5F3927",
"`  c #F99665",
"'  c #F79564",
"]  c #F79565",
"[  c #6F432D",
"{  c #6C3721",
"}  c #954D2E",
"|  c #9D5B3B",
" . c #A26242",
".. c #A36242",
"X. c #A16141",
"o. c #3C2418",
"O. c #5D3826",
"+. c #A06141",
"@. c #462A1D",
"#. c #523121",
"$. c #2D170E",
"%. c #3F2013",
"&. c #432719",
"*. c #352015",
"=. c #150D09",
"-. c #40271A",
";. c #44291C",
":. c #44291B",
">. c #41271B",
",. c #42281B",
"<. c #382217",
"1. c #140C08",
"2. c #3E2519",
"3. c #42271B",
"4. c #3B2418",
"5. c #130B08",
"6. c #9C502F",
"7. c #D86F42",
"8. c #E68558",
"9. c #B26B49",
"0. c #3F2619",
"q. c #DD855A",
"w. c #E98C5F",
"e. c #BE724D",
"r. c #3B2318",
"t. c #D48056",
"y. c #EA8D5F",
"u. c #CB7A53",
"i. c #372117",
"p. c #B86F4B",
"a. c #41271A",
"s. c #E68A5D",
"d. c #C57750",
"f. c #3D2519",
"g. c #DC845A",
"h. c #D37F56",
"j. c #3A2317",
"k. c #DC8459",
"l. c #A45432",
"z. c #F28C5C",
"x. c #BB714C",
"c. c #E88C5F",
"v. c #C87851",
"b. c #DF865B",
"n. c #D58057",
"m. c #3A2318",
"M. c #7A3F25",
"N. c #A95734",
"B. c #B46845",
"V. c #8A5439",
"C. c #2F1C13",
"Z. c #AD6846",
"A. c #B76E4A",
"S. c #B66E4A",
"D. c #94593C",
"F. c #2C1A12",
"G. c #A66443",
"H. c #B76E4B",
"J. c #B86E4B",
"K. c #9F5F40",
"L. c #291911",
"P. c #25130B",
"I. c #331A10",
"U. c #361F14",
"Y. c #342015",
"T. c #2F1D13",
"R. c #362116",
"E. c #372116",
"W. c #1B110B",
"Q. c #24160F",
"!. c #382117",
"~. c #362016",
"^. c #1E120C",
"/. c #21140E",
"(. c #974D2E",
"). c #D06B40",
"_. c #DB7F53",
"`. c #E1875C",
"'. c #E1875B",
"]. c #573423",
"[. c #845036",
"{. c #E4895D",
"}. c #653D29",
"|. c #75462F",
" X c #A35331",
".X c #E17445",
"XX c #EC895A",
"oX c #5E3926",
"OX c #8F563A",
"+X c #E37545",
"@X c #90573B",
"#X c #6E422D",
"$X c #7F4D34",
"%X c #7B3F25",
"&X c #B26744",
"*X c #B76F4B",
"=X c #B96F4B",
"-X c #452A1C",
";X c #6B402B",
":X c #BA704B",
">X c #513121",
",X c #361F15",
"<X c #2C1B12",
"1X c #160D09",
"2X c #311D14",
"3X c #331F15",
"4X c #311E14",
"5X c #321E14",
"6X c #150D08",
"7X c #DE8154",
"8X c #AB6746",
"9X c #E3885C",
"0X c #CC7B53",
"qX c #E1885C",
"wX c #C47650",
"eX c #F08B5B",
"rX c #B9704C",
"tX c #E68B5E",
"yX c #C67750",
"uX c #8B472A",
"iX c #DF7244",
"pX c #EF8959",
"aX c #E78B5E",
"sX c #C67751",
"dX c #D47F56",
"fX c #CC7046",
"gX c #A06041",
"hX c #392217",
"jX c #C97952",
"kX c #AC6846",
"lX c #C0744E",
"zX c #D68157",
"xX c white",
/* pixels */
"  . X o O + @ # $ % @ # # # # # # # # # # # & * = @ # # # # - ; ",
": > , < 1 2 < < 3 4 5 < 6 < < < < < < < 6 < 7 8 9 1 < < < < 0 q ",
"w e r t y y y y u i p a s d f g t g d y h j g k l z y y y y y t ",
"x c r y y y y y u i v b n g s m M m N B V C Z A l S y y y y y y ",
"x c r y y y y y u i D F G z H J K L P 2 I U p A l S y y y y y y ",
"x c r y y y y y u i Y B T y R E W Q y y ! ~ ^ A l S y y y y y y ",
"/ ( ) Y z z z z _ G ` z Y z z ' ` Z z z Y z ] [ n ` z z z z z z ",
"{ } |  ...X.X.X.o.O...X.X.X.+.X...X.X.X.X.X. .@.#...X.X...X.X.X.",
"$.%.&.*.=.-.;.:.>.,.:.:.:.:.;.<.1.2.;.:.:.:.:.3.,.:.;.4.5.4.;.:.",
"6.7.8.9.0.q.w.w.w.w.w.w.w.w.j e.r.t.y.w.w.w.w.w.w.w.y.u.i.u.y.w.",
"x c ) p.a.s.f d d d d d d d g d.f.g.^ d d d d d d d ^ h.j.h.^ d ",
"x c ) p.a.s d y y y y y y y g d.f.k.t y y y y y y y ^ H j.H ^ y ",
"x c ) p.a.s d y y y y y y y g d.f.k.t y y y y y y y ^ H j.H ^ y ",
"x c ) p.a.s d y y y y y y y g d.f.k.t y y y y y y y ^ H j.H ^ y ",
"l.( z.x.,.c.z g g g g g g g ' v.2.b.p g g g g g g g p n.m.n.p g ",
"M.N.B.V.C.Z.A.S.p.A.S.S.S.S.p.D.F.G.A.S.S.S.S.p.H.S.J.K.L.K.J.S.",
"P.I.U.Y.T.R.E.E.W.Q.!.E.E.E.E.K C.~.E.E.E.E.E.^./.i.E.K C.K E.E.",
"(.)._.`.'.M M M ].[.{.M M M M M '.M M M M M h }.|.{.M M '.M M M ",
" X.XXXt f f f f oXOXp f f f f f f f f f f f g k l p f f f f f f ",
"x c r y y y y y u i z y y y y y y y y y y y ^ A l S y y y y y y ",
"x c r y y y y y u i z y y y y y y y y y y y ^ A l S y y y y y y ",
"x c r y y y y y u i z y y y y y y y y y y y ^ A l S y y y y y y ",
"l.+X) Y g g g S _ @X` g g g g g g g g g g g Z #X$XD g g g g g g ",
"%XN.&X*X=XA.A.A.-X;X:XS.S.S.S.A.=XA.S.S.S.S.p.>Xu =XS.A.=XA.S.S.",
"P.I.,X<X1X*.E.E.2X3XE.E.E.E.E.C.=.3XE.E.E.E.E.4X5XE.E.4X6X4XE.E.",
"(.).7X8Xo.n.'.M '.M M M M M 9XA.<.0XqXM M M M '.M M h wXK wXh M ",
" X.XeXrX>.tX^ f f f f f f f S yXf.q.^ f f f f f f f g h.j.h.g f ",
"x c ) p.a.s d y y y y y y y g d.f.k.t y y y y y y y ^ H j.H ^ y ",
"x c ) p.a.s d y y y y y y y g d.f.k.t y y y y y y y ^ H j.H ^ y ",
" Xc ) p.a.s d y y y y y y y g d.f.k.t y y y y y y y ^ H j.H ^ y ",
"uXiXpXrX>.aX^ ^ ^ ^ ^ ^ ^ ^ z sXf.q.g ^ ^ ^ t d y t g dXm.dXg t ",
"$./ fXgXhXjXh.h.h.h.h.h.h.h.n.kXK lXt.h.h.h.h.aXT zXt.p.5Xp.Q C "
};
