/* XPM */
static char *_645c132336d4fd4ebc59ce611837e79QemKgljuemTksMqL[] = {
/* columns rows colors chars-per-pixel */
"32 32 153 2 ",
"   c #0C0B06",
".  c #0A0A0B",
"X  c #100D03",
"o  c #1F1707",
"O  c #141309",
"+  c #1F1708",
"@  c #090C18",
"#  c #0D101D",
"$  c #141312",
"%  c #18181D",
"&  c #20180A",
"*  c #342910",
"=  c #373010",
"-  c #3C3A17",
";  c #0E1222",
":  c #0E1329",
">  c #101426",
",  c #1B1C20",
"<  c #101629",
"1  c #181D30",
"2  c #232221",
"3  c #282A37",
"4  c #3E3D3B",
"5  c #70572C",
"6  c #72592D",
"7  c #795F2F",
"8  c #635130",
"9  c #6C5633",
"0  c #7A6D2A",
"q  c #7D722E",
"w  c #7C7B2B",
"e  c #232C4E",
"r  c #2B3146",
"t  c #262F54",
"y  c #2B355B",
"u  c #2E3967",
"i  c #3C487A",
"p  c #444441",
"a  c #454958",
"s  c #645643",
"d  c #464A66",
"f  c #434C74",
"g  c #6A6A6A",
"h  c #646773",
"j  c #977539",
"k  c #9B7839",
"l  c #9B7C42",
"z  c #89892F",
"x  c #9E9B35",
"c  c #AB8D3F",
"v  c #B4A13C",
"b  c #BBB93E",
"n  c #988B40",
"m  c #BC9247",
"M  c #BD9C43",
"N  c #928C68",
"B  c #88877D",
"V  c #C2AD41",
"C  c #CEA34C",
"Z  c #CEAD49",
"A  c #D6A74F",
"S  c #D6A94F",
"D  c #D8AD4F",
"F  c #C8B444",
"G  c #C0B840",
"H  c #DBBE4A",
"J  c #CDA354",
"K  c #CCBC5D",
"L  c #E3BF4F",
"P  c #DDC75A",
"I  c #E5C24F",
"U  c #E5C94D",
"Y  c #ECCC4F",
"T  c #E7D24D",
"R  c #F3DB4F",
"E  c #EED350",
"W  c #F4DB52",
"Q  c #F9DE52",
"!  c #EEE04E",
"~  c #EDEA4F",
"^  c #F4E24E",
"/  c #E8E756",
"(  c #F7E451",
")  c #FAE052",
"_  c #F7EA56",
"`  c #F9EF52",
"'  c #F7F256",
"]  c #F9F755",
"[  c #FBF851",
"{  c #F5DE6F",
"}  c #F4DE70",
"|  c #F5E564",
" . c #F6EA65",
".. c #F8EB71",
"X. c #F8F874",
"o. c #3C4B84",
"O. c #41518F",
"+. c #445492",
"@. c #485899",
"#. c #596182",
"$. c #70758A",
"%. c #5164AF",
"&. c #5266B3",
"*. c #586BB7",
"=. c #566BBC",
"-. c #586DBD",
";. c #5D72C7",
":. c #5C72C8",
">. c #6D7DC5",
",. c #637AD5",
"<. c #667EDC",
"1. c #7B88CB",
"2. c #6780DF",
"3. c #6880DF",
"4. c #6981E2",
"5. c #6D86EB",
"6. c #6E88EE",
"7. c #728BED",
"8. c #6F89F0",
"9. c #728DF7",
"0. c #738EF9",
"q. c #7790F2",
"w. c #7D96F6",
"e. c #7590FD",
"r. c #D9D688",
"t. c #EDDC82",
"y. c #F2E080",
"u. c #F9F983",
"i. c #F8EB9C",
"p. c #FBFB90",
"a. c #C9C5A9",
"s. c #F9EDAD",
"d. c #F9EEB2",
"f. c #FBF6B9",
"g. c #8892CF",
"h. c #ACB1C5",
"j. c #889EF4",
"k. c #C8C9C9",
"l. c #D2D2CA",
"z. c #D0D0D2",
"x. c #FBFBC0",
"c. c #FCFCCF",
"v. c #FCF6D2",
"b. c #FDFBD2",
"n. c #D0D6ED",
"m. c #D3D9EE",
"M. c #FFFBE0",
"N. c #F4F4EF",
"B. c #FEFEEE",
"V. c #E6EBFE",
"C. c #E8EDFF",
"Z. c #FFFDF4",
"A. c #F7F7F8",
/* pixels */
"9.9.9.9.9.9.9.9.9.9.9.9.9.9.9.9.9.9.9.9.9.9.9.9.9.9.9.9.9.9.w.n.",
"9.9.9.9.9.9.9.9.9.9.9.9.9.9.9.9.9.9.9.9.9.9.9.9.9.9.9.9.9.9.w.n.",
"9.9.9.9.9.9.9.9.9.9.9.9.9.9.9.9.9.9.9.9.9.9.9.9.9.9.9.9.9.9.w.n.",
"9.9.9.9.9.9.9.9.9.9.9.9.9.9.9.9.9.9.9.9.9.9.9.9.9.9.9.9.9.9.w.n.",
"9.9.9.9.9.9.9.9.9.0.0.0.9.9.9.9.9.9.0.0.0.0.9.9.9.9.9.9.9.9.w.n.",
"9.9.9.9.9.9.9.9.9.5.4.4.q.w.w.w.w.w.7.4.4.6.9.9.9.9.9.9.9.9.w.n.",
"9.9.9.9.9.9.9.0.6.t > 1 h.C.V.V.V.C.$.: < O.e.9.9.9.9.9.9.9.w.n.",
"9.9.9.9.9.9.0.4.*.a 4 p a.b.v.v.v.v.N = * d ;.6.0.9.9.9.9.9.w.n.",
"9.9.9.9.9.9.0.@., k.A.N.y.W W W W W E U C 9 ; ,.0.9.9.9.9.9.w.n.",
"9.9.9.9.9.9.e.+.$ z.M.i. . .s.d.i._ ( E S 5 @ ,.0.9.9.9.9.9.w.n.",
"9.9.9.9.9.9.6.+.2 l.f.R ' u.B.Z.v./ ! E D 7 % ;.8.9.9.9.9.9.w.n.",
"9.9.9.9.0.4.e h l.t.| ' f.x.X...K - x ` E Z l 3 o.0.9.9.9.9.w.n.",
"9.9.9.9.0.2.# g Z.{ ^ ] b.b.] ^ V   z ] W I m o u 0.9.9.9.9.w.n.",
"9.9.9.9.0.3.; g Z.} ^ ] c.b.] ( V   z ] W L m & u 0.9.9.9.9.w.n.",
"9.9.9.9.0.4.; g Z.} ^ ] c.b.] ( V   z ] W L m & u 0.9.9.9.9.w.n.",
"9.9.9.9.0.4.; g Z.} ^ ] c.b.] ( V   z ] W L m & u 0.9.9.9.9.w.n.",
"9.9.9.9.0.4.; g Z.} ^ ] c.b.] ( V   z ] W L m & u 0.9.9.9.9.w.n.",
"9.9.9.9.0.4.; g Z.} ^ ] c.b.] ( V   z ] W L m & u 0.9.9.9.9.w.n.",
"9.9.9.9.0.4.; g Z.} ^ ] c.b.] ( V   z ] W L m & u 0.9.9.9.9.w.n.",
"9.9.9.9.0.4.; g Z.} ^ ] c.b.] ( V   z ] W L m & u 0.9.9.9.9.w.n.",
"9.9.9.9.0.4.; g Z.} ^ ] c.b.' ( V   z ] W L m & u 0.9.9.9.9.w.n.",
"9.9.9.9.0.4.; g Z.} ^ ] c.v.W W V   z ] W L m & u 0.9.9.9.9.w.n.",
"9.9.9.9.0.3.; g Z.} ^ ] c.v.W W V   z ] W L m & u 0.9.9.9.9.w.n.",
"9.9.9.9.0.2.; g Z.} ^ ] b.v.W Q V   z ] W I m + u 0.9.9.9.9.w.n.",
"9.9.9.9.0.5.+.#.B P ( ] p.r.q 0 q w G ( I c 9 f &.0.9.9.9.9.w.n.",
"9.9.9.9.9.9.e.+.  F ( ] [ b O   - ~ ( Y S 6 # ,.0.9.9.9.9.9.w.n.",
"9.9.9.9.9.9.0.+.X F ) ( ( T V V F W I D A 6 # ,.0.9.9.9.9.9.w.n.",
"9.9.9.9.9.9.0.%.r n v v H Y Y Y Y Y M j k s y <.0.9.9.9.9.9.w.n.",
"9.9.9.9.9.9.9.9.4.3 . $ l J J J J J 8 . . i 9.9.9.9.9.9.9.9.w.n.",
"9.9.9.9.9.9.9.9.9.:.=.-.1.g.g.g.g.g.>.=.=.<.0.9.9.9.9.9.9.9.w.n.",
"9.9.9.9.9.9.9.9.9.0.0.0.0.0.0.0.0.0.0.0.0.0.9.9.9.9.9.9.9.9.w.n.",
"w.w.w.w.w.w.w.w.w.w.w.w.w.w.w.w.w.w.w.w.w.w.w.w.w.w.w.w.w.w.j.m."
};
