/* XPM */
static char *_21695369982[] = {
/* columns rows colors chars-per-pixel */
"40 40 149 2 ",
"   c #040B04",
".  c #0B1A0B",
"X  c #12280E",
"o  c #3C242D",
"O  c #243820",
"+  c #323438",
"@  c #4F211A",
"#  c #5E201F",
"$  c #432729",
"%  c #57252C",
"&  c #592928",
"*  c #553232",
"=  c #662B29",
"-  c #7C292B",
";  c #6E3039",
":  c #7D3F3D",
">  c #204817",
",  c #27471A",
"<  c #29441B",
"1  c #214C20",
"2  c #374F28",
"3  c #255324",
"4  c #295D2B",
"5  c #3E5528",
"6  c #2D5532",
"7  c #375A39",
"8  c #296A26",
"9  c #2C7127",
"0  c #366436",
"q  c #327635",
"w  c #496C37",
"e  c #4B7432",
"r  c #4B723D",
"t  c #423040",
"y  c #593F4E",
"u  c #355A4A",
"i  c #384E5D",
"p  c #3B664A",
"a  c #3D694C",
"s  c #3B6354",
"d  c #3B596A",
"f  c #3F5171",
"g  c #4E4247",
"h  c #455E59",
"j  c #674E4D",
"k  c #655B5C",
"l  c #795757",
"z  c #47634A",
"x  c #466057",
"c  c #4F6952",
"v  c #4A4B65",
"b  c #4A597B",
"n  c #50507A",
"m  c #426168",
"M  c #496771",
"N  c #50677D",
"B  c #862729",
"V  c #98322E",
"C  c #8B3A3C",
"Z  c #983232",
"A  c #A83738",
"S  c #B53C38",
"D  c #833C43",
"F  c #9A4445",
"G  c #855C5D",
"H  c #A25F5E",
"J  c #86797A",
"K  c #C94443",
"L  c #C5504F",
"P  c #C66364",
"I  c #C8706E",
"U  c #31802A",
"Y  c #36982F",
"T  c #389F33",
"R  c #3EA73A",
"E  c #548336",
"W  c #568B33",
"Q  c #568439",
"!  c #45943B",
"~  c #5C9238",
"^  c #5F9B3A",
"/  c #629C3C",
"(  c #64A03D",
")  c #6DAA3F",
"_  c #449642",
"`  c #618947",
"'  c #669E45",
"]  c #56B351",
"[  c #6BA642",
"{  c #69A546",
"}  c #6DAC42",
"|  c #70AA49",
" . c #73B149",
".. c #7AB459",
"X. c #81B957",
"o. c #8ABF6A",
"O. c #88C165",
"+. c #4E6783",
"@. c #4C638E",
"#. c #506C8F",
"$. c #4E6394",
"%. c #55719B",
"&. c #666F93",
"*. c #6C779B",
"=. c #536FA8",
"-. c #5A78A2",
";. c #5671B2",
":. c #5B75B5",
">. c #5E7BB3",
",. c #5D7ABC",
"<. c #6777AE",
"1. c #7B7DAF",
"2. c #6473B5",
"3. c #6077B9",
"4. c #5E79C4",
"5. c #5E78C9",
"6. c #637BC7",
"7. c #627DD4",
"8. c #687ED2",
"9. c #7987B7",
"0. c #6683D4",
"q. c #6680DA",
"w. c #6F86D9",
"e. c #6A86E5",
"r. c #6986EB",
"t. c #6B89ED",
"y. c #6786F1",
"u. c #6987F2",
"i. c #6C8AF3",
"p. c #6B8CFF",
"a. c #718FF7",
"s. c #8E8584",
"d. c #9C9D9D",
"f. c #BF8381",
"g. c #A89998",
"h. c #8A8EBA",
"j. c #8A94B5",
"k. c #A9A7A8",
"l. c #AAA9A9",
"z. c #AFB1B1",
"x. c #BAB9BB",
"c. c #C28582",
"v. c #C4A4A6",
"b. c #C7B0AE",
"n. c #8895C4",
"m. c #CBCCCC",
"M. c #D0CFCF",
"N. c #D6D5D5",
"B. c #D8D6D7",
/* pixels */
"p.p.p.p.p.p.p.p.p.p.p.p.p.p.p.p.p.p.p.p.p.p.p.p.p.p.p.p.p.p.p.p.p.p.p.p.p.p.p.p.",
"p.p.p.p.p.p.p.p.p.p.p.p.p.p.p.p.p.p.p.p.p.p.p.p.p.p.p.p.p.p.p.p.p.p.p.p.p.p.p.p.",
"p.p.p.p.p.p.p.p.p.p.p.p.p.p.p.p.p.p.p.p.p.p.p.p.p.p.p.p.p.p.p.p.p.p.p.p.p.p.p.p.",
"p.p.p.p.p.p.p.p.p.p.p.p.p.p.p.p.p.p.p.p.p.p.p.p.p.p.p.p.p.p.p.p.p.p.p.p.p.p.p.p.",
"p.p.p.p.p.p.p.p.p.p.p.p.p.p.p.p.p.p.p.p.p.p.p.p.p.p.p.p.p.p.p.p.p.p.p.p.p.p.p.p.",
"p.p.p.p.p.p.p.p.p.p.p.p.p.p.p.p.p.p.p.p.p.p.p.p.p.p.p.p.p.p.p.p.p.p.p.p.p.p.p.p.",
"p.p.p.p.p.p.p.p.p.p.p.p.p.p.p.p.p.p.p.q.0.9.n.a.p.p.p.p.p.p.p.p.p.p.p.p.p.p.p.p.",
"p.p.p.p.p.p.p.p.p.p.p.p.p.p.p.p.p.q.n o g l.x.&.3.p.p.p.p.p.p.p.p.p.p.p.p.p.p.p.",
"p.p.p.p.p.p.p.p.p.p.p.p.p.p.p.p.w.N F A G N.m.z.*.p.p.p.p.p.p.p.p.p.p.p.p.p.p.p.",
"p.p.p.p.p.p.p.p.p.p.p.p.p.p.p.t.v l.I S j B.B.N.j.p.p.p.p.p.p.p.p.p.p.p.p.p.p.p.",
"p.p.p.p.p.p.p.p.p.p.p.p.p.p.p.2.j b.P Z J B.m.M.+ u.p.p.p.p.p.p.p.p.p.p.p.p.p.p.",
"p.p.p.p.p.p.p.p.p.p.p.p.p.p.p.1.F L K - k N.m.k.$ u.p.p.p.p.p.p.p.p.p.p.p.p.p.p.",
"p.p.p.p.p.p.p.p.p.p.p.p.p.p.p.n V K K = d.x.k.$ = u.p.p.p.p.p.p.p.p.p.p.p.p.p.p.",
"p.p.p.p.p.p.p.p.p.p.p.p.p.p.p.6.; c.c.& g.s.* # l u.p.p.p.p.p.p.p.p.p.p.p.p.p.p.",
"p.p.p.p.p.p.p.p.p.p.p.p.p.p.p.r.t g.v.C : D B - v p.p.p.p.p.p.p.p.p.p.p.p.p.p.p.",
"p.p.p.p.p.p.p.p.p.p.p.p.p.p.p.p.:.; H V Z f.D y 8.p.p.p.p.p.p.p.p.p.p.p.p.p.p.p.",
"p.p.p.p.p.p.p.p.p.p.p.p.p.p.p.p.p.2.$ @ % h.<.t.i.p.p.p.p.p.p.p.p.p.p.p.p.p.p.p.",
"p.p.p.p.p.p.p.p.p.p.p.p.p.p.p.p.p.e.z M 5.p.p.p.p.p.p.p.p.p.p.p.p.p.p.p.p.p.p.p.",
"p.p.p.p.p.p.p.p.p.p.p.p.p.p.p.p.p.-.0 6.p.p.p.p.p.p.p.p.p.p.p.p.p.p.p.p.p.p.p.p.",
"p.p.p.p.p.p.p.p.p.p.p.p.p.p.p.p.i.s s u.p.p.p.p.p.p.p.p.p.p.p.p.p.p.p.p.p.p.p.p.",
"p.p.p.p.p.p.p.p.p.p.p.p.p.p.p.p.i.u m u.p.p.p.p.p.p.p.p.p.p.p.p.p.p.p.p.p.p.p.p.",
"p.p.p.p.p.p.p.p.p.p.p.p.p.p.p.p.>.z ,.p.p.p.p.p.p.p.p.p.p.p.p.p.p.p.p.p.p.p.p.p.",
"p.p.p.p.p.p.p.p.p.p.p.p.p.p.p.p.=.0 4.p.p.p.p.p.p.p.p.p.p.p.p.p.p.p.p.p.p.p.p.p.",
"p.p.p.p.p.p.p.p.p.p.p.p.p.p.p.p.=.4 4.p.p.p.p.p.p.p.p.p.p.p.p.p.p.p.p.p.p.p.p.p.",
"p.p.p.p.p.p.p.p.p.p.p.p.p.p.p.p.;.6 ,.p.p.p.p.p.p.p.p.p.p.p.p.p.p.p.p.p.p.p.p.p.",
"p.p.p.p.p.p.p.p.p.p.p.p.p.p.p.p.t.a M i.p.p.p.p.p.p.p.p.p.p.p.p.p.p.p.p.p.p.p.p.",
"p.p.p.p.p.p.p.p.p.p.p.p.p.p.p.p.a.s u u.p.e.%.M 0.p.p.p.p.p.p.p.p.p.p.p.p.p.p.p.",
"p.p.p.p.p.p.p.p.p.p.p.r.p.p.p.p.p.%.6 0.0.p ! ] a p.p.p.p.p.p.p.p.p.p.p.p.p.p.p.",
"p.p.p.p.p.p.p.p.p.p.p.0.p.p.r.4.y.$.3 i u T R _ 6 u.p.p.p.p.p.p.p.p.p.p.p.p.p.p.",
"p.p.p.p.p.p.p.p.p.p.p.i.p.:.p q s O 1 . 8 U 3 #.7.p.p.p.p.p.p.p.p.p.p.p.p.p.p.p.",
"p.p.p.p.p.p.p.p.p.p.p.p.>.q Y Y ! , .   X X 2 ,.p.p.p.p.p.p.p.p.p.p.p.p.p.p.p.p.",
"p.p.p.p.p.p.p.p.p.p.p.e.6 R 9 > , , < , 5 ` E @.p.p.p.p.p.p.p.p.p.p.p.p.p.p.p.p.",
"p.p.p.p.p.p.p.p.p.p.p.t.f d %.7 E W / ) ..{ W @.p.p.p.p.p.p.p.p.p.p.p.p.p.p.p.p.",
"p.p.p.p.p.p.p.p.p.p.p.p.p.p.5.0 ^ ( ( [ o.X.~ $.p.p.p.p.p.p.p.p.p.p.p.p.p.p.p.p.",
"p.p.p.p.p.p.p.p.p.p.p.p.p.p.t.h E ( } } O.o.r 8.p.p.p.p.p.p.p.p.p.p.p.p.p.p.p.p.",
"p.p.p.p.p.p.p.p.p.p.p.p.p.p.p.b e W ^ [ [ ' 7 i.p.p.p.p.p.p.p.p.p.p.p.p.p.p.p.p.",
"p.p.p.p.p.p.p.p.p.p.p.p.p.p.p.b E / / ) }  .c i.p.p.p.p.p.p.p.p.p.p.p.p.p.p.p.p.",
"p.p.p.p.p.p.p.p.p.p.p.p.p.p.p.N E / / [ } | z u.p.p.p.p.p.p.p.p.p.p.p.p.p.p.p.p.",
"p.p.p.p.p.p.p.p.p.p.p.p.p.p.p.;.w ~ / / ( Q N p.p.p.p.p.p.p.p.p.p.p.p.p.p.p.p.p.",
"p.p.p.p.p.p.p.p.p.p.p.p.p.p.p.p.>.x w e z +.u.p.p.p.p.p.p.p.p.p.p.p.p.p.p.p.p.p."
};
