/* XPM */
static char *_61695314684[] = {
/* columns rows colors chars-per-pixel */
"40 40 187 2 ",
"   c #3A3618",
".  c #303431",
"X  c #5A2030",
"o  c #464119",
"O  c #4C482B",
"+  c #595129",
"@  c #524830",
"#  c #544D35",
"$  c #615A25",
"%  c #6A5E34",
"&  c #6C6023",
"*  c #796C2F",
"=  c #776D34",
"-  c #1D3D4E",
";  c #582C41",
":  c #533342",
">  c #643149",
",  c #793B58",
"<  c #4D4F4C",
"1  c #554A4A",
"2  c #4E504E",
"3  c #575849",
"4  c #565A58",
"5  c #705E4A",
"6  c #614E53",
"7  c #784656",
"8  c #68545C",
"9  c #6F6943",
"0  c #676756",
"q  c #756959",
"w  c #797457",
"e  c #755A67",
"r  c #536F75",
"t  c #6B6A6B",
"y  c #79656A",
"u  c #74736F",
"i  c #7E6570",
"p  c #7A7A77",
"a  c #8C6D2F",
"s  c #887B26",
"d  c #827628",
"f  c #8A643A",
"g  c #967832",
"h  c #853E5E",
"j  c #883F61",
"k  c #955F55",
"l  c #8B7845",
"z  c #847854",
"x  c #8C4465",
"c  c #97486C",
"v  c #845F6F",
"b  c #96536C",
"n  c #9D4C72",
"m  c #8E5470",
"M  c #9B5B77",
"N  c #A55169",
"B  c #A34C73",
"V  c #A94D79",
"C  c #A25375",
"Z  c #A65579",
"A  c #AE557D",
"S  c #866A6B",
"D  c #836D78",
"F  c #99627A",
"G  c #8D7F73",
"H  c #A36875",
"J  c #8E802F",
"K  c #97882A",
"L  c #9A8C35",
"P  c #A8962D",
"I  c #A88633",
"U  c #B09836",
"Y  c #BCA931",
"T  c #C6B233",
"R  c #CBB533",
"E  c #CBB633",
"W  c #D3BC34",
"Q  c #D1B839",
"!  c #DAC536",
"~  c #E4CD39",
"^  c #ECD43B",
"/  c #F1D73C",
"(  c #F2D83C",
")  c #938949",
"_  c #AC974E",
"`  c #A2905A",
"'  c #85827C",
"]  c #968479",
"[  c #A68D71",
"{  c #3279A4",
"}  c #647683",
"|  c #7F7E80",
" . c #B45A83",
".. c #B95985",
"X. c #BA5986",
"o. c #9D6E83",
"O. c #987482",
"+. c #AA6685",
"@. c #B16688",
"#. c #A5748A",
"$. c #A37B8C",
"%. c #AC7A90",
"&. c #C55D8C",
"*. c #CB6190",
"=. c #D36294",
"-. c #6B8CFF",
";. c #7392FE",
":. c #7997FE",
">. c #7D9AFE",
",. c #848383",
"<. c #8A8987",
"1. c #8D8C8E",
"2. c #948788",
"3. c #908F8E",
"4. c #8E928E",
"5. c #8C8D91",
"6. c #939292",
"7. c #96999B",
"8. c #A88286",
"9. c #AB9684",
"0. c #B99687",
"q. c #AC8294",
"w. c #B5899C",
"e. c #BCA694",
"r. c #9A9CA4",
"t. c #BC8FA2",
"y. c #BE91A5",
"u. c #9FA0A1",
"i. c #9CA2AA",
"p. c #B2B0AF",
"a. c #A9ADB3",
"s. c #B2ADB4",
"d. c #B6B6B6",
"f. c #BBBBBC",
"g. c #C6AE9C",
"h. c #C192A5",
"j. c #C795AA",
"k. c #CA99AD",
"l. c #D19EB4",
"z. c #D1A0A8",
"x. c #CEB3A1",
"c. c #D0B1A2",
"v. c #D7A1B8",
"b. c #DBA5BC",
"n. c #E0A6BF",
"m. c #DCC1AD",
"M. c #E8CBB6",
"N. c #F1D2BC",
"B. c #B6BBC6",
"V. c #B6BBC9",
"C. c #839EFE",
"Z. c #89A4FE",
"A. c #8CA5FE",
"S. c #93ABFE",
"D. c #9DB2FE",
"F. c #A2B6FE",
"G. c #A5B8FD",
"H. c #AABCFC",
"J. c #E3ABC3",
"K. c #E8ADC6",
"L. c #ECB2CB",
"P. c #F1B5CF",
"I. c #F3B6D0",
"U. c #F5B8D3",
"Y. c #BDC1CE",
"T. c #BFC5D0",
"R. c #BAC2DE",
"E. c #BBC5E8",
"W. c #BECAF3",
"Q. c #B2C2FB",
"!. c #B7C5FA",
"~. c #C4C3C3",
"^. c #D4D2CF",
"/. c #C4C8D8",
"(. c #C5CBDC",
"). c #CED0D6",
"_. c #DAD7D8",
"`. c #E2DFDE",
"'. c #C5CCE5",
"]. c #D5DBEF",
"[. c #C3CDF3",
"{. c #C1CFFE",
"}. c #C8D3F8",
"|. c #D3DBF6",
" X c #EDEAE8",
".X c #F1EDEB",
"XX c #F4F1EF",
/* pixels */
"-.-.-.-.-.-.-.-.-.-.-.-.-.-.-.-.-.-.-.-.-.-.-.-.-.-.-.-.-.-.-.-.-.-.-.-.-.-.-.-.",
"-.-.-.-.-.-.-.-.-.-.-.-.-.-.-.-.-.-.-.-.-.-.-.-.-.-.-.-.-.-.-.-.-.-.-.-.-.-.-.-.",
"-.-.-.-.-.-.-.-.-.-.-.-.-.-.-.-.-.-.-.-.-.-.-.-.-.-.-.-.-.-.-.-.-.-.-.-.-.-.-.-.",
"-.-.-.-.-.-.-.-.-.-.-.-.-.-.-.-.;.S.:.-.-.-.-.-.-.-.-.-.-.-.-.-.-.-.-.-.-.-.-.-.",
"-.-.-.-.-.-.-.-.-.-.-.-.-.-.Z.|.|.4.(.Q.!.|.>.-.-.-.-.-.-.-.-.-.-.-.-.-.-.-.-.-.",
"-.-.-.-.-.-.-.-.-.-.-.-.-.-.D.u q I g ] z ,.D.-.-.-.-.-.-.-.-.-.-.-.-.-.-.-.-.-.",
"-.-.-.-.-.-.-.-.-.-.-.-.-.-.E.2 f N g I 0 7.A.-.-.-.-.-.-.-.-.-.-.-.-.-.-.-.-.-.",
"-.-.-.-.-.-.-.-.-.-.-.-.;.W.a.. a X + + - 5.W.;.-.-.-.-.-.-.-.-.-.-.-.-.-.-.-.-.",
"-.-.-.-.-.-.-.-.-.S.W.S.'.0 s T K R ^ / ! * p W.>.>.Q.>.;.-.-.-.-.-.-.-.-.-.-.-.",
"-.-.-.-.-.-.-.-.-.}.< 7.3 Q ( ( ( ( ( ( / ^ ! 9 i.a.t Q.-.-.-.-.-.-.-.-.-.-.-.-.",
"-.-.-.-.-.-.-.:.S.|.O W ~ ( ( ( ( ( ( ( / ( / / ! Y w W.;.-.-.-.-.-.-.-.-.-.-.-.",
"-.-.-.-.-.-.A.B.6.7.. R ( ^ ( ( ( ( ^ ^ ( ( ( ( ~ * 3 ,.W.;.-.-.-.-.-.-.-.-.-.-.",
"-.-.-.-.-.-.[.t ^.6.. K ( Y ( ( ( ( Y P / / ( ( ! | ~.p.7.>.;.-.-.-.-.-.-.-.-.-.",
"-.-.-.-.-.-.}.t XXXX# ^ / T g ( ( Y [ ) ^ / ( / Y ~..Xp.i.>.-.-.-.-.-.-.-.-.-.-.",
"-.-.-.-.-.-.F.1.6. X1.$ R * ] l [ z x.m.J ~ ( ( ) `.d.t W.;.-.-.-.-.-.-.-.-.-.-.",
"-.-.-.-.-.-.-.Q.a.3..X<.  d q e.N.' u N.` J J = ^._.p W.:.-.-.-.-.-.-.-.-.-.-.-.",
"-.-.-.-.-.-.-.-.G.p _..X0 L ] x.N.9.9.N._ L ] u..X6.x.D.-.-.-.-.-.-.-.-.-.-.-.-.",
"-.-.-.-.-.-.-.-.;.(.t p.] % e.x.H M.`.[ * } 4 <.d.+ < W.-.-.-.-.-.-.-.-.-.-.-.-.",
"-.-.-.-.-.-.-.-.-.A./.0 m.y v 0.b M.M.z k.w.] g.Y ! 0 H.-.-.-.-.-.-.-.-.-.-.-.-.",
"-.-.-.-.-.-.-.-.-.-.A.4.8 L.K.6 z S 1 l.P.P.h.5 ~ o 4 G.-.-.-.-.-.-.-.-.-.-.-.-.",
"-.-.-.-.-.-.-.-.-.-.A.1.%.U.O.q r H #.P.I.I.P.] ~ P ,.S.-.-.-.-.-.-.-.-.-.-.-.-.",
"-.-.-.-.-.-.-.-.-.-.-./.1 K.D r { ` j.j.I.P.L.) ^ K a.:.-.-.-.-.-.-.-.-.-.-.-.-.",
"-.-.-.-.-.-.-.-.-.-.-.G.5.@ S w w 0.U.G H 8.l ! ( * B.;.-.-.-.-.-.-.-.-.-.-.-.-.",
"-.-.-.-.-.-.-.-.-.-.-.-.'.$ _ z.z.n.U.n.L ~ ( ( ( # W.-.-.-.-.-.-.-.-.-.-.-.-.-.",
"-.-.-.-.-.-.-.-.-.-.-.-.F.p d k.I.L.k.F g / ( ( K 4.Z.-.-.-.-.-.-.-.-.-.-.-.-.-.",
"-.-.-.-.-.-.-.-.-.-.-.-.C.)., b #.M  .*.&.k W ( $ ).E.S.-.-.-.-.-.-.-.-.-.-.-.-.",
"-.-.-.-.-.-.-.-.-.-.-.>./.e X.M o.&.&.=.X.C 7 U ! & 4 ].-.-.-.-.-.-.-.-.-.-.-.-.",
"-.-.-.-.-.-.-.-.-.-.-.W.e c m J.L.F X.x B X.&.C K O Y.>.-.-.-.-.-.-.-.-.-.-.-.-.",
"-.-.-.-.-.-.-.-.-.-.Z.s.A F J.I.I.L.#.A X.A Z A n a.D.-.-.-.-.-.-.-.-.-.-.-.-.-.",
"-.-.-.-.-.-.-.-.-.-.D.2.%.P.I.I.P.P.P.l.#.F C C Z D G.-.-.-.-.-.-.-.-.-.-.-.-.-.",
"-.-.-.-.-.-.-.-.-.-.{.y P.k.U.I.U.I.P.v.P.I.b.v.P.i R.;.-.-.-.-.-.-.-.-.-.-.-.-.",
"-.-.-.-.-.-.-.-.-.:.f.8.n.j.P.I.I.P.I.q.U.P.P.w.L.v.<.A.-.-.-.-.-.-.-.-.-.-.-.-.",
"-.-.-.-.-.-.-.-.-.G.t K.h.K.I.I.U.I.U.w.I.I.I.j.J.P.i [.-.-.-.-.-.-.-.-.-.-.-.-.",
"-.-.-.-.-.-.-.-.-.[.e I.w.U.I.I.I.I.I.k.b.I.U.K.t.I.q.f.:.-.-.-.-.-.-.-.-.-.-.-.",
"-.-.-.-.-.-.-.-.;.V.$.L.t.I.U.I.I.I.I.J.k.U.I.U.q.U.J.p G.-.-.-.-.-.-.-.-.-.-.-.",
"-.-.-.-.-.-.-.-.>.i.l.J.j.I.I.I.I.P.I.L.t.U.I.I.k.b.I.8 }.-.-.-.-.-.-.-.-.-.-.-.",
"-.-.-.-.-.-.-.-.S.1.l.t.j.L.L.I.I.P.K.b.$.J.K.L.J.#.b.v V.:.-.-.-.-.-.-.-.-.-.-.",
"-.-.-.-.-.-.-.-.'.7 X.n  . .+.@.+.+.....c X.X. .X.x X.&.y Q.-.-.-.-.-.-.-.-.-.-.",
"-.-.-.-.-.-.-.:.r.> j > j n B V B B c h ; , x h j ; j x : E.-.-.-.-.-.-.-.-.-.-.",
"-.-.-.-.-.-.-.Z.].V.B.T.V.a.i.r.i.i.a.V.(./.V.B.V.(.(.T.(.Q.-.-.-.-.-.-.-.-.-.-."
};
