/* XPM */
static char *_31695290861[] = {
/* columns rows colors chars-per-pixel */
"40 40 201 2 ",
"   c #2E2A16",
".  c #2F2F2B",
"X  c #3C3C31",
"o  c #51353E",
"O  c #635A1F",
"+  c #51502C",
"@  c #4B443D",
"#  c #514D37",
"$  c #665B24",
"%  c #7C542F",
"&  c #635B35",
"*  c #6C652B",
"=  c #746C34",
"-  c #7A7035",
";  c #203849",
":  c #265265",
">  c #56534C",
",  c #694D50",
"<  c #704056",
"1  c #67565A",
"2  c #4F6359",
"3  c #67634B",
"4  c #796949",
"5  c #76744C",
"6  c #6A6A55",
"7  c #716158",
"8  c #756B58",
"9  c #655F63",
"0  c #785A64",
"q  c #556F72",
"w  c #6A6668",
"e  c #7A6667",
"r  c #786E73",
"t  c #66757E",
"y  c #787477",
"u  c #896A2C",
"i  c #817528",
"p  c #8F713A",
"a  c #8C2D46",
"s  c #845A52",
"d  c #85775C",
"f  c #8A4765",
"g  c #98496D",
"h  c #87576D",
"j  c #945471",
"k  c #995875",
"l  c #A34F75",
"z  c #A84E78",
"x  c #A5577A",
"c  c #AB5279",
"v  c #A7597A",
"b  c #B3587D",
"n  c #8A6E61",
"m  c #916F6D",
"M  c #887766",
"N  c #886876",
"B  c #966279",
"V  c #A46577",
"C  c #78824B",
"Z  c #8E822B",
"A  c #92832A",
"S  c #978829",
"D  c #9F9028",
"F  c #8C8030",
"G  c #9A863C",
"H  c #A3942B",
"J  c #A78A37",
"K  c #A99A37",
"L  c #BAA52F",
"P  c #B5A430",
"I  c #BAAB35",
"U  c #C3AF31",
"Y  c #C4B133",
"T  c #C9B533",
"R  c #CDBA34",
"E  c #C3B13A",
"W  c #D7C036",
"Q  c #DDC537",
"!  c #E4CD39",
"~  c #E7D13A",
"^  c #ECD33B",
"/  c #F1D73C",
"(  c #F3D93C",
")  c #898146",
"_  c #978544",
"`  c #978356",
"'  c #A39150",
"]  c #968567",
"[  c #888477",
"{  c #958477",
"}  c #AF8973",
"|  c #B8A27C",
" . c #396A88",
".. c #2A74A2",
"X. c #BB5785",
"o. c #967382",
"O. c #9A7887",
"+. c #AB6483",
"@. c #A86985",
"#. c #B06E8D",
"$. c #A07789",
"%. c #A97B8A",
"&. c #AE7890",
"*. c #B67794",
"=. c #C65D8D",
"-. c #CC5E92",
";. c #CD6191",
":. c #D16295",
">. c #D46298",
",. c #7E8082",
"<. c #6D88AD",
"1. c #4795C0",
"2. c #6B8CFF",
"3. c #7392FE",
"4. c #7996FE",
"5. c #7B98FE",
"6. c #818283",
"7. c #86898A",
"8. c #8A8B8B",
"9. c #8B8F90",
"0. c #918E91",
"q. c #8F9295",
"w. c #949494",
"e. c #9D9C97",
"r. c #939699",
"t. c #9A9B9C",
"y. c #A69485",
"u. c #B7869B",
"i. c #B98C9F",
"p. c #9EA09E",
"a. c #B7A28F",
"s. c #9A9CA4",
"d. c #BC8EA2",
"f. c #BD90A5",
"g. c #A3A4A4",
"h. c #A9A9A7",
"j. c #B1ADAE",
"k. c #ACACB3",
"l. c #AFB0B5",
"z. c #B4B3B3",
"x. c #B9B8B9",
"c. c #C6A398",
"v. c #C696A7",
"b. c #CA96AB",
"n. c #C999AD",
"m. c #CE9CB2",
"M. c #CCB3A0",
"N. c #D3B9A6",
"B. c #DAA7B4",
"V. c #D7A2B9",
"C. c #DAA4BB",
"Z. c #E1A8BF",
"A. c #DDC1AD",
"S. c #E7CBB6",
"D. c #EFD0BA",
"F. c #F2D2BD",
"G. c #8D9FDA",
"H. c #95A5DB",
"J. c #AFB5C5",
"K. c #B6BAC7",
"L. c #BDBFC5",
"P. c #829EFE",
"I. c #99ABE7",
"U. c #86A0FE",
"Y. c #8BA4FE",
"T. c #92AAFE",
"R. c #98AFFD",
"E. c #9DB3FD",
"W. c #A6B8F9",
"Q. c #A5B8FE",
"!. c #ABBDFB",
"~. c #DEA8C1",
"^. c #E4ACC4",
"/. c #E9AFC7",
"(. c #ECB2CB",
"). c #F2B5CF",
"_. c #F3B6D0",
"`. c #F6B9D2",
"'. c #BEC1CE",
"]. c #BDC4DB",
"[. c #BAC6F3",
"{. c #B6C5F8",
"}. c #B3C4FC",
"|. c #BBCAFE",
" X c #C5C3C2",
".X c #C4C7CD",
"XX c #C6C9D6",
"oX c #CFD2DD",
"OX c #F5D7C0",
"+X c #E0DDDC",
"@X c #C6CDEA",
"#X c #CED2E5",
"$X c #CCD3EC",
"%X c #D2D7E8",
"&X c #C2CFFE",
"*X c #CAD4F8",
"=X c #D4DBF3",
"-X c #D2DBFD",
";X c #EAE7E5",
":X c #F2EEED",
">X c #F3F0EE",
/* pixels */
"2.2.2.2.2.2.2.2.2.2.2.2.2.2.2.2.2.2.2.2.2.2.2.2.2.2.2.2.2.2.2.2.2.2.2.2.2.2.2.2.",
"2.2.2.2.2.2.2.2.2.2.2.2.2.2.2.2.2.2.2.2.2.2.2.2.2.2.2.2.2.2.2.2.2.2.2.2.2.2.2.2.",
"2.2.2.2.2.2.2.2.2.2.2.2.2.2.2.2.2.2.2.2.2.2.2.2.2.2.2.2.2.2.2.2.2.2.2.2.2.2.2.2.",
"2.2.2.2.2.2.2.2.2.2.2.2.2.2.2.2.2.2.2.3.3.2.2.2.2.2.2.2.2.2.2.2.2.2.2.2.2.2.2.2.",
"2.2.2.2.2.2.2.2.2.2.2.2.2.2.2.4.P.3.E.oXoX*X*X2.2.2.2.2.2.2.2.2.2.2.2.2.2.2.2.2.",
"2.2.2.2.2.2.2.2.2.2.2.2.2.2.2.=Xe.L.h.p p 7 .X3.2.2.2.2.2.2.2.2.2.2.2.2.2.2.2.2.",
"2.2.2.2.2.2.2.2.2.2.2.2.2.2.2.-X& J J u V u t {.2.2.2.2.2.2.2.2.2.2.2.2.2.2.2.2.",
"2.2.2.2.2.2.2.2.2.2.2.2.2.2.2.&X .2 J % a u ; L.*X5.2.2.2.2.2.2.2.2.2.2.2.2.2.2.",
"2.2.2.2.2.2.2.2.2.2.2.2.2.2.U.#X> * D P A A T S 3 XXQ.*X}.2.2.2.2.2.2.2.2.2.2.2.",
"2.2.2.2.2.2.2.2.2.2.P.R.3.T.K.= W ( ( / ( / / ( Q & C @ $X2.2.2.2.2.2.2.2.2.2.2.",
"2.2.2.2.2.2.2.2.2.2.@X6.'.r.- ^ / / ( ( ( / ( ( / / Q * @X2.2.2.2.2.2.2.2.2.2.2.",
"2.2.2.2.2.2.2.2.2.2.{.3 D U ( ( ( / ( ( ( ( ( ( ^ ( Q # $X2.2.2.2.2.2.2.2.2.2.2.",
"2.2.2.2.2.2.2.2.2.2.U.l.F ^ / ( ( ( W T ( ( ( ( L ( T + #X2.2.2.2.2.2.2.2.2.2.2.",
"2.2.2.2.2.2.2.2.2.2.5.L.X L ( ( ( / D 5 W ( ( Y A ( ( ) [.2.2.2.2.2.2.2.2.2.2.2.",
"2.2.2.2.2.2.2.2.2.2.3.].F ( ( ( ( ~ 4 F.a.` ' ] ` T K g.T.2.2.2.2.2.2.2.2.2.2.2.",
"2.2.2.2.2.2.2.2.2.2.2.Q.w.H ^ / W i M.D.8 S.F.7 M P 3 [.2.2.2.2.2.2.2.2.2.2.2.2.",
"2.2.2.2.2.2.2.2.2.2.2.Q.=Xw.- ` - E A.F.@ A.OX8 d R w.|.2.2.2.2.2.2.2.2.2.2.2.2.",
"2.2.2.2.2.2.2.2.2.2.Y.k.p.5 ~ ` q K | F.M.A.%.A.d ^ * 8.Q.2.2.2.2.2.2.2.2.2.2.2.",
"2.2.2.2.2.2.2.2.2.2.5.p.Z Q ( C 1.q + N.F.c.v m  X) = g.Y.2.2.2.2.2.2.2.2.2.2.2.",
"2.2.2.2.2.2.2.2.2.2.4.x.  L / I : # * > { a.M > +Xg.e.W.2.2.2.2.2.2.2.2.2.2.2.2.",
"2.2.2.2.2.2.2.2.2.2.4.J.$ T ! 4 n.V.r C.m.n 3 0 l.oXC #X!.2.2.2.2.2.2.2.2.2.2.2.",
"2.2.2.2.2.2.2.2.2.2.2.*X. ! G ^.).).).N B.6 <.7 1 J.>XJ.h.}.2.2.2.2.2.2.2.2.2.2.",
"2.2.2.2.2.2.2.2.2.2.2.|.X ^ ` ).)._.`.o.B.5 ..w o.1 A.>Xg.=X2.2.2.2.2.2.2.2.2.2.",
"2.2.2.2.2.2.2.2.2.2.2.}.9 T _ O.(.(.^.o.).} G } O.N 8.t.t.|.2.2.2.2.2.2.2.2.2.2.",
"2.2.2.2.2.2.2.2.2.2.2.5.'.O ' S.e d.e )._._.~.v.$ o.|.&XQ.3.2.2.2.2.2.2.2.2.2.2.",
"2.2.2.2.2.2.2.2.2.2.2.U.-Xw w.y.H K s &.v./._.m # $X3.2.2.2.2.2.2.2.2.2.2.2.2.2.",
"2.2.2.2.2.2.2.2.2.2.R.x.w.x.>X] J b ;.:.=.z 0 X.N =X3.2.2.2.2.2.2.2.2.2.2.2.2.2.",
"2.2.2.2.2.2.2.2.T.XXz.[ z.>Xx., g b =.=.=.x n.k z N @X3.2.2.2.2.2.2.2.2.2.2.2.2.",
"2.2.2.2.2.2.2.2.H.j.+X:X;X7.o l z l g c x v._.V.j g 9.}.2.2.2.2.2.2.2.2.2.2.2.2.",
"2.2.2.2.2.2.2.2.I.w. X+Xz.h -.-.-.;.b B C._._._.~.B +.~.3.2.2.2.2.2.2.2.2.2.2.2.",
"2.2.2.2.2.2.2.2.P.*X'.w.> N V @.@.&.m.`._._._._._._.$.k.P.2.2.2.2.2.2.2.2.2.2.2.",
"2.2.2.2.2.2.2.2.2.2.Y.g.o._.^.Z._.).).C._._._._.(.~.(.r {.2.2.2.2.2.2.2.2.2.2.2.",
"2.2.2.2.2.2.2.2.2.2.[.w )._.d.(._._.m.C._._._._.`.u._.o.XX3.2.2.2.2.2.2.2.2.2.2.",
"2.2.2.2.2.2.2.2.2.3.l.u._.^.v._._._.d.`._._._._._.d.(.V.0.R.2.2.2.2.2.2.2.2.2.2.",
"2.2.2.2.2.2.2.2.2.}.y /.).v./._._._.d.`._._._._.).^.n._.w &X2.2.2.2.2.2.2.2.2.2.",
"2.2.2.2.2.2.2.2.2.%XN ).`.i.`._._./.b._._._._.`._._.d.`.e $X2.2.2.2.2.2.2.2.2.2.",
"2.2.2.2.2.2.2.2.P.s.f._.~.n._._.).V.V._.`.`.`.`._.`.d.).$.K.2.2.2.2.2.2.2.2.2.2.",
"2.2.2.2.2.2.2.2.!., +.+.h V #.#.#.j k #.*.*.d.*.*.#.j +.+.y T.2.2.2.2.2.2.2.2.2.",
"2.2.2.2.2.2.2.2.<.g =.=.f -.-.-.=.g X.-.>.>.>.>.>.>.x X.-.< G.2.2.2.2.2.2.2.2.2.",
"2.2.2.2.2.2.2.2.H.9.7.q.r.6.,.,.7.r.9.y w 9 9 9 w y 7.6.,.9.I.2.2.2.2.2.2.2.2.2."
};
