/* XPM */
static char *_01695290860[] = {
/* columns rows colors chars-per-pixel */
"40 40 163 2 ",
"   c #31342D",
".  c #474321",
"X  c #58432B",
"o  c #5D5620",
"O  c #495236",
"+  c #5A5534",
"@  c #685421",
"#  c #665B23",
"$  c #685D33",
"%  c #746A24",
"&  c #7A6E25",
"*  c #6E6133",
"=  c #72653C",
"-  c #7B7137",
";  c #593140",
":  c #783C57",
">  c #5B464A",
",  c #5F5D4C",
"<  c #5E4F51",
"1  c #5A5355",
"2  c #604A4C",
"3  c #764151",
"4  c #65525B",
"5  c #706A49",
"6  c #7B7549",
"7  c #696758",
"8  c #786257",
"9  c #745664",
"0  c #596E60",
"q  c #7B6771",
"w  c #7C7578",
"e  c #88373F",
"r  c #895C32",
"t  c #887B24",
"y  c #A76F3B",
"u  c #867D4B",
"i  c #8E7753",
"p  c #8A4566",
"a  c #8C4E69",
"s  c #954A6D",
"d  c #89546C",
"f  c #8C5871",
"g  c #905572",
"h  c #925C74",
"j  c #A24E74",
"k  c #A4547A",
"l  c #AB547C",
"z  c #B2547F",
"x  c #9B647C",
"c  c #877A73",
"v  c #A46C77",
"b  c #96852B",
"n  c #948736",
"m  c #A99A33",
"M  c #B19033",
"N  c #B19F31",
"B  c #BAA72D",
"V  c #B2A032",
"C  c #C9A137",
"Z  c #C3AF33",
"A  c #D6AF3C",
"S  c #C6B335",
"D  c #CEB935",
"F  c #D3BD34",
"G  c #DBC437",
"H  c #E4CC39",
"J  c #E8CF3A",
"K  c #ECD33A",
"L  c #F2D73C",
"P  c #F3D93D",
"I  c #908157",
"U  c #968D64",
"Y  c #82827C",
"T  c #8B8979",
"R  c #9A937E",
"E  c #AF5680",
"W  c #B45681",
"Q  c #BC5686",
"!  c #8C7F86",
"~  c #997787",
"^  c #9E7A89",
"/  c #AC6786",
"(  c #B26286",
")  c #A6768B",
"_  c #A27C8D",
"`  c #AD7A90",
"'  c #C65A8D",
"]  c #C85C8E",
"[  c #D56197",
"{  c #E366A0",
"}  c #6B8CFF",
"|  c #708FFE",
" . c #7392FE",
".. c #7996FE",
"X. c #7C99FE",
"o. c #898387",
"O. c #8C8C8D",
"+. c #9B8891",
"@. c #9C8B93",
"#. c #9F9A9D",
"$. c #AC8395",
"%. c #AE8598",
"&. c #B58A9C",
"*. c #9EA09E",
"=. c #9C9CA0",
"-. c #BE8FA3",
";. c #8FA0AC",
":. c #AAABAF",
">. c #A0A5B2",
",. c #A4A9B6",
"<. c #ABAFBC",
"1. c #B4AFB8",
"2. c #AEB2BE",
"3. c #B4B4BB",
"4. c #BBB5BA",
"5. c #C293A7",
"6. c #C795AA",
"7. c #C998AC",
"8. c #CD9BB0",
"9. c #D39FB5",
"0. c #D5A1B7",
"q. c #DBA4BC",
"w. c #ABB2C3",
"e. c #AFB6CF",
"r. c #BBBCC1",
"t. c #B1B7CA",
"y. c #B6BDD5",
"u. c #829EFE",
"i. c #86A1FE",
"p. c #8CA5FD",
"a. c #94ACFE",
"s. c #9CB1FE",
"d. c #A9BAF6",
"f. c #A0B5FE",
"g. c #A5B9FD",
"h. c #AABCFB",
"j. c #DFA9C0",
"k. c #E4ABC4",
"l. c #E9AFC8",
"z. c #EEB2CC",
"x. c #F1B5CE",
"c. c #F3B6D1",
"v. c #F6B9D3",
"b. c #BDC3DA",
"n. c #BBC5E2",
"m. c #B7C5F7",
"M. c #BECBF7",
"N. c #B4C4FB",
"B. c #BBC9FC",
"V. c #C1C0C7",
"C. c #C6C9D6",
"Z. c #C5C9DE",
"A. c #C5CCE5",
"S. c #C9CFE2",
"D. c #C3CCE8",
"F. c #CBD1E7",
"G. c #CAD1EC",
"H. c #C2CEF4",
"J. c #CAD5F5",
"K. c #C3D0FD",
"L. c #D1D8F6",
"P. c #DFE4F8",
"I. c #E3E4EC",
/* pixels */
"} } } } } } } } } } } } } } } } } } } } } } } } } } } } } } } } } } } } } } } } ",
"} } } } } } } } } } } } } } } } } } } } } } } } } } } } } } } } } } } } } } } } ",
"} } } } } } } } } } } } } } } } } } } } } } } } } } } } } } } } } } } } } } } } ",
"} } } } } } } } } } } } } } } } } } } u. .} } } } } } } } } } } } } } } } } } } ",
"} } } } } } } } } } } } } } } N.F.s.B.:.A.h.p.} } } } } } } } } } } } } } } } } ",
"} } } } } } } } } } } } } } | F.= R U M I Y M.} } } } } } } } } } } } } } } } } ",
"} } } } } } } } } } } } } } a.;.0 A C v y $ n.} } } } } } } } } } } } } } } } } ",
"} } } } } } } } } } u.} | N.:.0 O @ @ e r   C.p.} } } } } } } } } } } } } } } } ",
"} } } } } } } } } } J.J.G.7 N H K K G & t D n 3.p. .N.} } } } } } } } } } } } } ",
"} } } } } } } } }  .>.+ - G L L P L L P P P P m =.<.S. .} } } } } } } } } } } } ",
"} } } } } } } } } X.C.t P P P P P P P P P P P L Z % e.} } } } } } } } } } } } } ",
"} } } } } } } } } X.#.% K P P P P P P P P P P P P - I...} } } } } } } } } } } } ",
"} } } } } } } } }  .t.t L L P P P P P P P P P P F . b. .} } } } } } } } } } } } ",
"} } } } } } } } } } B.7 H L P P P P P P P P P P & O.s.} } } } } } } } } } } } } ",
"} } } } } } } } } }  .F.6 K P P P P P P P P P P u m.} } } } } } } } } } } } } } ",
"} } } } } } } } } } X.N.T P P P P P P P P P P P n D.s.} } } } } } } } } } } } } ",
"} } } } } } } } } } h.Y S L P P P P P P P P P K H u G.} } } } } } } } } } } } } ",
"} } } } } } } } } } X.C.5 G P P P P P P P P P H m R f.} } } } } } } } } } } } } ",
"} } } } } } } } } } } u.,.B P P P P P P P P L J T N.} } } } } } } } } } } } } } ",
"} } } } } } } } } }  .D.o.% P P P P P P P P P H *. .} } } } } } } } } } } } } } ",
"} } } } } } } } } } g.+.x.8 L P P P P P P P P n y.| } } } } } } } } } } } } } } ",
"} } } } } } } } } } M.^ v.8 J L P P P P P P P , P.s.} } } } } } } } } } } } } } ",
"} } } } } } } } } } H.~ &.# S P P P P P P P P V Y a.} } } } } } } } } } } } } } ",
"} } } } } } } } } } a.3.1 2 * K H P P P P P V 6 b. .} } } | } } } } } } } } } } ",
"} } } } } } } } } } } i.2.c 7 m b P L L K G I J...} } } d.d.} } } } } } } } } } ",
"} } } } } } } } } } } } b.*.9 ; : b J L Z o < Z...} } } ..p.} } } } } } } } } } ",
"} } } } } } } } } } } | L.4 ' W j : X G i > s 9 B.} } } } } } } } } } } } } } } ",
"} } } } } } } } } } } d.~ W l z z j ^ > 0.z.x k 3. .} } } } } } } } } } } } } } ",
"} } } } } } } } } } } G.3 a a h $.q.c.x.c.c.z.) #.X.} } } } } } } } } } } } } } ",
"} } } } } } } } } } ..r.$.z.q.v.c.j.c.c.c.c.0.z.! d.} } } } } } } } } } } } } } ",
"} } } } } } } } } } g.w l.0.q.x.v.$.c.c.c.c.7.q.^ Z.} } } } } } } } } } } } } } ",
"} } } } } } } } } } D.4 c.-.x.c.v.$.v.c.c.c.x.%.k.o.a.} } } } } } } } } } } } } ",
"} } } } } } } } } } <._ c.$.c.c.z.%.c.c.c.v.c.&.c.q B.} } } } } } } } } } } } } ",
"} } } } } } } } } X.O.k.l.&.c.c.z.-.c.c.c.c.x.q.0.&.t.| } } } } } } } } } } } } ",
"} } } } } } } } } s.w v.9.9.c.c.k.5.c.c.c.c.c.z.-.k.#.X.} } } } } } } } } } } } ",
"} } } } } } } } } m.w c.6.z.x.c.j.7.x.c.v.c.c.c.-.c.@.s.} } } } } } } } } } } } ",
"} } } } } } } } ..V.k ( d ` -.8.&._ l.c.c.z.q.-.f / s S. .} } } } } } } } } } } ",
"} } } } } } } } p.r.x l s { [ ' Q j W E E W Q [ E ] h 1.p.} } } } } } } } } } } ",
"} } } } } } } } } i.d.C.b.$.g s p p z ' ' Q s h @.4.A.s.} } } } } } } } } } } } ",
"} } } } } } } } } } } }  .f.B.H.H.n.w.,.,.w.b.K.s...} } } } } } } } } } } } } } "
};
